<?xml version="1.0" encoding="UTF-8" standalone="no"?>
<svg
   version="1.1"
   viewBox="0 0 180 180"
   id="svg3568"
   sodipodi:docname="contact_image.svg"
   width="180"
   height="180"
   inkscape:version="1.2.2 (732a01da63, 2022-12-09, custom)"
   xmlns:inkscape="http://www.inkscape.org/namespaces/inkscape"
   xmlns:sodipodi="http://sodipodi.sourceforge.net/DTD/sodipodi-0.dtd"
   xmlns="http://www.w3.org/2000/svg"
   xmlns:svg="http://www.w3.org/2000/svg">
  <defs
     id="defs3572" />
  <sodipodi:namedview
     id="namedview3570"
     pagecolor="#505050"
     bordercolor="#eeeeee"
     borderopacity="1"
     inkscape:showpageshadow="0"
     inkscape:pageopacity="0"
     inkscape:pagecheckerboard="0"
     inkscape:deskcolor="#505050"
     showgrid="false"
     inkscape:zoom="2.3219512"
     inkscape:cx="124.67962"
     inkscape:cy="82.47374"
     inkscape:window-width="1366"
     inkscape:window-height="704"
     inkscape:window-x="0"
     inkscape:window-y="0"
     inkscape:window-maximized="1"
     inkscape:current-layer="svg3568" />
  <g
     stroke-width="2"
     fill="none"
     stroke-linecap="butt"
     id="g3468"
     transform="matrix(0.38862753,0,0,0.38862753,-7.3441946,13.098421)">
    <path
       stroke="#98bbdc"
       vector-effect="non-scaling-stroke"
       d="m 109.62,323.13 q 0.47,1.03 0.75,1.2 c 22.05,13.04 46.78,24.21 71.84,29.77 36.72,8.13 76,11.41 112.53,1.12 29.83,-8.4 58.28,-19.47 83.27,-38.21 q 0.39,-0.3 0.65,-0.76"
       id="path3322" />
    <path
       stroke="#fcfbff"
       vector-effect="non-scaling-stroke"
       d="m 378.66,316.25 0.9,-0.93 q 0.3,-0.31 0.73,-0.3 1.3,0.03 2.03,-0.96 0.29,-0.39 0.73,-0.6 1.89,-0.86 3.49,-2.18 c 7.48,-6.14 15.6,-12.5 21.99,-19.05 21.78,-22.36 38.14,-50.78 49.11,-79.82 7.02,-18.59 10.48,-37.26 10.34,-57.16 -0.09,-12.49 0.23,-26.21 -3.16,-38.31 q -0.39,-1.41 0.7,-3.45 0.21,-0.39 -0.11,-0.7 L 465,112.37 a 0.17,0.17 0 0 1 0,-0.24 q 0.09,-0.1 0.19,-0.19 0.3,-0.29 -0.11,-0.39 -0.2,-0.04 -0.4,-0.09 -0.49,-0.12 0.01,-0.2 c 2.44,-0.36 4.11,0.25 6.67,-0.56"
       id="path3324" />
    <path
       stroke="#fcc18f"
       vector-effect="non-scaling-stroke"
       d="m 471.36,110.7 9.41,-0.17"
       id="path3326" />
    <path
       stroke="#f7b882"
       vector-effect="non-scaling-stroke"
       d="m 480.77,110.53 q 0.96,-0.68 -1.19,-2.32 C 472.01,102.43 464.69,96.2 457.22,90.25"
       id="path3328" />
    <path
       stroke="#fcfbff"
       vector-effect="non-scaling-stroke"
       d="m 457.22,90.25 q 0.72,-2.7 -1.31,-4.47 -0.38,-0.33 -0.56,-0.79 -2.4,-6.07 -4.87,-12.12 C 437.58,41.26 401.7,16.86 368.51,14.02 q -25.43,-2.18 -47.3,7.29 c -12.17,5.27 -25.35,14.79 -36.51,23.36 -17.85,13.7 -36.55,27.96 -58.29,34.89 -15.98,5.1 -32.83,6.88 -50.37,6.62 -2.26,-0.03 -4.7,0.89 -7.07,0.89 q -15.44,0.01 -30.86,0.03 c -25.41,0.04 -53.54,4.65 -74.86,19.72 -24.37,17.23 -42.74,45.79 -43.33,76.49 -1.08,56.4 37.41,105.26 82.33,136.03 q 1.32,0.91 3.71,1.73 2.3,0.8 3.66,2.06"
       id="path3330" />
    <path
       stroke="#f3b382"
       vector-effect="non-scaling-stroke"
       d="m 457.22,90.25 -57.76,-46.7 q -0.44,-0.35 -0.62,0.18 l -4.82,14.05"
       id="path3332" />
    <path
       stroke="#f9bd8f"
       vector-effect="non-scaling-stroke"
       d="m 394.02,57.78 -5.2,13.61 q -0.2,0.53 -0.55,0.97 -0.93,1.15 -1.2,2.68 a 1.36,1.35 77.1 0 1 -0.56,0.9 c -3.14,2.26 -7.46,4.1 -9.91,5.43 q -12.86,7 -25.95,13.27 a 0.28,0.28 0 0 0 0.08,0.53 L 385,99.48 q 0.37,0.04 0.38,0.47 l 0.13,6.71 q 0,0.35 0.35,0.38 l 1.37,0.13"
       id="path3334" />
    <path
       stroke="#d3a583"
       vector-effect="non-scaling-stroke"
       d="m 387.23,107.17 q 37.76,0.4 74.78,2.8"
       id="path3336" />
    <path
       stroke="#f9bd8f"
       vector-effect="non-scaling-stroke"
       d="m 462.01,109.97 9.35,0.73"
       id="path3338" />
    <path
       stroke="#95b6dc"
       vector-effect="non-scaling-stroke"
       d="m 378.66,316.25 q -0.79,-11.55 -0.12,-23"
       id="path3340" />
    <path
       stroke="#98bce5"
       vector-effect="non-scaling-stroke"
       d="m 378.54,293.25 -0.19,-58.58 q 0,-0.45 -0.14,-0.88 l -0.36,-1.11"
       id="path3342" />
    <path
       stroke="#7d80a4"
       vector-effect="non-scaling-stroke"
       d="M 377.85,232.68 357.04,215.41"
       id="path3344" />
    <path
       stroke="#bdd3ee"
       vector-effect="non-scaling-stroke"
       d="m 357.04,215.41 c -0.14,-0.84 -0.57,-1.74 -0.56,-2.58 q 0.09,-27.98 -0.05,-55.98 c -0.03,-6.79 0.82,-11.86 -7.42,-11.81 q -21,0.1 -76.34,-0.16"
       id="path3346" />
    <path
       stroke="#7d80a4"
       vector-effect="non-scaling-stroke"
       d="m 272.67,144.88 c -8.49,-7.02 -16.64,-14.32 -25.16,-20.7 -2.73,-2.05 -5.03,-1.49 -7.54,0.56 q -11.59,9.48 -23.04,19.19 -0.71,0.6 -3.45,0.97"
       id="path3348" />
    <path
       stroke="#bdd3ee"
       vector-effect="non-scaling-stroke"
       d="m 213.48,144.9 q -35.84,0.2 -71.73,0.29 c -4.21,0.01 -9.29,-0.52 -9.77,5.32 -0.49,6.05 0.01,13.66 0.04,17.99 q 0.12,23.47 -0.24,46.6"
       id="path3350" />
    <path
       stroke="#7d80a4"
       vector-effect="non-scaling-stroke"
       d="m 131.78,215.1 q -10.65,8.78 -20.48,17.22 -1.67,1.44 -0.74,1.84"
       id="path3352" />
    <path
       stroke="#98bce5"
       vector-effect="non-scaling-stroke"
       d="m 110.56,234.16 q -0.48,2.28 -0.5,5.09 -0.22,37.81 -0.33,75.5"
       id="path3354" />
    <path
       stroke="#95b6dc"
       vector-effect="non-scaling-stroke"
       d="m 109.73,314.75 -0.11,8.38"
       id="path3356" />
    <path
       stroke="#357cc2"
       vector-effect="non-scaling-stroke"
       d="m 378.54,293.25 -0.56,-0.74 q -0.19,-0.26 -0.22,0.06 -0.95,8.38 -1.99,16.74 -0.16,1.27 -1.71,2.25 c -13.76,8.66 -26.31,15.62 -41.37,21.69 q -18.05,7.28 -36.54,13.5 a 1.27,1.26 58.5 0 1 -1.32,-0.32 l -36.91,-38.32"
       id="path3358" />
    <path
       stroke="#1d4689"
       vector-effect="non-scaling-stroke"
       d="m 377.85,232.68 q -0.34,1.01 -1.02,1.42 -9.62,5.84 -19.2,11.98 a 0.54,0.54 0 0 1 -0.83,-0.46 q 0.01,-0.33 -0.3,-0.38"
       id="path3360" />
    <path
       stroke="#1d4689"
       vector-effect="non-scaling-stroke"
       d="m 131.73,246.46 c -6.98,-4.18 -13.75,-9.07 -21.17,-12.3"
       id="path3362" />
    <path
       stroke="#f47a12"
       vector-effect="non-scaling-stroke"
       d="m 480.77,110.53 q -5.39,-1.32 -10.29,-0.62"
       id="path3364" />
    <path
       stroke="#ce6206"
       vector-effect="non-scaling-stroke"
       d="m 470.48,109.91 -1.94,-0.17 q -0.4,-0.04 -0.04,-0.23 l 0.48,-0.26 q 0.43,-0.23 0.49,-0.71 0.06,-0.42 0.29,-0.8"
       id="path3366" />
    <path
       stroke="#f47a12"
       vector-effect="non-scaling-stroke"
       d="m 469.76,107.74 1.84,0.02 a 0.95,0.95 0 0 0 0.25,-1.86 q -5.03,-1.34 -10.5,-3.31 -34.33,-12.4 -68.64,-24.83 -2.02,-0.73 -3.45,-1.52 a 1.25,1.25 0 0 1 -0.42,-1.81 q 2.77,-3.99 3.9,-7.53 c 0.89,-2.77 2.77,-5.64 1.28,-9.12"
       id="path3368" />
    <path
       stroke="#415d92"
       vector-effect="non-scaling-stroke"
       d="m 357.04,215.41 q -0.54,0.3 -0.54,0.59 0,14.63 0,29.24"
       id="path3370" />
    <path
       stroke="#5d98d3"
       vector-effect="non-scaling-stroke"
       d="m 356.5,245.24 c 0.14,1.01 -0.07,1.6 -0.97,2.15 q -48.95,30.09 -97.61,60.72"
       id="path3372" />
    <path
       stroke="#5993cb"
       vector-effect="non-scaling-stroke"
       d="m 257.92,308.11 q -13.79,0.92 -27.97,-0.3"
       id="path3374" />
    <path
       stroke="#5d98d3"
       vector-effect="non-scaling-stroke"
       d="M 229.95,307.81 202.16,289.86"
       id="path3376" />
    <path
       stroke="#99bee5"
       vector-effect="non-scaling-stroke"
       d="m 202.16,289.86 c 3.23,-0.75 5.59,-1.21 9.11,-0.67 q 5.06,0.79 10.12,-0.1 a 1.27,1.27 0 0 0 1.05,-1.26 l -0.06,-9.69 a 0.54,0.54 0 0 0 -0.54,-0.54 l -39.51,0.23"
       id="path3378" />
    <path
       stroke="#5d98d3"
       vector-effect="non-scaling-stroke"
       d="m 182.33,277.83 -13.77,-8.76"
       id="path3380" />
    <path
       stroke="#99bee5"
       vector-effect="non-scaling-stroke"
       d="m 168.56,269.07 c 5.11,-2.48 8.34,-0.7 13.03,-0.75 q 63.94,-0.63 127.88,-0.1 c 1.54,0.01 3.47,-0.58 4.71,-1.54 q 6.62,-5.13 13.92,-9.48 a 0.51,0.51 0 0 0 -0.26,-0.95 q -84.33,-0.01 -169.01,0.01 c -2.15,0 -6.56,-0.06 -6.89,2.77"
       id="path3382" />
    <path
       stroke="#5d98d3"
       vector-effect="non-scaling-stroke"
       d="M 151.94,259.03 131.73,246.46"
       id="path3384" />
    <path
       stroke="#415d92"
       vector-effect="non-scaling-stroke"
       d="m 131.73,246.46 0.05,-31.36"
       id="path3386" />
    <path
       stroke="#d46b13"
       vector-effect="non-scaling-stroke"
       d="m 469.76,107.74 c -1.74,0.12 -3.25,0.28 -5.01,0.14 q -38.58,-3.24 -77.02,-8.12 -0.5,-0.07 -0.65,0.41 -1.29,3.97 0.15,7"
       id="path3388" />
    <path
       stroke="#415d92"
       vector-effect="non-scaling-stroke"
       d="m 272.67,144.88 -59.19,0.02"
       id="path3390" />
    <path
       stroke="#d46b13"
       vector-effect="non-scaling-stroke"
       d="m 470.48,109.91 -8.47,0.06"
       id="path3392" />
    <path
       stroke="#74a7dc"
       vector-effect="non-scaling-stroke"
       d="m 151.94,259.03 16.62,10.04"
       id="path3394" />
    <path
       stroke="#74a7dc"
       vector-effect="non-scaling-stroke"
       d="m 182.33,277.83 19.83,12.03"
       id="path3396" />
    <path
       stroke="#357cc2"
       vector-effect="non-scaling-stroke"
       d="m 229.95,307.81 q -17.21,18.54 -34.64,37.25 -1.36,1.46 -3.04,2.41 -0.44,0.25 -0.94,0.12 c -28.98,-7.19 -51.41,-17.89 -81.6,-32.84"
       id="path3398" />
    <path
       stroke="#98bbdc"
       vector-effect="non-scaling-stroke"
       d="m 110.94,369.81 c 7.51,5.25 14.6,10.3 23.27,12.1 8.78,1.83 26.92,3.73 29.83,-8.66 1.63,-6.95 -4.41,-11.88 -10.33,-14.01 q -10.27,-3.69 -20.28,-8.02 c -8.41,-3.64 -15.57,-8.64 -22.87,-13.99 a 0.43,0.43 0 0 0 -0.68,0.35 q 0.22,14.46 0.11,29.19 c -0.01,1.47 -0.43,2.08 0.95,3.04"
       id="path3400" />
    <path
       stroke="#f3b382"
       vector-effect="non-scaling-stroke"
       d="m 327.3197,57.8284 a 3.47,0.82 0.8 0 0 -3.4583,-0.8683 3.47,0.82 0.8 0 0 -3.4811,0.7715 3.47,0.82 0.8 0 0 3.4583,0.8683 3.47,0.82 0.8 0 0 3.4811,-0.7715"
       id="path3402" />
    <path
       stroke="#f9bd8f"
       vector-effect="non-scaling-stroke"
       d="m 340.2669,59.0259 a 3.58,0.96 7.8 0 0 -3.4166,-1.437 3.58,0.96 7.8 0 0 -3.6772,0.4652 3.58,0.96 7.8 0 0 3.4166,1.437 3.58,0.96 7.8 0 0 3.6772,-0.4652"
       id="path3404" />
    <path
       stroke="#f9bd8f"
       vector-effect="non-scaling-stroke"
       d="m 313.9881,58.0351 a 0.72,0.72 0 0 0 -0.8013,-0.6283 l -4.7851,0.5791 a 0.72,0.72 0 0 0 -0.6283,0.8013 l 0.0385,0.3177 a 0.72,0.72 0 0 0 0.8013,0.6283 l 4.7851,-0.5791 a 0.72,0.72 0 0 0 0.6283,-0.8013 l -0.0385,-0.3177"
       id="path3406" />
    <path
       stroke="#f9bd8f"
       vector-effect="non-scaling-stroke"
       d="m 301.6507,60.1094 a 0.86,0.86 0 0 0 -1.0154,-0.6695 l -4.9566,1.0174 a 0.86,0.86 0 0 0 -0.6695,1.0154 l 0.0201,0.0979 a 0.86,0.86 0 0 0 1.0154,0.6695 l 4.9566,-1.0174 a 0.86,0.86 0 0 0 0.6695,-1.0154 l -0.0201,-0.0979"
       id="path3408" />
    <path
       stroke="#f9bd8f"
       vector-effect="non-scaling-stroke"
       d="m 352.5169,62.1745 a 0.95,0.95 0 0 0 -0.6472,-1.1773 l -4.7247,-1.3726 a 0.95,0.95 0 0 0 -1.1773,0.6472 l -0.0446,0.1537 a 0.95,0.95 0 0 0 0.6472,1.1773 l 4.7247,1.3726 a 0.95,0.95 0 0 0 1.1773,-0.6472 l 0.0446,-0.1537"
       id="path3410" />
    <path
       stroke="#f9bd8f"
       vector-effect="non-scaling-stroke"
       d="m 282.76,65.74 0.75,1.46 a 0.25,0.25 0 0 0 0.34,0.11 l 2.64,-1.37 a 4.01,0.74 -27.3 0 0 3.23,-2.5 l -0.3,-0.58 a 4.01,0.74 -27.3 0 0 -3.91,1.18 l -2.65,1.36 a 0.25,0.25 0 0 0 -0.1,0.34"
       id="path3412" />
    <path
       stroke="#f9bd8f"
       vector-effect="non-scaling-stroke"
       d="m 357.81,65.01 6.2,2.65 a 0.23,0.23 0 0 0 0.3,-0.12 l 0.04,-0.1 a 2.94,2 23.2 0 0 -1.91,-3 l -1.22,-0.52 a 2.94,2 23.2 0 0 -3.49,0.68 l -0.04,0.11 a 0.23,0.23 0 0 0 0.12,0.3"
       id="path3414" />
    <path
       stroke="#f9bd8f"
       vector-effect="non-scaling-stroke"
       d="m 376.78,70.12 -6.61,-2.63 a 0.1,0.1 0 0 0 -0.13,0.06 l -0.01,0.01 a 3.12,2.35 21.7 0 0 2.03,3.33 l 1.01,0.4 a 3.12,2.35 21.7 0 0 3.76,-1.03 l 0.01,-0.01 a 0.1,0.1 0 0 0 -0.06,-0.13"
       id="path3416" />
    <path
       stroke="#f9bd8f"
       vector-effect="non-scaling-stroke"
       d="m 276.93,69.21 -4.44,3.64 a 0.44,0.44 0 0 0 -0.06,0.62 l 0.15,0.19 a 3.18,1.81 -39.3 0 0 3.61,-0.61 l 0.2,-0.17 a 3.18,1.81 -39.3 0 0 1.32,-3.41 l -0.16,-0.19 a 0.44,0.44 0 0 0 -0.62,-0.07"
       id="path3418" />
    <path
       stroke="#f9bd8f"
       vector-effect="non-scaling-stroke"
       d="m 267.63,77.46 -4.75,5.06 a 0.17,0.17 0 0 0 0.01,0.24 l 0.06,0.06 a 2.58,2.37 -46.8 0 0 3.49,-0.26 l 1.45,-1.55 a 2.58,2.37 -46.8 0 0 0.04,-3.5 l -0.06,-0.05 a 0.17,0.17 0 0 0 -0.24,0"
       id="path3420" />
    <path
       stroke="#f9bd8f"
       vector-effect="non-scaling-stroke"
       d="m 255.86,93.13 4.31,-4.82 a 0.2,0.2 0 0 0 -0.02,-0.28 L 260.12,88 a 2.3,2.22 -48.2 0 0 -3.18,0.24 l -1.51,1.68 a 2.3,2.22 -48.2 0 0 0.12,3.2 l 0.03,0.02 a 0.2,0.2 0 0 0 0.28,-0.01"
       id="path3422" />
    <path
       stroke="#f9bd8f"
       vector-effect="non-scaling-stroke"
       d="m 249.61,95.41 -4.86,4.9 a 0.28,0.28 0 0 0 0,0.39 l 0.23,0.23 a 2.93,1.7 -45.2 0 0 3.27,-0.88 l 1.13,-1.14 a 2.93,1.7 -45.2 0 0 0.86,-3.27 l -0.23,-0.23 a 0.28,0.28 0 0 0 -0.4,0"
       id="path3424" />
    <path
       stroke="#f9bd8f"
       vector-effect="non-scaling-stroke"
       d="m 234.1,106.52 0.72,1.25 a 0.45,0.45 0 0 0 0.62,0.16 l 1.41,-0.82 a 4.76,1.1 -30.1 0 0 3.56,-3.33 l -0.07,-0.13 a 4.76,1.1 -30.1 0 0 -4.67,1.44 l -1.41,0.82 a 0.45,0.45 0 0 0 -0.16,0.61"
       id="path3426" />
    <path
       stroke="#f9bd8f"
       vector-effect="non-scaling-stroke"
       d="m 151.8883,108.6451 a 0.93,0.93 0 0 0 -0.8593,-0.9956 l -4.2686,-0.3135 a 0.93,0.93 0 0 0 -0.9956,0.8594 l -0.0131,0.1795 a 0.93,0.93 0 0 0 0.8593,0.9956 l 4.2686,0.3135 a 0.93,0.93 0 0 0 0.9956,-0.8594 l 0.0131,-0.1795"
       id="path3428" />
    <path
       stroke="#f3b382"
       vector-effect="non-scaling-stroke"
       d="m 139.2571,108.4404 a 0.67,0.67 0 0 0 -0.6804,-0.6594 l -4.9794,0.0782 a 0.67,0.67 0 0 0 -0.6594,0.6805 l 0.005,0.3199 a 0.67,0.67 0 0 0 0.6804,0.6594 l 4.9794,-0.0782 a 0.67,0.67 0 0 0 0.6594,-0.6805 l -0.005,-0.3199"
       id="path3430" />
    <path
       stroke="#f9bd8f"
       vector-effect="non-scaling-stroke"
       d="m 164.7666,109.5192 a 0.7,0.7 0 0 0 -0.5861,-0.7978 l -4.5471,-0.6958 a 0.7,0.7 0 0 0 -0.7978,0.586 l -0.1422,0.9292 a 0.7,0.7 0 0 0 0.5861,0.7978 l 4.5471,0.6958 a 0.7,0.7 0 0 0 0.7978,-0.586 l 0.1422,-0.9292"
       id="path3432" />
    <path
       stroke="#f9bd8f"
       vector-effect="non-scaling-stroke"
       d="m 227.81,107.95 q -2.18,2.15 -5.16,1.53 -0.49,-0.1 -0.6,0.39 l -0.12,0.51 q -0.17,0.78 0.62,0.82 c 2.4,0.12 5.87,-0.11 5.88,-2.99 a 0.36,0.36 0 0 0 -0.62,-0.26"
       id="path3434" />
    <path
       stroke="#f3b382"
       vector-effect="non-scaling-stroke"
       d="m 126.3496,109.545 a 0.71,0.71 0 0 0 -0.8468,-0.5395 l -4.4519,0.9869 a 0.71,0.71 0 0 0 -0.5395,0.8469 l 0.039,0.1757 a 0.71,0.71 0 0 0 0.8468,0.5395 l 4.4519,-0.9869 a 0.71,0.71 0 0 0 0.5395,-0.8469 l -0.039,-0.1757"
       id="path3436" />
    <path
       stroke="#f9bd8f"
       vector-effect="non-scaling-stroke"
       d="m 177.57,111.33 -5.76,-1.54 a 0.18,0.18 0 0 0 -0.22,0.12 l -0.07,0.24 a 2.64,1.71 15 0 0 2.11,2.34 l 1.01,0.27 a 2.64,1.71 15 0 0 2.99,-0.97 l 0.06,-0.24 a 0.18,0.18 0 0 0 -0.12,-0.22"
       id="path3438" />
    <path
       stroke="#f9bd8f"
       vector-effect="non-scaling-stroke"
       d="m 209.59,112.85 0.32,1.49 a 0.43,0.43 0 0 0 0.51,0.33 l 0.91,-0.2 a 4.76,1.08 -12.2 0 0 4.42,-2.06 l -0.04,-0.21 a 4.76,1.08 -12.2 0 0 -4.88,-0.05 l -0.91,0.19 a 0.43,0.43 0 0 0 -0.33,0.51"
       id="path3440" />
    <path
       stroke="#f9bd8f"
       vector-effect="non-scaling-stroke"
       d="m 190.2997,113.8038 a 0.83,0.83 0 0 0 -0.6949,-0.946 l -4.6459,-0.711 a 0.83,0.83 0 0 0 -0.946,0.695 l -0.0726,0.4744 a 0.83,0.83 0 0 0 0.6949,0.946 l 4.6459,0.711 a 0.83,0.83 0 0 0 0.946,-0.695 l 0.0726,-0.4744"
       id="path3442" />
    <path
       stroke="#f3b382"
       vector-effect="non-scaling-stroke"
       d="m 109.07,116.85 q 1.2,0.21 1.55,-0.78 0.18,-0.51 0.69,-0.69 l 2.67,-0.95 a 0.42,0.41 -12.6 0 0 0.27,-0.41 q 0,-0.15 0,-0.28 0.02,-0.69 -0.66,-0.55 -2.93,0.61 -4.79,2.92 a 0.46,0.46 0 0 0 0.27,0.74"
       id="path3444" />
    <path
       stroke="#f9bd8f"
       vector-effect="non-scaling-stroke"
       d="m 202.834,113.6526 a 0.52,0.52 0 0 0 -0.5281,-0.5118 l -4.9994,0.0786 a 0.52,0.52 0 0 0 -0.5118,0.5281 l 0.0113,0.7199 a 0.52,0.52 0 0 0 0.5281,0.5118 l 4.9994,-0.0786 a 0.52,0.52 0 0 0 0.5118,-0.5281 l -0.0113,-0.7199"
       id="path3446" />
    <path
       stroke="#f9bd8f"
       vector-effect="non-scaling-stroke"
       d="m 99.95,125.66 0.83,1.27 q 0.54,0.84 0.53,-0.16 c -0.03,-3.23 2.99,-4.37 2.67,-6.59 q -0.1,-0.66 -0.59,-0.21 -2.71,2.39 -4.05,4.59 -0.36,0.58 0.24,0.8 0.23,0.09 0.37,0.3"
       id="path3448" />
    <path
       stroke="#f9bd8f"
       vector-effect="non-scaling-stroke"
       d="m 96.63,131.29 c -2.7,1.19 -2.17,5.64 -1.48,7.99 q 0.07,0.24 0.16,0.01 1.08,-2.77 1.22,-5.73 a 1.31,1.29 -21 0 1 0.38,-0.84 l 0.41,-0.42 a 0.62,0.62 0 0 0 -0.69,-1.01"
       id="path3450" />
    <path
       stroke="#f9bd8f"
       vector-effect="non-scaling-stroke"
       d="m 94.3793,151.0879 a 3.9,1.07 88.1 0 0 0.9401,-3.9334 3.9,1.07 88.1 0 0 -1.1987,-3.8624 3.9,1.07 88.1 0 0 -0.9401,3.9334 3.9,1.07 88.1 0 0 1.1987,3.8624"
       id="path3452" />
    <path
       stroke="#f9bd8f"
       vector-effect="non-scaling-stroke"
       d="m 97.5967,163.2777 a 3.64,1.08 72.3 0 0 -0.0778,-3.7961 3.64,1.08 72.3 0 0 -2.1356,-3.1393 3.64,1.08 72.3 0 0 0.0778,3.7961 3.64,1.08 72.3 0 0 2.1356,3.1393"
       id="path3454" />
    <path
       stroke="#f9bd8f"
       vector-effect="non-scaling-stroke"
       d="m 103.38,174.02 a 0.31,0.31 0 0 0 0.52,0.02 l 1.08,-1.51 a 0.31,0.31 0 0 0 -0.01,-0.37 l -3.47,-4.3 a 0.31,0.31 0 0 0 -0.46,-0.03 l -0.56,0.56 a 0.31,0.31 0 0 0 -0.05,0.37 l 2.95,5.26"
       id="path3456" />
    <path
       stroke="#f3b382"
       vector-effect="non-scaling-stroke"
       d="m 114.5688,181.7977 a 3.36,1 40.4 0 0 -1.9107,-2.9392 3.36,1 40.4 0 0 -3.2069,-1.4162 3.36,1 40.4 0 0 1.9107,2.9392 3.36,1 40.4 0 0 3.2069,1.4162"
       id="path3458" />
    <path
       stroke="#f9bd8f"
       vector-effect="non-scaling-stroke"
       d="m 125.8232,187.7846 a 3.25,0.98 30.4 0 0 -2.3073,-2.4899 3.25,0.98 30.4 0 0 -3.2991,-0.7993 3.25,0.98 30.4 0 0 2.3073,2.4899 3.25,0.98 30.4 0 0 3.2991,0.7993"
       id="path3460" />
    <path
       stroke="#99bee5"
       vector-effect="non-scaling-stroke"
       d="m 332.71,165.75 h -24.96 a 3.47,3.47 0 0 0 -3.47,3.47 v 28.67 a 4.66,3.78 0 0 0 4.66,3.78 h 22.58 a 4.66,3.78 0 0 0 4.66,-3.78 v -28.67 a 3.47,3.47 0 0 0 -3.47,-3.47"
       id="path3462" />
    <path
       stroke="#99bee5"
       vector-effect="non-scaling-stroke"
       d="m 336.01,217.26 a 1.5,1.5 0 0 0 -1.5,-1.5 H 153.77 a 1.5,1.5 0 0 0 -1.5,1.5 v 8.98 a 1.5,1.5 0 0 0 1.5,1.5 h 180.74 a 1.5,1.5 0 0 0 1.5,-1.5 v -8.98"
       id="path3464" />
    <path
       stroke="#99bee5"
       vector-effect="non-scaling-stroke"
       d="m 336.13,236.55 a 1.01,1.01 0 0 0 -1.01,-1.01 H 153.3 a 1.01,1.01 0 0 0 -1.01,1.01 v 9.2 a 1.01,1.01 0 0 0 1.01,1.01 h 181.82 a 1.01,1.01 0 0 0 1.01,-1.01 v -9.2"
       id="path3466" />
  </g>
  <path
     fill="#f8f6ff"
     d="M 170.34409,48.172056 147.89697,30.02315 q -0.17101,-0.13602 -0.24095,0.06996 l -1.87319,5.460217 -2.02086,5.289221 q -0.0777,0.205972 -0.21375,0.376968 -0.36143,0.446922 -0.46635,1.041522 a 0.52853344,0.52464716 77.1 0 1 -0.21763,0.349766 c -1.22029,0.878297 -2.89917,1.593372 -3.8513,2.110246 q -4.99776,2.720393 -10.08489,5.157088 a 0.10881571,0.10881571 0 0 0 0.0311,0.205973 l 13.31824,1.674979 q 0.14379,0.01555 0.14767,0.182656 l 0.0505,2.60769 q 0,0.13602 0.13602,0.147678 l 0.53243,0.05052 q 14.67457,0.15545 29.06156,1.088157 l 3.63367,0.283697 c -0.99489,0.314789 -1.6439,0.07773 -2.59215,0.217632 q -0.19431,0.03109 -0.004,0.07773 0.0777,0.01943 0.15545,0.03497 0.15934,0.03886 0.0428,0.151564 -0.0388,0.03497 -0.0739,0.07384 a 0.06606668,0.06606668 0 0 0 0,0.09327 l 0.15934,0.163224 q 0.12435,0.120474 0.0428,0.272039 -0.4236,0.7928 -0.27204,1.340765 c 1.31746,4.702393 1.19309,10.034363 1.22806,14.888321 0.0544,7.733687 -1.29024,14.989364 -4.0184,22.213949 -4.26324,11.285748 -10.62119,22.330538 -19.0855,31.020248 -2.48333,2.54551 -5.63898,5.01718 -8.54592,7.40336 q -0.6218,0.51299 -1.35631,0.8472 -0.17099,0.0816 -0.28369,0.23318 -0.28371,0.38474 -0.78892,0.37308 -0.1671,-0.004 -0.2837,0.11659 l -0.34977,0.36143 q -0.30701,-4.48865 -0.0467,-8.93844 l -0.0733,-22.7658 q 0,-0.17488 -0.0544,-0.34199 l -0.13991,-0.43138 -8.08733,-6.711592 c -0.0544,-0.326447 -0.22153,-0.676212 -0.21763,-1.002659 q 0.0349,-10.873798 -0.0195,-21.755369 c -0.0117,-2.638781 0.31867,-4.609122 -2.88362,-4.589691 q -8.16118,0.03886 -29.667834,-0.06218 c -3.2994,-2.728169 -6.466714,-5.56515 -9.777821,-8.044593 -1.060953,-0.796687 -1.954797,-0.579055 -2.930252,0.217631 q -4.504192,3.684189 -8.953978,7.457762 -0.275925,0.233177 -1.340765,0.376969 -13.928411,0.07773 -27.876252,0.112702 c -1.636122,0.0039 -3.61035,-0.202086 -3.796892,2.067498 -0.190427,2.351197 0.0039,5.308653 0.01555,6.991409 q 0.04664,9.121088 -0.09327,18.110044 -4.138883,3.412149 -7.959092,6.692169 -0.649008,0.55962 -0.287584,0.71507 -0.186541,0.88607 -0.194314,1.97812 -0.08551,14.694 -0.128255,29.34137 l -0.04275,3.2567 q -0.528533,-0.48967 -1.422377,-0.80057 -0.928819,-0.31868 -1.441808,-0.67233 C 14.935822,125.24466 -0.02245208,106.25632 0.39726572,84.337733 0.62655592,72.406868 7.7656435,61.307666 17.236497,54.611614 25.522035,48.754997 36.454128,46.963425 46.329154,46.947879 q 5.992636,-0.0078 11.993045,-0.01166 c 0.921047,0 1.869299,-0.357538 2.747597,-0.34588 6.816526,0.101046 13.3649,-0.590713 19.575168,-2.572713 8.448763,-2.693189 15.716092,-8.235017 22.653106,-13.559215 4.33708,-3.330538 9.45919,-7.030272 14.18879,-9.078339 q 8.49928,-3.680303 18.38207,-2.833095 c 12.89856,1.103702 26.84251,10.586214 31.8558,22.87073 q 0.95992,2.351197 1.89262,4.710165 0.07,0.178769 0.21764,0.307016 0.78891,0.687871 0.5091,1.737166 z M 119.86125,35.57213 a 1.3485375,0.31867457 0.8 0 0 -1.34398,-0.337446 1.3485375,0.31867457 0.8 0 0 -1.35285,0.299827 1.3485375,0.31867457 0.8 0 0 1.34398,0.337445 1.3485375,0.31867457 0.8 0 0 1.35285,-0.299826 z m 5.03164,0.465381 a 1.3912865,0.37308242 7.8 0 0 -1.32778,-0.558458 1.3912865,0.37308242 7.8 0 0 -1.42907,0.18079 1.3912865,0.37308242 7.8 0 0 1.3278,0.558457 1.3912865,0.37308242 7.8 0 0 1.42905,-0.180789 z m -10.21266,-0.385053 a 0.27981182,0.27981182 0 0 0 -0.31141,-0.244173 l -1.85963,0.225053 a 0.27981182,0.27981182 0 0 0 -0.24417,0.311408 l 0.015,0.123467 a 0.27981182,0.27981182 0 0 0 0.31141,0.244175 l 1.85962,-0.225055 a 0.27981182,0.27981182 0 0 0 0.24418,-0.311407 z m -4.79466,0.806131 a 0.33421968,0.33421968 0 0 0 -0.39461,-0.260186 l -1.92626,0.39539 a 0.33421968,0.33421968 0 0 0 -0.26019,0.394612 l 0.008,0.03804 a 0.33421968,0.33421968 0 0 0 0.39461,0.260186 l 1.92627,-0.395389 a 0.33421968,0.33421968 0 0 0 0.26019,-0.394613 z m 19.76801,0.802555 a 0.36919615,0.36919615 0 0 0 -0.25152,-0.457532 l -1.83614,-0.53343 a 0.36919615,0.36919615 0 0 0 -0.45754,0.25152 l -0.0173,0.05973 a 0.36919615,0.36919615 0 0 0 0.25152,0.457531 l 1.83615,0.53343 a 0.36919615,0.36919615 0 0 0 0.45753,-0.25152 z m -27.10946,1.385651 0.29148,0.567396 a 0.09715688,0.09715688 0 0 0 0.13213,0.04275 l 1.02598,-0.532424 a 0.28758436,1.5583964 62.7 0 0 1.25527,-0.971569 l -0.11659,-0.225404 a 0.28758436,1.5583964 62.7 0 0 -1.51953,0.458581 l -1.02987,0.528533 a 0.09715688,0.09715688 0 0 0 -0.0388,0.132133 z m 29.16651,-0.283698 2.40948,1.029863 a 0.08938433,0.08938433 0 0 0 0.11659,-0.04664 l 0.0156,-0.03886 a 1.1425649,0.77725505 23.2 0 0 -0.74228,-1.165882 l -0.47413,-0.202087 a 1.1425649,0.77725505 23.2 0 0 -1.35631,0.264267 l -0.0156,0.04275 a 0.08938433,0.08938433 0 0 0 0.0467,0.116588 z m 7.37226,1.985886 -2.56883,-1.02209 a 0.03886276,0.03886276 0 0 0 -0.0505,0.02332 l -0.004,0.0039 a 1.2125179,0.91327468 21.7 0 0 0.78891,1.29413 l 0.39252,0.155451 a 1.2125179,0.91327468 21.7 0 0 1.46123,-0.400286 l 0.004,-0.0039 a 0.03886276,0.03886276 0 0 0 -0.0233,-0.05052 z m -38.80446,-0.353651 -1.725514,1.414605 a 0.17099611,0.17099611 0 0 0 -0.0233,0.240949 l 0.0583,0.07384 a 0.70341582,1.2358355 50.7 0 0 1.40294,-0.237062 l 0.0777,-0.06607 a 0.70341582,1.2358355 50.7 0 0 0.51299,-1.32522 l -0.0622,-0.07384 a 0.17099611,0.17099611 0 0 0 -0.24095,-0.0272 z m -3.614244,3.206178 -1.84598,1.966455 a 0.06606668,0.06606668 0 0 0 0.004,0.09327 l 0.0233,0.02332 a 0.92104724,1.002659 43.2 0 0 1.35631,-0.101047 l 0.56348,-0.602366 a 0.92104724,1.002659 43.2 0 0 0.0156,-1.360197 l -0.0233,-0.01943 a 0.06606668,0.06606668 0 0 0 -0.0933,0 z m -4.574142,6.089793 1.674982,-1.873184 a 0.0777255,0.0777255 0 0 0 -0.008,-0.108816 l -0.0117,-0.01166 a 0.86275311,0.89384331 41.8 0 0 -1.235833,0.09327 l -0.586828,0.652895 a 0.86275311,0.89384331 41.8 0 0 0.04664,1.243607 l 0.01165,0.0077 a 0.0777255,0.0777255 0 0 0 0.108816,-0.0039 z m -2.428921,0.886071 -1.88873,1.904275 a 0.10881571,0.10881571 0 0 0 0,0.151565 l 0.08938,0.08938 a 0.6606668,1.1386787 44.8 0 0 1.270812,-0.341993 l 0.439153,-0.443032 a 0.6606668,1.1386787 44.8 0 0 0.33422,-1.270812 l -0.08939,-0.08938 a 0.10881571,0.10881571 0 0 0 -0.155451,0 z m -6.027613,4.317651 0.279812,0.485785 a 0.17488239,0.17488239 0 0 0 0.240948,0.06218 l 0.547966,-0.318676 a 0.42749028,1.849867 59.9 0 0 1.383513,-1.294129 l -0.0272,-0.05052 a 0.42749028,1.849867 59.9 0 0 -1.81489,0.559624 l -0.547964,0.318679 a 0.17488239,0.17488239 0 0 0 -0.06218,0.237062 z M 51.68378,55.320897 A 0.3614236,0.3614236 0 0 0 51.349833,54.93398 l -1.658895,-0.121834 a 0.3614236,0.3614236 0 0 0 -0.386919,0.333986 l -0.0051,0.06976 a 0.3614236,0.3614236 0 0 0 0.333947,0.386918 l 1.658895,0.121834 a 0.3614236,0.3614236 0 0 0 0.386918,-0.333986 z m -4.908831,-0.07955 a 0.26038044,0.26038044 0 0 0 -0.264423,-0.256266 l -1.935132,0.03039 a 0.26038044,0.26038044 0 0 0 -0.256261,0.264461 l 0.002,0.124322 a 0.26038044,0.26038044 0 0 0 0.264422,0.256261 l 1.935117,-0.03039 a 0.26038044,0.26038044 0 0 0 0.256261,-0.264461 z m 9.913693,0.419255 A 0.27203927,0.27203927 0 0 0 56.460868,55.35055 L 54.69374,55.080143 a 0.27203927,0.27203927 0 0 0 -0.310048,0.227736 l -0.05527,0.361112 a 0.27203927,0.27203927 0 0 0 0.227775,0.310048 l 1.767128,0.270407 a 0.27203927,0.27203927 0 0 0 0.310047,-0.227736 z m 24.5004,-0.609835 q -0.847207,0.835551 -2.005318,0.594601 -0.190427,-0.03886 -0.233176,0.151565 l -0.04664,0.1982 q -0.06606,0.303129 0.240953,0.318675 c 0.932706,0.04664 2.281243,-0.04275 2.28513,-1.161996 a 0.13990591,0.13990591 0 0 0 -0.24095,-0.101047 z m -39.430304,0.619862 a 0.27592555,0.27592555 0 0 0 -0.329089,-0.209664 l -1.730132,0.383536 a 0.27592555,0.27592555 0 0 0 -0.209664,0.329128 l 0.01516,0.06828 a 0.27592555,0.27592555 0 0 0 0.329091,0.209665 l 1.73013,-0.383536 a 0.27592555,0.27592555 0 0 0 0.209665,-0.32913 z m 19.905658,0.6937 -2.238495,-0.598487 a 0.06995295,0.06995295 0 0 0 -0.0855,0.04664 l -0.0272,0.09328 a 1.0259767,0.66455307 15 0 0 0.820003,0.909379 l 0.392515,0.104931 a 1.0259767,0.66455307 15 0 0 1.161996,-0.37697 l 0.02332,-0.09327 a 0.06995295,0.06995295 0 0 0 -0.04664,-0.0855 z m 12.443853,0.590713 0.124361,0.579056 a 0.16710984,0.16710984 0 0 0 0.1982,0.128246 l 0.353651,-0.07773 a 0.41971773,1.849867 77.8 0 0 1.717733,-0.800572 l -0.01555,-0.08161 a 0.41971773,1.849867 77.8 0 0 -1.896502,-0.01943 l -0.353651,0.07384 a 0.16710984,0.16710984 0 0 0 -0.128248,0.198199 z m -7.496741,0.370673 A 0.32256085,0.32256085 0 0 0 66.34145,56.958069 l -1.805524,-0.276314 a 0.32256085,0.32256085 0 0 0 -0.367642,0.270096 l -0.02822,0.184364 a 0.32256085,0.32256085 0 0 0 0.270058,0.367643 l 1.805525,0.276314 a 0.32256085,0.32256085 0 0 0 0.367641,-0.270096 z M 35.04341,58.509553 q 0.466353,0.08161 0.602373,-0.30313 0.06996,-0.198199 0.268152,-0.268152 l 1.037636,-0.369197 a 0.15933728,0.16322356 77.4 0 0 0.104931,-0.159337 q 0,-0.05829 0,-0.108815 0.0077,-0.268154 -0.256493,-0.213746 -1.138678,0.237063 -1.861526,1.134792 a 0.17876866,0.17876866 0 0 0 0.104931,0.287585 z m 36.439271,-1.242598 a 0.20208632,0.20208632 0 0 0 -0.205234,-0.198899 l -1.942904,0.03055 a 0.20208632,0.20208632 0 0 0 -0.1989,0.205234 l 0.0044,0.279773 a 0.20208632,0.20208632 0 0 0 0.205274,0.198901 l 1.942904,-0.03054 a 0.20208632,0.20208632 0 0 0 0.1989,-0.205235 z m -39.983553,4.666406 0.32256,0.493558 q 0.209859,0.326447 0.205973,-0.06218 c -0.01166,-1.255269 1.161996,-1.698305 1.037635,-2.561058 q -0.03886,-0.256495 -0.22929,-0.08161 -1.053181,0.92882 -1.573942,1.7838 -0.139906,0.225404 0.09328,0.310903 0.08938,0.03497 0.143792,0.116587 z m -1.290245,2.187974 c -1.049293,0.462466 -0.843321,2.191858 -0.575168,3.105133 q 0.0272,0.09327 0.06218,0.0039 0.419721,-1.076529 0.474129,-2.226867 a 0.50132951,0.50910206 69 0 1 0.147678,-0.326447 L 30.47704,64.51383 A 0.24094906,0.24094906 0 0 0 30.208886,64.121317 Z M 29.3342,71.815343 a 1.5156473,0.41583146 88.1 0 0 0.365349,-1.528627 1.5156473,0.41583146 88.1 0 0 -0.465848,-1.501035 1.5156473,0.41583146 88.1 0 0 -0.365349,1.528628 1.5156473,0.41583146 88.1 0 0 0.465848,1.501034 z m 1.25037,4.737292 a 1.4146042,0.41971773 72.3 0 0 -0.03024,-1.475269 1.4146042,0.41971773 72.3 0 0 -0.829954,-1.220018 1.4146042,0.41971773 72.3 0 0 0.03024,1.475269 1.4146042,0.41971773 72.3 0 0 0.829954,1.220018 z m 2.24755,4.174754 a 0.12047454,0.12047454 0 0 0 0.202086,0.0077 l 0.419717,-0.586828 a 0.12047454,0.12047454 0 0 0 -0.0039,-0.143793 l -1.348506,-1.671051 a 0.12047454,0.12047454 0 0 0 -0.178769,-0.01165 l -0.217632,0.217631 a 0.12047454,0.12047454 0 0 0 -0.01943,0.143793 z m 4.348276,3.022628 a 1.3057885,0.38862753 40.4 0 0 -0.742551,-1.142254 1.3057885,0.38862753 40.4 0 0 -1.24629,-0.550374 1.3057885,0.38862753 40.4 0 0 0.74255,1.142253 1.3057885,0.38862753 40.4 0 0 1.246291,0.550375 z m 4.373769,2.326675 a 1.2630395,0.38085498 30.4 0 0 -0.896681,-0.967644 1.2630395,0.38085498 30.4 0 0 -1.282121,-0.310631 1.2630395,0.38085498 30.4 0 0 0.896681,0.967644 1.2630395,0.38085498 30.4 0 0 1.282121,0.310631 z"
     id="path3472"
     style="stroke-width:0.388628" />
  <path
     fill="#ee7005"
     d="m 170.34409,48.172056 c 2.90304,2.312334 5.7478,4.733483 8.68971,6.979751 q 0.83555,0.637348 0.46246,0.901615 -2.0947,-0.512989 -3.99897,-0.24095 l -0.75394,-0.06606 q -0.15545,-0.01555 -0.0156,-0.08938 l 0.18654,-0.101046 q 0.16711,-0.08938 0.19043,-0.275925 0.0233,-0.163224 0.1127,-0.310903 l 0.71507,0.0077 a 0.36919615,0.36919615 0 0 0 0.0972,-0.722846 q -1.9548,-0.520762 -4.08059,-1.286358 -13.34159,-4.818982 -26.6754,-9.649621 -0.78503,-0.283699 -1.34076,-0.590715 a 0.48578441,0.48578441 0 0 1 -0.16322,-0.703415 q 1.07649,-1.550624 1.51565,-2.926366 c 0.34587,-1.076498 1.07649,-2.191859 0.49744,-3.544283 l 1.87318,-5.460216 q 0.07,-0.205973 0.24096,-0.06996 z"
     id="path3474"
     style="stroke-width:0.388628" />
  <ellipse
     fill="#ee7005"
     cx="118.9977"
     cy="33.895157"
     transform="rotate(0.8)"
     rx="1.3485376"
     ry="0.31867456"
     id="ellipse3476"
     style="stroke-width:0.388628" />
  <ellipse
     fill="#f9831f"
     cx="127.23692"
     cy="18.754162"
     transform="rotate(7.8)"
     rx="1.3912865"
     ry="0.3730824"
     id="ellipse3478"
     style="stroke-width:0.388628" />
  <rect
     fill="#f9831f"
     x="107.13364"
     y="48.891758"
     transform="rotate(-6.9)"
     width="2.4328084"
     height="0.68398446"
     rx="0.27981183"
     id="rect3480"
     style="stroke-width:0.388628" />
  <path
     fill="#f9831f"
     d="m 145.78283,35.55332 c 0.57905,1.352423 -0.15157,2.467784 -0.49744,3.544283 q -0.43916,1.375742 -1.51565,2.926365 a 0.48578441,0.48578441 0 0 0 0.16322,0.703416 q 0.55574,0.307016 1.34076,0.590714 13.33381,4.83064 26.6754,9.649622 2.12579,0.765595 4.08059,1.286357 a 0.36919615,0.36919615 0 0 1 -0.0972,0.722846 l -0.71507,-0.0077 c -0.67622,0.04664 -1.26305,0.108816 -1.94703,0.05441 q -14.99325,-1.259152 -29.93209,-3.155655 -0.19431,-0.0272 -0.25261,0.159338 -0.50133,1.542851 0.0583,2.720392 l -0.53242,-0.05052 q -0.13602,-0.01165 -0.13602,-0.147678 l -0.0505,-2.60769 q -0.004,-0.167156 -0.14773,-0.182702 l -13.3182,-1.675015 a 0.10881571,0.10881571 0 0 1 -0.0311,-0.205972 q 5.08713,-2.436695 10.08489,-5.157088 c 0.95213,-0.516875 2.63101,-1.231949 3.8513,-2.110247 a 0.52853344,0.52464716 77.1 0 0 0.21763,-0.349765 q 0.1049,-0.594601 0.46635,-1.041522 0.13602,-0.170996 0.21375,-0.376968 z"
     id="path3482"
     style="stroke-width:0.388628" />
  <rect
     fill="#f9831f"
     x="97.675278"
     y="57.475262"
     transform="rotate(-11.6)"
     width="2.6348948"
     height="0.70730215"
     rx="0.33421966"
     id="rect3484"
     style="stroke-width:0.388628" />
  <rect
     fill="#f9831f"
     x="132.25061"
     y="-0.75973797"
     transform="rotate(16.2)"
     width="2.6504397"
     height="0.80057269"
     rx="0.36919615"
     id="rect3486"
     style="stroke-width:0.388628" />
  <path
     fill="#f9831f"
     d="m 102.54412,38.646795 a 0.09715688,0.09715688 0 0 1 0.0389,-0.132133 l 1.02987,-0.528533 a 0.28758436,1.5583964 62.7 0 1 1.51955,-0.458581 l 0.11659,0.225404 a 0.28758436,1.5583964 62.7 0 1 -1.25527,0.971569 l -1.02598,0.53242 a 0.09715688,0.09715688 0 0 1 -0.13213,-0.04275 z"
     id="path3488"
     style="stroke-width:0.388628" />
  <path
     fill="#f9831f"
     d="m 131.71063,38.363097 a 0.08938433,0.08938433 0 0 1 -0.0467,-0.116589 l 0.0156,-0.04275 a 1.1425649,0.77725505 23.2 0 1 1.35631,-0.264268 l 0.47413,0.202087 a 1.1425649,0.77725505 23.2 0 1 0.74228,1.165882 l -0.0156,0.03886 a 0.08938433,0.08938433 0 0 1 -0.11659,0.04664 z"
     id="path3490"
     style="stroke-width:0.388628" />
  <path
     fill="#f9831f"
     d="m 139.08289,40.348983 a 0.03886276,0.03886276 0 0 1 0.0233,0.05052 l -0.004,0.0039 a 1.2125179,0.91327468 21.7 0 1 -1.46123,0.400286 l -0.39252,-0.155451 a 1.2125179,0.91327468 21.7 0 1 -0.78892,-1.29413 l 0.004,-0.0039 a 0.03886276,0.03886276 0 0 1 0.0505,-0.02332 z"
     id="path3492"
     style="stroke-width:0.388628" />
  <path
     fill="#f9831f"
     d="m 100.27843,39.995332 a 0.17099611,0.17099611 0 0 1 0.24095,0.0272 l 0.0622,0.07384 a 0.70341582,1.2358355 50.7 0 1 -0.51299,1.325219 l -0.0777,0.06607 a 0.70341582,1.2358355 50.7 0 1 -1.40294,0.237054 l -0.0583,-0.07384 a 0.17099611,0.17099611 0 0 1 0.0233,-0.24095 z"
     id="path3494"
     style="stroke-width:0.388628" />
  <path
     fill="#f9831f"
     d="m 96.664186,43.20151 a 0.06606668,0.06606668 0 0 1 0.0933,0 l 0.0233,0.01943 a 0.92104724,1.002659 43.2 0 1 -0.0155,1.360197 l -0.56351,0.602372 a 0.92104724,1.002659 43.2 0 1 -1.35631,0.101046 l -0.0233,-0.02332 a 0.06606668,0.06606668 0 0 1 -0.004,-0.09327 z"
     id="path3496"
     style="stroke-width:0.388628" />
  <path
     fill="#f9831f"
     d="m 92.090044,49.291303 a 0.0777255,0.0777255 0 0 1 -0.108815,0.0039 l -0.01166,-0.0077 a 0.86275311,0.89384331 41.8 0 1 -0.04664,-1.243685 l 0.586828,-0.652894 a 0.86275311,0.89384331 41.8 0 1 1.235829,-0.09327 l 0.0117,0.01165 a 0.0777255,0.0777255 0 0 1 0.008,0.108816 z"
     id="path3498"
     style="stroke-width:0.388628" />
  <path
     fill="#f9831f"
     d="m 89.661123,50.177374 a 0.10881571,0.10881571 0 0 1 0.155451,0 l 0.08938,0.08938 a 0.6606668,1.1386787 44.8 0 1 -0.334216,1.270815 l -0.43915,0.443036 a 0.6606668,1.1386787 44.8 0 1 -1.270812,0.341992 l -0.08938,-0.08938 a 0.10881571,0.10881571 0 0 1 0,-0.151565 z"
     id="path3500"
     style="stroke-width:0.388628" />
  <path
     fill="#ae5307"
     d="m 175.21748,54.969151 q -0.0893,0.147679 -0.1127,0.310902 -0.0233,0.186541 -0.19043,0.275926 l -0.18654,0.101046 q -0.13991,0.07384 0.0156,0.08938 l 0.75394,0.06606 -3.29168,0.02332 q -14.38699,-0.932706 -29.06156,-1.088157 -0.55963,-1.177541 -0.0583,-2.720392 0.0583,-0.186542 0.25261,-0.159338 14.93884,1.896503 29.93209,3.155655 c 0.68398,0.05441 1.27081,-0.0077 1.94703,-0.05441 z"
     id="path3502"
     style="stroke-width:0.388628" />
  <path
     fill="#f9831f"
     d="m 83.63351,54.495025 a 0.17488239,0.17488239 0 0 1 0.06218,-0.237062 l 0.547964,-0.318675 a 0.42749028,1.849867 59.9 0 1 1.81489,-0.559624 l 0.0272,0.05052 a 0.42749028,1.849867 59.9 0 1 -1.383513,1.294128 l -0.547966,0.318676 a 0.17488239,0.17488239 0 0 1 -0.240948,-0.06218 z"
     id="path3504"
     style="stroke-width:0.388628" />
  <rect
     fill="#f9831f"
     x="53.210434"
     y="51.025677"
     transform="rotate(4.2)"
     width="2.3861728"
     height="0.79280013"
     rx="0.36142361"
     id="rect3506"
     style="stroke-width:0.388628" />
  <rect
     fill="#ee7005"
     x="43.445358"
     y="55.708855"
     transform="rotate(-0.9)"
     width="2.4561262"
     height="0.64512169"
     rx="0.26038045"
     id="rect3508"
     style="stroke-width:0.388628" />
  <rect
     fill="#f9831f"
     x="62.123863"
     y="46.173347"
     transform="rotate(8.7)"
     width="2.3317652"
     height="0.90938842"
     rx="0.27203926"
     id="rect3510"
     style="stroke-width:0.388628" />
  <path
     fill="#f9831f"
     d="m 81.189042,55.050762 a 0.13990591,0.13990591 0 0 1 0.24095,0.101047 c -0.0039,1.119247 -1.352424,1.208631 -2.28513,1.161996 q -0.307016,-0.01555 -0.24095,-0.318677 l 0.04664,-0.1982 q 0.04275,-0.190427 0.233177,-0.151565 1.15811,0.24095 2.005318,-0.594601 z"
     id="path3512"
     style="stroke-width:0.388628" />
  <rect
     fill="#ee7005"
     x="26.395586"
     y="63.113319"
     transform="rotate(-12.5)"
     width="2.3239927"
     height="0.62180406"
     rx="0.27592555"
     id="rect3514"
     style="stroke-width:0.388628" />
  <path
     fill="#f9831f"
     d="m 61.664396,56.364324 a 0.06995295,0.06995295 0 0 1 0.04664,0.0855 l -0.02332,0.09327 A 1.0259767,0.66455307 15 0 1 60.52572,56.920063 L 60.133204,56.81514 A 1.0259767,0.66455307 15 0 1 59.3132,55.905752 l 0.0272,-0.09328 a 0.06995295,0.06995295 0 0 1 0.0855,-0.04664 z"
     id="path3516"
     style="stroke-width:0.388628" />
  <path
     fill="#f9831f"
     d="m 175.49729,55.812472 q 1.90427,-0.272039 3.99897,0.24095 l -3.65698,0.06606 -3.63367,-0.283698 z"
     id="path3518"
     style="stroke-width:0.388628" />
  <path
     fill="#f9831f"
     d="m 74.108249,56.955037 a 0.16710984,0.16710984 0 0 1 0.128248,-0.198199 l 0.353651,-0.07384 a 0.41971773,1.849867 77.8 0 1 1.896502,0.01943 l 0.01555,0.08161 a 0.41971773,1.849867 77.8 0 1 -1.717739,0.800573 l -0.353651,0.07773 a 0.16710984,0.16710984 0 0 1 -0.1982,-0.128247 z"
     id="path3520"
     style="stroke-width:0.388628" />
  <rect
     fill="#f9831f"
     x="72.044533"
     y="46.26783"
     transform="rotate(8.7)"
     width="2.4716711"
     height="0.83166295"
     rx="0.32256085"
     id="rect3522"
     style="stroke-width:0.388628" />
  <path
     fill="#ee7005"
     d="m 35.04341,58.509548 a 0.17876866,0.17876866 0 0 1 -0.104931,-0.287585 q 0.722847,-0.897729 1.861525,-1.134792 0.264267,-0.05441 0.256494,0.213746 0,0.05052 0,0.108815 a 0.15933728,0.16322356 77.4 0 1 -0.104931,0.159337 l -1.037636,0.369197 q -0.198199,0.06996 -0.268152,0.268152 -0.13602,0.384742 -0.602374,0.30313 z"
     id="path3524"
     style="stroke-width:0.388628" />
  <rect
     fill="#f9831f"
     x="68.227036"
     y="58.180607"
     transform="rotate(-0.9)"
     width="2.3473103"
     height="0.68398446"
     rx="0.2020863"
     id="rect3526"
     style="stroke-width:0.388628" />
  <path
     fill="#f9831f"
     d="m 31.355335,61.816769 q -0.233177,-0.0855 -0.09327,-0.310903 0.520761,-0.85498 1.573942,-1.7838 0.190427,-0.174883 0.22929,0.08161 c 0.124361,0.862753 -1.049294,1.305789 -1.037635,2.561055 q 0.0039,0.388628 -0.205973,0.06218 l -0.32256,-0.493557 q -0.05441,-0.08161 -0.143793,-0.116588 z"
     id="path3528"
     style="stroke-width:0.388628" />
  <path
     fill="#010a48"
     d="m 98.622876,69.402777 -23.002866,0.0078 q 1.06484,-0.143792 1.340765,-0.376969 4.449786,-3.773573 8.953978,-7.457762 c 0.975455,-0.796686 1.869299,-1.014318 2.930252,-0.217631 3.311107,2.479443 6.478421,5.316424 9.777871,8.044589 z"
     id="path3530"
     style="stroke-width:0.388628" />
  <path
     fill="#f9831f"
     d="m 30.208883,64.12133 a 0.24094906,0.24094906 0 0 1 0.268154,0.392513 l -0.159338,0.163224 a 0.50132951,0.50910206 69 0 0 -0.147678,0.326447 q -0.05441,1.150338 -0.474125,2.226836 -0.03497,0.08938 -0.06218,-0.0039 c -0.268153,-0.913275 -0.474125,-2.642667 0.575169,-3.105134 z"
     id="path3532"
     style="stroke-width:0.388628" />
  <ellipse
     fill="#f9831f"
     cx="71.232773"
     cy="-26.937023"
     transform="rotate(88.1)"
     rx="1.5156474"
     ry="0.41583148"
     id="ellipse3534"
     style="stroke-width:0.388628" />
  <path
     fill="#81afdc"
     d="m 98.622876,69.402777 q 21.506654,0.101043 29.667824,0.06218 c 3.2023,-0.01943 2.87196,1.95091 2.88362,4.589691 q 0.0544,10.881571 0.0195,21.755369 c -0.004,0.326447 0.16322,0.676212 0.21763,1.002659 q -0.20986,0.116588 -0.20986,0.22929 0,5.685624 0,11.363464 c 0.0544,0.39252 -0.0272,0.62181 -0.37697,0.83555 q -19.02336,11.6938 -37.933982,23.59747 -5.359174,0.35754 -10.869912,-0.1166 l -10.799959,-6.97586 c 1.255266,-0.29147 2.172428,-0.47023 3.540396,-0.26038 q 1.966455,0.30702 3.932911,-0.0388 a 0.49355696,0.49355696 0 0 0 0.408059,-0.48967 l -0.02332,-3.7658 a 0.20985886,0.20985886 0 0 0 -0.209877,-0.20992 l -15.354673,0.0894 -5.351401,-3.40437 c 1.985886,-0.9638 3.241153,-0.27204 5.063816,-0.29147 q 24.848845,-0.24484 49.697692,-0.0389 c 0.59849,0.004 1.34854,-0.22541 1.83043,-0.59849 q 2.57272,-1.99366 5.4097,-3.68418 a 0.19820004,0.19820004 0 0 0 -0.10109,-0.3692 q -32.772959,-0.004 -65.681938,0.004 c -0.835549,0 -2.549396,-0.0233 -2.677643,1.07649 l -7.854162,-4.88504 0.01943,-12.18736 q 0.139946,-8.988991 0.09331,-18.110079 c -0.01165,-1.682756 -0.205973,-4.640212 -0.01555,-6.991409 0.186542,-2.269584 2.16077,-2.063612 3.796891,-2.067498 q 13.947846,-0.03498 27.876257,-0.112702 z m 23.333194,8.110657 h -9.70014 a 1.3485375,1.3485375 0 0 0 -1.34853,1.348537 v 11.141952 a 1.8110043,1.469012 0 0 0 1.81099,1.469012 h 8.77522 a 1.8110043,1.469012 0 0 0 1.81101,-1.469012 V 78.861971 a 1.3485375,1.3485375 0 0 0 -1.34855,-1.348537 z m 1.28247,20.018204 a 0.58294129,0.58294129 0 0 0 -0.58293,-0.582941 H 52.41506 a 0.58294129,0.58294129 0 0 0 -0.582941,0.582941 v 3.489872 a 0.58294129,0.58294129 0 0 0 0.582941,0.58294 h 70.24055 a 0.58294129,0.58294129 0 0 0 0.58293,-0.58294 z m 0.0467,7.496622 a 0.39251381,0.39251381 0 0 0 -0.39252,-0.39251 H 52.232416 a 0.39251381,0.39251381 0 0 0 -0.392514,0.39251 v 3.57538 a 0.39251381,0.39251381 0 0 0 0.392514,0.39251 h 70.660254 a 0.39251381,0.39251381 0 0 0 0.39252,-0.39251 z"
     id="path3536"
     style="stroke-width:0.388628" />
  <ellipse
     fill="#f9831f"
     cx="80.812851"
     cy="-5.862206"
     transform="rotate(72.3)"
     rx="1.4146043"
     ry="0.41971773"
     id="ellipse3538"
     style="stroke-width:0.388628" />
  <path
     fill="#b0cded"
     d="m 121.95607,77.513434 a 1.3485375,1.3485375 0 0 1 1.34855,1.348537 v 11.141952 a 1.8110043,1.469012 0 0 1 -1.81101,1.469012 h -8.77522 A 1.8110043,1.469012 0 0 1 110.9074,90.003923 V 78.861971 a 1.3485375,1.3485375 0 0 1 1.34853,-1.348537 z"
     id="path3540"
     style="stroke-width:0.388628" />
  <path
     fill="#f9831f"
     d="m 32.83212,80.727384 -1.146452,-2.044181 a 0.12047454,0.12047454 0 0 1 0.01944,-0.143792 l 0.217631,-0.217631 a 0.12047454,0.12047454 0 0 1 0.178766,0.01166 l 1.348538,1.671098 a 0.12047454,0.12047454 0 0 1 0.0039,0.143792 l -0.419717,0.586828 a 0.12047454,0.12047454 0 0 1 -0.202118,-0.0078 z"
     id="path3542"
     style="stroke-width:0.388628" />
  <ellipse
     fill="#ee7005"
     cx="81.288536"
     cy="39.681488"
     transform="rotate(40.4)"
     rx="1.3057884"
     ry="0.38862753"
     id="ellipse3544"
     style="stroke-width:0.388628" />
  <ellipse
     fill="#f9831f"
     cx="78.135704"
     cy="53.214516"
     transform="rotate(30.4)"
     rx="1.2630395"
     ry="0.38085496"
     id="ellipse3546"
     style="stroke-width:0.388628" />
  <path
     fill="#010a48"
     d="m 43.869142,96.692203 -0.01944,12.187357 c -2.712613,-1.62446 -5.343621,-3.52485 -8.227237,-4.78012 q -0.361424,-0.15545 0.287585,-0.71507 3.820208,-3.28002 7.959092,-6.692167 z"
     id="path3548"
     style="stroke-width:0.388628" />
  <path
     fill="#010a48"
     d="m 131.41139,96.812677 8.08733,6.711593 q -0.13213,0.39252 -0.3964,0.55186 -3.73859,2.26958 -7.46165,4.65575 a 0.20985886,0.20985886 0 0 1 -0.32256,-0.17877 q 0.004,-0.12824 -0.11659,-0.14767 0,-5.67785 0,-11.363473 0,-0.112702 0.20987,-0.22929 z"
     id="path3550"
     style="stroke-width:0.388628" />
  <rect
     fill="#b0cded"
     x="51.832123"
     y="96.9487"
     width="71.406425"
     height="4.6557574"
     rx="0.58294129"
     id="rect3552"
     style="stroke-width:0.388628" />
  <path
     fill="#3881ca"
     d="m 139.49872,103.52427 0.13991,0.43138 q 0.0544,0.16711 0.0544,0.34199 l 0.0739,22.7658 -0.21763,-0.28758 q -0.0739,-0.10109 -0.0855,0.0233 -0.3692,3.25669 -0.77338,6.50562 -0.0621,0.49355 -0.66454,0.87441 c -5.34752,3.36552 -10.2248,6.07036 -16.07752,8.42933 q -7.01473,2.82921 -14.20045,5.24648 a 0.49355696,0.48967068 58.5 0 1 -0.513,-0.12434 L 92.890618,132.83845 q 18.910622,-11.90367 37.933932,-23.59747 c 0.34977,-0.21374 0.43138,-0.44303 0.37697,-0.83554 q 0.12047,0.0194 0.11659,0.14767 a 0.20985886,0.20985886 0 0 0 0.32256,0.17877 q 3.72306,-2.38617 7.46165,-4.65575 0.26427,-0.15934 0.3964,-0.55186 z"
     id="path3554"
     style="stroke-width:0.388628" />
  <path
     fill="#3881ca"
     d="m 35.622465,104.09944 c 2.883616,1.25527 5.514624,3.15566 8.227245,4.78012 l 7.854163,4.88505 6.458989,3.90182 5.351401,3.40437 7.706484,4.67519 10.799959,6.97586 q -6.688281,7.20516 -13.462058,14.47638 -0.528534,0.5674 -1.181428,0.9366 -0.170996,0.0972 -0.365309,0.0467 C 55.749485,145.38727 47.03257,141.22896 35.299905,135.41897 q 0.04274,-14.64737 0.128247,-29.34137 0.0077,-1.09204 0.194313,-1.97811 z"
     id="path3556"
     style="stroke-width:0.388628" />
  <rect
     fill="#b0cded"
     x="51.83989"
     y="104.63575"
     width="71.445282"
     height="4.3604012"
     rx="0.39251381"
     id="rect3558"
     style="stroke-width:0.388628" />
  <path
     fill="#b0cded"
     d="m 58.162862,117.66643 -6.458989,-3.90182 c 0.128246,-1.09982 1.842094,-1.0765 2.677643,-1.0765 q 32.908979,-0.008 65.681934,-0.004 a 0.19820004,0.19820004 0 0 1 0.10109,0.3692 q -2.83697,1.69053 -5.40969,3.68419 c -0.48189,0.37308 -1.23195,0.60237 -1.83044,0.59848 q -24.848887,-0.20594 -49.697732,0.0389 c -1.822663,0.0194 -3.07793,-0.67233 -5.063816,0.29147 z"
     id="path3560"
     style="stroke-width:0.388628" />
  <path
     fill="#b0cded"
     d="m 71.220747,125.74599 -7.706484,-4.67519 15.354673,-0.0894 a 0.20985886,0.20985886 0 0 1 0.20986,0.20986 l 0.02332,3.7658 a 0.49355696,0.49355696 0 0 1 -0.408059,0.48967 q -1.966455,0.34588 -3.932911,0.0389 c -1.367968,-0.20985 -2.28513,-0.0311 -3.540396,0.26038 z"
     id="path3562"
     style="stroke-width:0.388628" />
  <path
     fill="#3176b9"
     d="m 139.76688,127.06344 q -0.26039,4.44979 0.0467,8.93844 -0.10098,0.17876 -0.25261,0.29535 c -9.7118,7.28288 -20.76825,11.58499 -32.361,14.84946 -14.196576,3.99898 -29.461865,2.72428 -43.732268,-0.43526 -9.739006,-2.16078 -19.349765,-6.50174 -27.919002,-11.56945 q -0.108815,-0.0661 -0.29147,-0.46635 l 0.04275,-3.2567 c 11.732666,5.80998 20.449581,9.9683 31.712006,12.76253 q 0.194314,0.0505 0.36531,-0.0467 0.652894,-0.3692 1.181427,-0.9366 6.773778,-7.27121 13.462058,-14.47637 5.510739,0.47413 10.869913,0.1166 l 14.344196,14.89224 a 0.49355696,0.48967068 58.5 0 0 0.51298,0.12437 q 7.18573,-2.41727 14.20045,-5.24648 c 5.85273,-2.35897 10.73001,-5.06381 16.07753,-8.42933 q 0.60237,-0.38085 0.66454,-0.87441 0.40418,-3.24893 0.77338,-6.50562 0.0116,-0.12437 0.0855,-0.0233 z"
     id="path3564"
     style="stroke-width:0.388628" />
  <path
     fill="#3176b9"
     d="m 35.770144,156.81676 c -0.536307,-0.37308 -0.373083,-0.61014 -0.369196,-1.18142 q 0.04275,-5.72449 -0.04275,-11.34404 a 0.16710984,0.16710984 0 0 1 0.264267,-0.13602 c 2.836981,2.07916 5.619554,4.02229 8.887911,5.43689 q 3.890161,1.68276 7.881367,3.1168 c 2.300674,0.82777 4.647985,2.74371 4.014522,5.44467 -1.130906,4.8151 -8.18061,4.07671 -11.592759,3.36552 -3.369401,-0.69953 -6.12477,-2.6621 -9.043362,-4.7024 z"
     id="path3566"
     style="stroke-width:0.388628" />
</svg>
