<?xml version="1.0" encoding="UTF-8" standalone="no"?>
<!-- Created with Inkscape (http://www.inkscape.org/) -->

<svg
   width="180"
   height="180"
   viewBox="0 0 180 180"
   version="1.1"
   id="svg5"
   xml:space="preserve"
   sodipodi:docname="css_logo.svg"
   inkscape:version="1.2.2 (732a01da63, 2022-12-09, custom)"
   xmlns:inkscape="http://www.inkscape.org/namespaces/inkscape"
   xmlns:sodipodi="http://sodipodi.sourceforge.net/DTD/sodipodi-0.dtd"
   xmlns="http://www.w3.org/2000/svg"
   xmlns:svg="http://www.w3.org/2000/svg"><sodipodi:namedview
     id="namedview7"
     pagecolor="#ffffff"
     bordercolor="#eeeeee"
     borderopacity="1"
     inkscape:showpageshadow="0"
     inkscape:pageopacity="0"
     inkscape:pagecheckerboard="false"
     inkscape:deskcolor="#505050"
     inkscape:document-units="px"
     showgrid="false"
     inkscape:zoom="1.4142136"
     inkscape:cx="38.537319"
     inkscape:cy="92.984541"
     inkscape:window-width="1366"
     inkscape:window-height="704"
     inkscape:window-x="0"
     inkscape:window-y="0"
     inkscape:window-maximized="1"
     inkscape:current-layer="layer1" /><defs
     id="defs2" /><g
     inkscape:label="Capa 1"
     inkscape:groupmode="layer"
     id="layer1"
     style="display:inline"><path
       style="display:inline;opacity:1;fill:#264de4;fill-opacity:1;stroke-width:1.00301"
       d="M 13,0 H 171.68733 L 157.15924,161.94557 92.33534,180 27.656256,161.91442 Z"
       id="path609" /><path
       style="display:inline;opacity:1;fill:#2965f1;fill-opacity:1;stroke-width:1.00301"
       d="M 92.448626,13.584145 H 157.15906 L 144.74648,151.68605 92.562076,166.19304 Z"
       id="path724" /><path
       style="display:inline;opacity:1;fill:#ffffff;fill-opacity:1;stroke-width:1.00301"
       d="m 48.941674,103.33074 h 19.900117 l 1.316552,15.7037 22.373009,5.91403 21.664018,-5.81591 2.57429,-25.771641 H 47.894206 l -1.710055,-19.94696 h 72.345239 l 1.74675,-20.274457 H 44.374013 L 42.653049,33.316142 H 142.06939 L 133.02341,134.34187 92.54475,145.73603 51.779895,134.33948 Z"
       id="path1940"
       sodipodi:nodetypes="ccccccccccccccccc" /><path
       style="opacity:1;fill:#ebebeb;fill-opacity:1;stroke-width:1.00301"
       d="m 92.464677,33.323271 0.02299,19.820516 -48.105023,0.0024 -1.722219,-19.827909 z"
       id="path2134"
       sodipodi:nodetypes="ccccc" /><path
       style="display:inline;opacity:1;fill:#ebebeb;fill-opacity:1;stroke-width:1.00301"
       d="m 92.499042,73.419413 -0.0011,19.941392 -44.602048,0.0038 -1.715147,-19.947521 z"
       id="path2134-6"
       sodipodi:nodetypes="ccccc" /><path
       style="display:inline;opacity:1;fill:#ebebeb;fill-opacity:1;stroke-width:1.00301"
       d="m 68.840384,103.32598 1.327794,15.75137 22.364862,5.86001 0.0075,20.79347 -40.759916,-11.39488 -2.836735,-31.00552 z"
       id="path2134-6-7"
       sodipodi:nodetypes="ccccccc" /></g></svg>
