<?xml version="1.0" encoding="UTF-8" standalone="no"?>
<svg
   version="1.1"
   viewBox="0 0 180 180"
   id="svg2772"
   sodipodi:docname="digitalocean_logo.svg"
   width="180"
   height="180"
   inkscape:version="1.2.2 (732a01da63, 2022-12-09, custom)"
   xmlns:inkscape="http://www.inkscape.org/namespaces/inkscape"
   xmlns:sodipodi="http://sodipodi.sourceforge.net/DTD/sodipodi-0.dtd"
   xmlns="http://www.w3.org/2000/svg"
   xmlns:svg="http://www.w3.org/2000/svg">
  <defs
     id="defs2776" />
  <sodipodi:namedview
     id="namedview2774"
     pagecolor="#505050"
     bordercolor="#eeeeee"
     borderopacity="1"
     inkscape:showpageshadow="0"
     inkscape:pageopacity="0"
     inkscape:pagecheckerboard="0"
     inkscape:deskcolor="#505050"
     showgrid="false"
     inkscape:zoom="1.7903342"
     inkscape:cx="89.089512"
     inkscape:cy="83.503963"
     inkscape:window-width="1366"
     inkscape:window-height="704"
     inkscape:window-x="0"
     inkscape:window-y="0"
     inkscape:window-maximized="1"
     inkscape:current-layer="svg2772" />
  <path
     fill="#007fff"
     d="m 118.07717,4.3932799 4.91172,1.491596 3.2544,1.29573 4.32412,2.124393 q 11.08905,5.3034531 20.65634,13.8612981 l 2.19972,2.033997 3.69134,3.766656 1.88331,2.214794 q 8.136,9.793308 13.01758,20.445414 l 2.25999,5.619854 3.73653,13.590097 1.11493,6.50878 q 2.21479,15.78983 -1.19027,31.564591 l -0.91906,3.94746 q -3.08867,11.8725 -9.53716,22.69033 l -8.96468,12.53544 -7.89489,8.15105 q -9.11531,7.90997 -19.39075,13.2737 l -13.04771,5.55958 -6.61425,1.88334 -20.565955,2.65172 q -1.46146,-0.22601 -0.93413,-4.48986 l -0.0753,-6.9909 v -5.52947 -7.47304 -5.52946 l 0.0152,-3.88719 q 0,-0.78346 -0.78347,-0.78346 h -17.74848 l -5.84586,-0.10546 -9.35637,0.19588 q -0.87386,0.0301 -0.88892,-0.84374 l -0.0753,-7.94011 0.0152,-18.63742 0.10546,-6.37318 q 0.0152,-0.97933 0.9944,-0.97933 h 32.89044 q 0.79853,0 0.79853,0.79853 l 0.19588,32.72472 q 0,0.93412 0.94919,0.91906 14.961175,-0.24107 27.797945,-8.10585 11.94783,-7.50318 18.98394,-19.81262 0.70813,-0.87385 1.02453,-1.95866 4.61038,-8.4373 5.68011,-18.049811 l 0.678,-6.64439 -0.3616,-5.42398 Q 141.41537,52.832489 112.7737,39.272522 l -6.37317,-2.00386 C 80.033915,29.373749 53.139995,41.170919 40.468955,65.413123 l -3.992657,10.923316 -1.461464,8.01543 -0.376664,5.43906 q 0.241066,-0.46706 -0.888932,0.12053 l -9.311176,-0.15067 -5.469187,-0.0301 h -7.322381 q -1.52173,0.452 -2.953057,-0.0452 L 1.009455,89.444439 Q 0.105456,89.414339 0.09039,88.510299 L 0,83.884849 Q 4.926779,35.355201 46.887338,10.932196 l 5.378787,-2.6065261 q 31.95632,-14.373562 65.811045,-3.93239 z"
     id="path2014"
     style="stroke-width:1.50666" />
  <path
     fill="#007fff"
     d="m 13.559956,122.65125 5.228121,-0.0301 h 8.70851 l 0.783465,0.46706 0.361599,21.04809 q 0.01514,0.75332 0.768398,0.75332 h 24.905136 a 0.9642642,0.9642642 0 0 1 0.96427,0.96427 l -0.0301,25.83926 -1.4464,-0.03 -8.045576,-0.21101 q -7.533314,-0.0452 -15.624093,0.27121 -1.898397,0.0752 -1.581998,-3.20919 l 0.03013,-22.47942 q 0,-0.82867 -0.828666,-0.84373 l -8.226378,-0.226 -7.036116,-0.0301 -6.026651,-0.0301 -0.09039,-2.26 v -7.18679 -6.43344 l 0.04521,-5.55958 q 0.01514,-0.7684 0.783465,-0.7684 z"
     id="path2364"
     style="stroke-width:1.50666" />
</svg>
