<?xml version="1.0" encoding="UTF-8" standalone="no"?>
<svg
   version="1.1"
   viewBox="0 0 180 180"
   id="svg4037"
   sodipodi:docname="html_logo.svg"
   width="180"
   height="180"
   inkscape:version="1.2.2 (732a01da63, 2022-12-09, custom)"
   xmlns:inkscape="http://www.inkscape.org/namespaces/inkscape"
   xmlns:sodipodi="http://sodipodi.sourceforge.net/DTD/sodipodi-0.dtd"
   xmlns="http://www.w3.org/2000/svg"
   xmlns:svg="http://www.w3.org/2000/svg">
  <defs
     id="defs4041" />
  <sodipodi:namedview
     id="namedview4039"
     pagecolor="#505050"
     bordercolor="#eeeeee"
     borderopacity="1"
     inkscape:showpageshadow="0"
     inkscape:pageopacity="0"
     inkscape:pagecheckerboard="0"
     inkscape:deskcolor="#505050"
     showgrid="false"
     inkscape:zoom="1.5866667"
     inkscape:cx="162.92017"
     inkscape:cy="111.86975"
     inkscape:window-width="1366"
     inkscape:window-height="704"
     inkscape:window-x="0"
     inkscape:window-y="0"
     inkscape:window-maximized="1"
     inkscape:current-layer="svg4037" />
  <g
     stroke-width="2"
     fill="none"
     stroke-linecap="butt"
     id="g4011"
     transform="matrix(0.87427918,0,0,0.87427918,-39.798753,-63.166671)">
    <path
       stroke="#f2a693"
       vector-effect="non-scaling-stroke"
       d="m 150.04,109.99 q -0.12,0.01 -0.24,0.02"
       id="path3975" />
    <path
       stroke="#e89c89"
       vector-effect="non-scaling-stroke"
       d="M 149.8,110.01 H 93.65 a 0.67,0.67 0 0 0 -0.67,0.73 l 6.04,67.76 a 0.55,0.54 87.1 0 0 0.54,0.49 h 50.25"
       id="path3977" />
    <path
       stroke="#f2a693"
       vector-effect="non-scaling-stroke"
       d="m 149.81,178.99 0.69,0.05"
       id="path3979" />
    <path
       stroke="#eb5928"
       vector-effect="non-scaling-stroke"
       d="m 150.5,179.04 q -0.47,0.81 -0.48,1.96 -0.04,16.67 -0.01,33.97"
       id="path3981" />
    <path
       stroke="#e89c89"
       vector-effect="non-scaling-stroke"
       d="m 150.01,214.97 -24.85,-6.71 q -0.43,-0.12 -0.46,-0.56 l -1.52,-17.13 Q 123.13,190 122.56,190 h -22.04 q -0.47,0 -0.43,0.47 l 3.11,34.78 a 1.03,1.02 5.1 0 0 0.74,0.88 l 45.59,12.64"
       id="path3983" />
    <path
       stroke="#f2a693"
       vector-effect="non-scaling-stroke"
       d="m 149.53,238.77 q 0.09,-0.08 0.68,0.03"
       id="path3985" />
    <path
       stroke="#eb5928"
       vector-effect="non-scaling-stroke"
       d="m 150.21,238.8 -0.1,22.92 q 0,0.61 0.59,0.45 l 58.97,-16.26 q 0.47,-0.13 0.51,-0.61 L 224.23,88.02 a 0.71,0.71 0 0 0 -0.71,-0.77 h -72.81 q -0.65,0 -0.65,0.65 l -0.02,22.09"
       id="path3987" />
    <path
       stroke="#f8b294"
       vector-effect="non-scaling-stroke"
       d="m 150.21,238.8 45.91,-12.74 a 0.73,0.71 85.5 0 0 0.52,-0.63 l 6.12,-68.69 a 0.69,0.69 0 0 0 -0.69,-0.75 h -52.03"
       id="path3989" />
    <path
       stroke="#eb5928"
       vector-effect="non-scaling-stroke"
       d="M 150.04,155.99 150.16,133"
       id="path3991" />
    <path
       stroke="#f8b294"
       vector-effect="non-scaling-stroke"
       d="m 150.16,133 h 54.24 q 0.49,0 0.53,-0.49 l 1.98,-22.02 a 0.46,0.46 0 0 0 -0.46,-0.5 h -56.41"
       id="path3993" />
    <path
       stroke="#f2a693"
       vector-effect="non-scaling-stroke"
       d="m 150.16,133 -0.67,-0.01"
       id="path3995" />
    <path
       stroke="#f5f5f5"
       vector-effect="non-scaling-stroke"
       d="m 149.53,238.77 0.08,-23.84"
       id="path3997" />
    <path
       stroke="#f8b294"
       vector-effect="non-scaling-stroke"
       d="m 149.61,214.93 24.94,-6.69 q 0.55,-0.15 0.6,-0.72 l 2.52,-28 q 0.05,-0.47 -0.43,-0.47 l -26.74,-0.01"
       id="path3999" />
    <path
       stroke="#f2a693"
       vector-effect="non-scaling-stroke"
       d="m 150.04,155.99 q -0.18,0.01 -0.35,0.02"
       id="path4001" />
    <path
       stroke="#f5f5f5"
       vector-effect="non-scaling-stroke"
       d="m 149.8,110.01 0.07,21.82 a 0.85,0.82 -30.2 0 1 -0.12,0.43 q -0.21,0.34 -0.26,0.73"
       id="path4003" />
    <path
       stroke="#e89c89"
       vector-effect="non-scaling-stroke"
       d="m 149.49,132.99 h -30.93 a 0.45,0.44 87.6 0 0 -0.44,0.49 l 1.9,22.02 a 0.57,0.56 87.2 0 0 0.56,0.51 h 29.11"
       id="path4005" />
    <path
       stroke="#f5f5f5"
       vector-effect="non-scaling-stroke"
       d="m 149.69,156.01 0.12,22.98"
       id="path4007" />
    <path
       stroke="#eea88a"
       vector-effect="non-scaling-stroke"
       d="m 149.61,214.93 q 0.2,0.02 0.4,0.04"
       id="path4009" />
  </g>
  <path
     fill="#e44d26"
     d="M 26.349209,161.59302 12.002288,0.655709 A 0.60325263,0.60325263 0 0 1 12.596798,0 H 170.08945 a 0.60325263,0.60325263 0 0 1 0.59451,0.655709 L 156.3283,161.57554 a 0.60325263,0.60325263 0 0 1 -0.43714,0.5333 l -64.495573,17.87027 a 0.60325263,0.60325263 0 0 1 -0.31475,0 L 26.786349,162.12633 a 0.60325263,0.60325263 0 0 1 -0.43714,-0.53331 z M 91.378097,32.9953 q -0.10491,0.009 -0.20983,0.0174 H 42.077492 a 0.58576705,0.58576705 0 0 0 -0.585768,0.63823 l 5.280647,59.24115 a 0.48085355,0.47211076 87.1 0 0 0.472111,0.4284 h 43.932525 l 0.60326,0.0437 q -0.41092,0.70817 -0.41966,1.71359 -0.035,14.57423 -0.009,29.69926 l -21.72584,-5.86641 q -0.37594,-0.10491 -0.40217,-0.4896 l -1.3289,-14.9764 q -0.0437,-0.49834 -0.54206,-0.49834 H 48.083716 q -0.410908,0 -0.375937,0.41091 l 2.71901,30.40743 a 0.90050751,0.89176478 5.1 0 0 0.646964,0.76937 l 39.858384,11.05089 q 0.0786,-0.0699 0.59451,0.0263 l -0.0875,20.03848 q 0,0.53331 0.51583,0.39343 l 51.556243,-14.21578 q 0.41091,-0.11366 0.44588,-0.53331 L 156.24087,13.787382 a 0.62073822,0.62073822 0 0 0 -0.62074,-0.673194 H 91.963857 q -0.56827,0 -0.56827,0.568281 z"
     id="path4021"
     style="stroke-width:0.874279" />
  <path
     fill="#f16529"
     d="m 91.526717,145.6112 40.138163,-11.13832 a 0.6382238,0.62073822 85.5 0 0 0.45462,-0.55079 l 5.35059,-60.05424 a 0.60325263,0.60325263 0 0 0 -0.60325,-0.65571 H 91.378097 l 0.10491,-20.09968 h 47.420903 q 0.4284,0 0.46338,-0.4284 l 1.73106,-19.25163 A 0.40216842,0.40216842 0 0 0 140.69619,32.9953 H 91.378097 l 0.0174,-19.312831 q 0,-0.568281 0.56827,-0.568281 h 63.656283 a 0.62073822,0.62073822 0 0 1 0.62074,0.673194 L 143.95725,151.29402 q -0.035,0.41964 -0.44588,0.5333 L 91.955117,166.0431 q -0.51582,0.13988 -0.51582,-0.39343 z"
     id="path4023"
     style="stroke-width:0.874279" />
  <path
     fill="#ebebeb"
     d="m 91.168267,33.01278 0.0612,19.07677 a 0.71690893,0.7431373 59.8 0 1 -0.10491,0.37594 q -0.1836,0.29726 -0.22732,0.63823 h -27.04145 a 0.39342563,0.38468284 87.6 0 0 -0.38468,0.4284 l 1.66113,19.25162 a 0.49833913,0.48959634 87.2 0 0 0.48959,0.44588 h 25.45027 l 0.10492,20.09094 H 47.244482 a 0.48085355,0.47211076 87.1 0 1 -0.472111,-0.4284 L 41.491724,33.65101 a 0.58576705,0.58576705 0 0 1 0.585768,-0.63823 z"
     id="path4025"
     style="stroke-width:0.874279" />
  <path
     fill="#ffffff"
     d="m 91.168267,33.01278 q 0.10492,-0.009 0.20983,-0.0175 h 49.318093 a 0.40216842,0.40216842 0 0 1 0.40216,0.43714 l -1.73106,19.25163 q -0.035,0.4284 -0.46338,0.4284 H 91.483007 l -0.58577,-0.009 q 0.0437,-0.34097 0.22732,-0.63822 a 0.71690893,0.7431373 59.8 0 0 0.10491,-0.37594 z"
     id="path4027"
     style="stroke-width:0.874279" />
  <path
     fill="#e44d26"
     d="m 90.897237,53.10372 0.58577,0.009 -0.10491,20.09968 q -0.15738,0.009 -0.306,0.0175 h -25.45027 a 0.49833913,0.48959634 87.2 0 1 -0.48959,-0.44589 l -1.66113,-19.25162 a 0.39342563,0.38468284 87.6 0 1 0.38468,-0.4284 z"
     id="path4029"
     style="stroke-width:0.874279" />
  <path
     fill="#ffffff"
     d="m 91.072097,73.22962 q 0.14862,-0.009 0.306,-0.0175 h 45.488743 a 0.60325263,0.60325263 0 0 1 0.60325,0.6557 l -5.35059,60.05424 a 0.6382238,0.62073822 85.5 0 1 -0.45462,0.55079 l -40.138163,11.13832 q -0.51582,-0.0962 -0.59451,-0.0263 l 0.0699,-20.84281 21.804533,-5.84893 q 0.48085,-0.13114 0.52456,-0.62948 l 2.20318,-24.47982 q 0.0437,-0.41091 -0.37593,-0.41091 l -23.378233,-0.009 -0.60325,-0.0437 z"
     id="path4031"
     style="stroke-width:0.874279" />
  <path
     fill="#f16529"
     d="m 91.780267,93.36427 23.378223,0.009 q 0.41966,0 0.37594,0.4109 l -2.20318,24.47983 q -0.0437,0.49833 -0.52457,0.62948 l -21.804523,5.84893 q 0.17485,0.0174 0.34971,0.035 -0.0262,-15.12503 0.009,-29.69926 0.009,-1.00542 0.41966,-1.71359 z"
     id="path4033"
     style="stroke-width:0.874279" />
  <path
     fill="#ebebeb"
     d="m 91.351867,124.77712 q -0.17486,-0.0175 -0.34971,-0.035 l -0.0699,20.84281 -39.858389,-11.05089 a 0.90050751,0.89176478 5.1 0 1 -0.646963,-0.76936 l -2.71901,-30.40743 q -0.03497,-0.41091 0.375937,-0.41091 h 19.269115 q 0.49834,0 0.54205,0.49833 l 1.32891,14.97641 q 0.0262,0.38469 0.40216,0.4896 z"
     id="path4035"
     style="stroke-width:0.874279" />
</svg>
