<?xml version="1.0" encoding="UTF-8" standalone="no"?>
<svg
   version="1.1"
   viewBox="0 0 180 180"
   id="svg4222"
   sodipodi:docname="javascript_logo.svg"
   width="180"
   height="180"
   inkscape:version="1.2.2 (732a01da63, 2022-12-09, custom)"
   xmlns:inkscape="http://www.inkscape.org/namespaces/inkscape"
   xmlns:sodipodi="http://sodipodi.sourceforge.net/DTD/sodipodi-0.dtd"
   xmlns="http://www.w3.org/2000/svg"
   xmlns:svg="http://www.w3.org/2000/svg">
  <defs
     id="defs4226" />
  <sodipodi:namedview
     id="namedview4224"
     pagecolor="#505050"
     bordercolor="#eeeeee"
     borderopacity="1"
     inkscape:showpageshadow="0"
     inkscape:pageopacity="0"
     inkscape:pagecheckerboard="0"
     inkscape:deskcolor="#505050"
     showgrid="false"
     inkscape:zoom="2.0398959"
     inkscape:cx="97.308886"
     inkscape:cy="89.95557"
     inkscape:window-width="1366"
     inkscape:window-height="704"
     inkscape:window-x="0"
     inkscape:window-y="0"
     inkscape:window-maximized="1"
     inkscape:current-layer="svg4222" />
  <g
     stroke-width="2"
     fill="none"
     stroke-linecap="butt"
     id="g4212"
     transform="matrix(0.60960121,0,0,0.60960121,-88.826859,-10.363217)">
    <path
       stroke="#edc934"
       vector-effect="non-scaling-stroke"
       d="m 379.21,267.75 a 0.76,0.76 0 0 0 0.56,-0.67 l 20.1,-226 a 0.76,0.76 0 0 0 -0.76,-0.83 h -105.1 a 0.76,0.76 0 0 0 -0.76,0.76 V 290.3 a 0.76,0.76 0 0 0 0.96,0.74 l 85,-23.29"
       id="path4206" />
    <path
       stroke="#e3d38d"
       vector-effect="non-scaling-stroke"
       d="m 257.79,74.23 a 0.54,0.54 0 0 0 -0.54,0.54 v 134.9 a 0.54,0.54 0 0 1 -0.69,0.52 l -49.12,-13.71 a 0.54,0.54 0 0 0 -0.69,0.52 v 29.4 a 0.54,0.54 0 0 0 0.4,0.52 l 74.77,20.8 a 0.54,0.54 0 0 0 0.68,-0.52 l 0.05,-172.43 a 0.54,0.54 0 0 0 -0.54,-0.54 h -24.32"
       id="path4208" />
    <path
       stroke="#ffec9d"
       vector-effect="non-scaling-stroke"
       d="m 328.95,105.1 a 0.35,0.35 0 0 1 0.35,-0.35 h 54.65 a 0.35,0.35 0 0 0 0.34,-0.32 l 2.25,-29.8 a 0.35,0.35 0 0 0 -0.35,-0.38 h -82.34 a 0.35,0.35 0 0 0 -0.35,0.35 v 112.04 a 0.35,0.35 0 0 0 0.41,0.35 l 51.08,-9.08 a 0.35,0.35 0 0 1 0.41,0.36 l -1.27,25.44 a 0.35,0.35 0 0 1 -0.26,0.33 l -50.11,13.24 a 0.35,0.35 0 0 0 -0.26,0.34 v 29.75 a 0.35,0.35 0 0 0 0.44,0.34 l 70.04,-18.27 a 0.35,0.35 0 0 0 0.26,-0.31 l 6.53,-83.86 a 0.35,0.35 0 0 0 -0.39,-0.38 l -50.94,6.21 a 0.35,0.35 0 0 1 -0.39,-0.34 l -0.1,-45.66"
       id="path4210" />
  </g>
  <path
     fill="#dab92d"
     d="m 89.396152,179.96038 -63.99594,-18.01372 q -0.70104,-0.20116 -0.76809,-0.92659 Q 17.847252,84.844296 10.958762,8.2418118 c -0.21336,-2.426213 -0.73152,-5.199898 -0.95707,-7.80899204 A 0.39624078,0.39624078 0 0 1 10.397932,3.7641137e-6 H 169.01007 A 0.39014477,0.39014477 0 0 1 169.40021,0.42672376 L 155.02581,161.22124 a 0.76809752,0.78028954 84.6 0 1 -0.56083,0.67056 l -64.501898,18.06858 q -0.28652,0.0793 -0.56693,0 z m 52.943858,-27.10287 a 0.46329692,0.46329692 0 0 0 0.34138,-0.40843 L 154.93437,14.679201 a 0.46329692,0.46329692 0 0 0 -0.46329,-0.505969 H 90.401992 a 0.46329692,0.46329692 0 0 0 -0.4633,0.463297 V 166.60402 a 0.46329692,0.46329692 0 0 0 0.58522,0.4511 z M 68.322232,34.887481 a 0.32918465,0.32918465 0 0 0 -0.32918,0.329184 v 82.235205 a 0.32918465,0.32918465 0 0 1 -0.42063,0.31699 l -29.94361,-8.35763 a 0.32918465,0.32918465 0 0 0 -0.42062,0.31699 v 17.92228 a 0.32918465,0.32918465 0 0 0 0.24384,0.31699 l 45.57988,12.67971 a 0.32918465,0.32918465 0 0 0 0.41453,-0.31699 l 0.0305,-105.113545 a 0.32918465,0.32918465 0 0 0 -0.32918,-0.329184 z"
     id="path4214"
     style="stroke-width:0.609601" />
  <path
     fill="#ffd83a"
     d="m 142.34001,152.85751 -51.816098,14.19761 a 0.46329692,0.46329692 0 0 1 -0.58522,-0.4511 V 14.636529 a 0.46329692,0.46329692 0 0 1 0.4633,-0.463297 h 64.069088 a 0.46329692,0.46329692 0 0 1 0.46329,0.505969 L 142.68139,152.44908 a 0.46329692,0.46329692 0 0 1 -0.34138,0.40843 z M 111.70146,53.70587 a 0.21336042,0.21336042 0 0 1 0.21336,-0.213361 h 33.3147 a 0.21336042,0.21336042 0 0 0 0.20727,-0.195072 l 1.3716,-18.166116 a 0.21336042,0.21336042 0 0 0 -0.21336,-0.231648 H 96.400472 a 0.21336042,0.21336042 0 0 0 -0.21337,0.21336 v 68.299727 a 0.21336042,0.21336042 0 0 0 0.24994,0.21336 l 31.138428,-5.535184 a 0.21336042,0.21336042 0 0 1 0.24994,0.21945 l -0.7742,15.508264 a 0.21336042,0.21336042 0 0 1 -0.15849,0.20117 l -30.547118,8.07112 a 0.21336042,0.21336042 0 0 0 -0.1585,0.20726 v 18.13564 a 0.21336042,0.21336042 0 0 0 0.26823,0.20726 L 139.1518,129.50369 a 0.21336042,0.21336042 0 0 0 0.15849,-0.18898 l 3.9807,-51.12116 a 0.21336042,0.21336042 0 0 0 -0.23774,-0.231648 l -31.05309,3.785623 a 0.21336042,0.21336042 0 0 1 -0.23774,-0.207264 z"
     id="path4216"
     style="stroke-width:0.609601" />
  <path
     fill="#ececec"
     d="m 68.322232,34.887481 h 14.82551 a 0.32918465,0.32918465 0 0 1 0.32918,0.329184 l -0.0305,105.113545 a 0.32918465,0.32918465 0 0 1 -0.41453,0.31699 l -45.57988,-12.67971 a 0.32918465,0.32918465 0 0 1 -0.24384,-0.31699 v -17.92228 a 0.32918465,0.32918465 0 0 1 0.42062,-0.31699 l 29.94361,8.35763 a 0.32918465,0.32918465 0 0 0 0.42063,-0.31699 V 35.216665 a 0.32918465,0.32918465 0 0 1 0.32918,-0.329184 z"
     id="path4218"
     style="stroke-width:0.609601" />
  <path
     fill="#ffffff"
     d="m 111.70146,53.70587 0.061,27.834391 a 0.21336042,0.21336042 0 0 0 0.23774,0.207264 l 31.05309,-3.785623 a 0.21336042,0.21336042 0 0 1 0.23774,0.231648 l -3.9807,51.12116 a 0.21336042,0.21336042 0 0 1 -0.15849,0.18898 L 96.455372,140.6411 a 0.21336042,0.21336042 0 0 1 -0.26823,-0.20726 V 122.2982 a 0.21336042,0.21336042 0 0 1 0.1585,-0.20726 l 30.547118,-8.07112 a 0.21336042,0.21336042 0 0 0 0.15849,-0.20117 l 0.7742,-15.508264 a 0.21336042,0.21336042 0 0 0 -0.24994,-0.21945 l -31.138428,5.535184 a 0.21336042,0.21336042 0 0 1 -0.24994,-0.21336 V 35.113033 a 0.21336042,0.21336042 0 0 1 0.21337,-0.21336 h 50.194558 a 0.21336042,0.21336042 0 0 1 0.21336,0.231648 l -1.3716,18.166116 a 0.21336042,0.21336042 0 0 1 -0.20727,0.195072 h -33.3147 a 0.21336042,0.21336042 0 0 0 -0.21336,0.213361 z"
     id="path4220"
     style="stroke-width:0.609601" />
</svg>
