<?xml version="1.0" encoding="UTF-8" standalone="no"?>
<svg
   version="1.1"
   viewBox="0 0 180 180"
   id="svg3014"
   sodipodi:docname="laravel_logo.svg"
   width="180"
   height="180"
   inkscape:version="1.2.2 (732a01da63, 2022-12-09, custom)"
   xmlns:inkscape="http://www.inkscape.org/namespaces/inkscape"
   xmlns:sodipodi="http://sodipodi.sourceforge.net/DTD/sodipodi-0.dtd"
   xmlns="http://www.w3.org/2000/svg"
   xmlns:svg="http://www.w3.org/2000/svg">
  <defs
     id="defs3018" />
  <sodipodi:namedview
     id="namedview3016"
     pagecolor="#505050"
     bordercolor="#eeeeee"
     borderopacity="1"
     inkscape:showpageshadow="0"
     inkscape:pageopacity="0"
     inkscape:pagecheckerboard="0"
     inkscape:deskcolor="#505050"
     showgrid="false"
     inkscape:zoom="2.0429185"
     inkscape:cx="111.84979"
     inkscape:cy="97.654412"
     inkscape:window-width="1366"
     inkscape:window-height="704"
     inkscape:window-x="0"
     inkscape:window-y="0"
     inkscape:window-maximized="1"
     inkscape:current-layer="svg3014" />
  <path
     fill="#ff2a1c"
     d="M 76.471826,94.533608 103.6145,78.864535 a 1.0349601,1.0349601 0 0 0 0.5119,-0.89029 V 40.94938 a 1.6804191,1.6915477 74.8 0 1 0.84578,-1.457845 l 34.64335,-19.998102 a 2.3481353,2.325878 44.8 0 1 2.32588,0 l 34.33173,19.775529 a 2.0476629,2.0254059 15.2 0 1 1.02384,1.758318 v 39.773627 a 1.8473481,1.8473481 0 0 1 -0.92368,1.602519 l -32.25068,18.517994 q -0.48966,0.27822 -0.48966,0.83465 v 36.42392 a 2.8823082,2.8823082 0 0 1 -1.43558,2.49281 l -67.572905,38.88333 a 3.3608382,3.3608382 0 0 1 -3.338574,0 L 3.1565889,140.36119 Q 2.5,139.98282 2.5,139.21494 L 2.5778915,21.518839 q 0,-0.834644 0.7233594,-1.257532 L 38.089273,0.27433515 a 2.0476629,2.0476629 0 0 1 2.047664,0 L 74.413038,20.038736 a 2.6597361,2.6708648 14.9 0 1 1.33543,2.314749 v 71.76836 q 0,0.834646 0.723358,0.411763 z M 66.789941,22.709602 a 0.38950111,0.38950111 0 0 0 0,-0.667719 L 39.235519,6.2170101 a 0.38950111,0.38950111 0 0 0 -0.378371,0 L 11.402883,22.030754 a 0.38950111,0.38950111 0 0 0 0,0.667718 l 27.476523,15.891644 a 0.38950111,0.38950111 0 0 0 0.389499,0 z M 168.41635,41.895313 a 0.43401553,0.43401553 0 0 0 0,-0.756746 L 140.96209,25.42498 a 0.43401553,0.43401553 0 0 0 -0.42288,0 l -27.44315,15.724717 a 0.43401553,0.43401553 0 0 0 0,0.756743 l 27.49879,15.836003 a 0.43401553,0.43401553 0 0 0 0.43401,0 z M 36.241926,43.642503 A 0.33385811,0.33385811 0 0 0 36.074997,43.353159 L 8.3647748,27.450385 A 0.33385811,0.33385811 0 0 0 7.8639863,27.73973 v 108.71533 a 0.33385811,0.33385811 0 0 0 0.1669311,0.28934 L 69.683379,172.189 a 0.33385811,0.33385811 0 0 0 0.500787,-0.28934 v -31.74991 a 0.33385811,0.33385811 0 0 0 -0.166931,-0.28934 l -33.60838,-18.99652 a 0.33385811,0.33385811 0 0 1 -0.166929,-0.28935 z m 33.819823,54.56354 a 0.35611531,0.35611531 0 0 0 0.178059,-0.311604 l -0.0779,-70.065681 a 0.35611531,0.35611531 0 0 0 -0.534173,-0.300473 l -27.64345,15.913903 a 0.35611531,0.35611531 0 0 0 -0.178058,0.311601 v 70.010041 a 0.35611531,0.35611531 0 0 0 0.534173,0.3116 z M 138.06866,62.894986 A 0.35611531,0.35611531 0 0 0 137.8906,62.583385 L 110.22488,46.691741 a 0.35611531,0.35611531 0 0 0 -0.53417,0.300471 V 78.37487 a 0.35611531,0.35611531 0 0 0 0.17806,0.311605 l 27.66571,15.925034 a 0.35611531,0.35611531 0 0 0 0.53418,-0.300476 z m 33.75305,15.769231 a 0.44514412,0.44514412 0 0 0 0.22258,-0.389506 l -0.11121,-31.160084 a 0.44514412,0.44514412 0 0 0 -0.66772,-0.389502 l -27.40975,15.691331 a 0.44514412,0.44514412 0 0 0 -0.22258,0.389502 v 31.226857 a 0.44514412,0.44514412 0 0 0 0.66773,0.389506 z m -37.30308,21.378053 a 0.43401553,0.43401553 0 0 0 0,-0.756749 L 107.01986,83.538548 a 0.43401553,0.43401553 0 0 0 -0.4229,0 L 45.36738,118.76058 a 0.43401553,0.43401553 0 0 0 0,0.75673 l 27.354109,15.52442 a 0.43401553,0.43401553 0 0 0 0.422883,0 z m -58.770162,71.76836 a 0.42288691,0.42288691 0 0 0 0.634328,0.36723 l 61.474424,-35.34444 a 0.42288691,0.42288691 0 0 0 0.21144,-0.36723 v -31.32702 a 0.42288691,0.42288691 0 0 0 -0.63434,-0.36725 l -61.474406,35.04397 a 0.42288691,0.42288691 0 0 0 -0.211446,0.36724 z"
     id="path2974"
     style="stroke-width:1.11286" />
</svg>
