<?xml version="1.0" encoding="UTF-8" standalone="no"?>
<!DOCTYPE svg PUBLIC "-//W3C//DTD SVG 1.1//EN" "http://www.w3.org/Graphics/SVG/1.1/DTD/svg11.dtd">
<svg xmlns="http://www.w3.org/2000/svg" version="1.1" viewBox="0.00 0.00 2009.00 1043.00">
<g stroke-width="2.00" fill="none" stroke-linecap="butt">
<path stroke="#006f93" vector-effect="non-scaling-stroke" d="
  M 1584.29 118.64
  Q 1583.98 118.97 1583.63 119.01
  Q 1583.36 119.04 1583.02 118.75
  Q 1580.98 117.05 1578.75 115.62
  Q 1578.48 115.45 1578.24 115.47
  Q 1577.82 115.52 1577.63 115.86
  Q 1577.37 116.31 1577.15 115.83
  Q 1577.02 115.53 1577.23 115.34
  Q 1577.71 114.92 1577.20 114.54
  L 1574.94 112.87
  A 0.36 0.36 0.0 0 0 1574.48 113.41
  L 1575.75 114.64
  Q 1576.10 114.97 1575.86 115.39
  Q 1575.67 115.71 1575.26 115.76
  Q 1574.94 115.80 1575.24 115.91
  Q 1575.39 115.97 1575.52 116.05
  Q 1575.83 116.25 1575.46 116.25
  L 1572.48 116.25
  Q 1571.98 116.25 1571.91 116.74
  Q 1571.77 117.72 1572.08 118.60
  A 2.63 2.62 -32.0 0 1 1571.44 121.34
  Q 1569.61 123.12 1568.93 125.66
  Q 1568.80 126.14 1568.42 126.46
  Q 1567.51 127.21 1568.03 128.24
  Q 1569.62 131.43 1567.97 134.06
  A 0.73 0.70 11.6 0 1 1567.43 134.40
  L 1564.76 134.77
  A 0.68 0.67 -29.2 0 0 1564.42 135.96
  Q 1565.29 136.66 1565.47 137.72
  Q 1565.53 138.06 1565.82 138.23
  Q 1566.64 138.72 1566.86 139.70
  A 0.69 0.61 41.4 0 1 1566.88 139.86
  Q 1566.85 140.88 1568.04 142.27"
/>
<path stroke="#006f93" vector-effect="non-scaling-stroke" d="
  M 461.71 839.50
  L 461.56 801.12
  Q 461.56 801.06 461.50 801.06
  Q 461.47 801.06 461.45 801.06
  Q 461.34 801.06 461.34 801.06
  Q 460.98 827.03 460.98 853.00
  Q 460.98 853.17 460.94 853.19
  Q 460.84 853.22 460.75 853.25
  A 0.07 0.05 83.7 0 1 460.68 853.18
  L 460.10 844.93
  A 0.23 0.23 0.0 0 0 459.64 844.93
  L 459.61 845.55
  A 0.32 0.31 40.1 0 1 458.99 845.60
  Q 458.85 844.97 458.27 844.95
  Q 457.97 844.93 457.82 845.19
  L 457.48 845.76
  Q 457.34 845.99 457.07 846.00
  Q 456.88 846.00 456.68 845.99
  Q 456.42 845.98 456.62 846.15
  Q 456.77 846.27 456.98 846.30
  Q 457.25 846.33 457.00 846.45
  L 456.26 846.77
  Q 455.69 847.03 455.25 846.58
  C 452.79 844.10 450.65 848.13 448.27 846.01
  Q 447.85 845.64 447.29 845.70
  L 442.33 846.23
  Q 441.91 846.28 441.57 846.02
  Q 441.01 845.61 440.31 845.58
  Q 435.15 845.33 430.05 844.54
  A 0.12 0.12 0.0 0 1 430.05 844.30
  L 430.50 844.24
  A 0.13 0.13 0.0 0 0 430.51 843.98
  C 429.14 843.67 426.93 844.10 425.34 843.91
  Q 424.87 843.85 424.51 844.16
  Q 422.99 845.46 421.29 846.53
  Q 419.66 847.56 418.88 845.77
  Q 418.74 845.45 418.51 845.15
  Q 418.24 844.81 418.46 844.57
  Q 418.82 844.15 418.28 844.08
  Q 417.47 843.98 416.55 844.61
  Q 416.28 844.80 415.95 844.77
  Q 415.18 844.72 413.61 846.09
  A 0.97 0.96 47.8 0 1 412.27 846.02
  L 410.88 844.53
  Q 410.70 844.33 410.45 844.43
  C 409.41 844.84 408.03 843.67 406.37 844.11
  A 0.05 0.05 0.0 0 0 406.37 844.21
  L 406.71 844.25
  Q 406.75 844.26 406.74 844.30
  Q 406.57 845.00 406.01 845.01
  Q 405.56 845.02 405.24 844.72
  L 403.84 843.42
  Q 403.75 843.33 403.75 843.33
  Q 403.88 843.29 404.02 843.25
  A 0.13 0.13 0.0 0 0 403.99 843.00
  L 403.20 843.00
  Q 402.94 843.00 403.17 842.88
  L 403.50 842.71
  Q 403.72 842.59 403.48 842.54
  Q 401.61 842.16 400.14 843.01
  A 0.06 0.06 0.0 0 1 400.05 842.94
  L 400.26 842.43
  Q 400.32 842.28 400.48 842.26
  Q 400.60 842.25 400.75 842.25
  A 0.13 0.12 43.6 0 0 400.74 842.00
  L 400.25 842.00
  A 0.40 0.40 0.0 0 1 399.85 841.63
  Q 399.64 839.17 397.67 837.82
  Q 397.18 837.48 397.18 836.88
  Q 397.18 835.10 396.44 833.53
  Q 395.75 832.07 395.75 833.68
  L 395.75 840.27
  Q 395.75 840.83 396.30 840.91
  Q 396.68 840.96 397.04 840.98
  Q 397.63 841.01 397.63 841.59
  L 397.62 847.58
  A 0.34 0.34 0.0 0 1 396.94 847.65
  L 396.83 847.10
  Q 396.79 846.92 396.66 847.05
  L 396.46 847.24
  A 0.09 0.09 0.0 0 1 396.31 847.20
  L 396.00 846.16
  A 0.26 0.26 0.0 0 0 395.50 846.23
  L 395.49 853.00
  A 0.09 0.09 0.0 0 1 395.31 853.00
  L 394.85 691.50"
/>
<path stroke="#006f93" vector-effect="non-scaling-stroke" d="
  M 66.26 765.00
  L 65.44 789.04
  Q 65.38 790.64 65.23 789.05
  Q 64.84 784.87 65.03 780.67
  Q 65.04 780.51 64.96 780.38
  L 64.73 780.00
  Q 64.61 779.79 64.58 780.02
  L 63.66 786.07
  Q 63.59 786.53 63.14 786.44
  L 62.34 786.30
  Q 61.80 786.20 61.54 786.68
  L 60.22 789.13
  A 0.69 0.66 10.9 0 1 59.67 789.49
  Q 58.56 789.57 57.81 789.38
  Q 57.42 789.29 57.06 789.46
  Q 56.03 789.96 55.11 789.54
  A 0.69 0.69 0.0 0 1 55.27 788.24
  Q 56.46 788.02 56.74 786.88
  Q 56.85 786.41 56.47 786.11
  Q 55.64 785.46 55.76 784.55
  A 0.76 0.76 0.0 0 0 55.14 783.71
  Q 53.59 783.44 54.26 784.81
  Q 54.38 785.05 54.57 785.17
  Q 54.78 785.29 55.05 785.24
  A 0.16 0.10 -46.6 0 1 55.00 785.50
  Q 54.87 785.54 54.74 785.59
  A 0.04 0.04 0.0 0 0 54.74 785.66
  L 55.19 785.81
  A 0.07 0.07 0.0 0 1 55.18 785.95
  L 54.73 786.01
  Q 54.70 786.02 54.69 786.05
  Q 54.18 788.63 51.62 788.09
  Q 51.09 787.98 50.85 787.48
  Q 50.26 786.29 49.11 785.81
  Q 48.49 785.56 49.10 785.29
  Q 49.31 785.20 49.52 785.15
  A 0.08 0.08 0.0 0 0 49.50 785.00
  Q 49.24 785.00 48.97 785.00
  A 0.10 0.10 0.0 0 1 48.96 784.81
  L 49.61 784.72
  Q 50.01 784.67 49.82 784.32
  L 49.36 783.47
  Q 49.07 782.94 48.61 783.34
  L 46.95 784.83
  Q 46.55 785.19 46.51 785.72
  Q 46.46 786.37 47.04 786.75
  A 1.36 1.29 -17.0 0 1 45.74 789.04
  Q 44.61 788.63 43.50 788.98
  A 0.47 0.47 0.0 0 1 42.89 788.52
  Q 42.92 787.06 41.81 786.23
  Q 41.42 785.95 41.29 785.71
  Q 41.11 785.36 41.10 784.86
  A 0.46 0.46 0.0 0 0 40.40 784.48
  L 38.29 785.73
  Q 37.92 785.95 37.52 785.80
  C 34.73 784.79 32.02 783.90 29.04 784.72
  C 27.39 785.18 24.74 784.94 23.45 784.91
  Q 21.82 784.87 20.23 784.51
  Q 20.04 784.47 20.19 784.34
  Q 20.32 784.24 20.43 784.21
  Q 20.53 784.18 20.43 784.15
  Q 16.76 783.08 14.29 785.46
  Q 12.85 786.85 10.64 786.86
  Q 10.17 786.86 10.15 786.38
  Q 10.13 785.74 10.07 784.99
  A 0.44 0.44 0.0 0 0 9.61 784.59
  Q 6.22 784.72 2.92 783.57
  Q 2.71 783.49 2.58 783.68
  L 2.19 784.22
  A 0.31 0.30 52.1 0 1 1.66 784.15
  Q 1.22 783.06 1.56 782.02
  Q 1.70 781.56 1.54 781.11
  Q 1.07 779.85 1.50 778.53
  Q 1.75 777.79 1.41 777.48
  Q 1.11 777.21 1.10 777.61
  L 0.79 789.69
  Q 0.76 790.78 0.29 789.80
  L 0.00 789.18"
/>
</g>
<path fill="#006b90" d="
  M 1302.08 0.00
  L 1303.07 0.00
  C 1332.41 1.49 1361.65 15.23 1386.04 30.70
  C 1393.16 35.22 1400.15 42.15 1406.49 46.76
  Q 1410.35 49.57 1412.75 49.71
  Q 1426.94 50.54 1441.15 51.21
  Q 1448.28 51.55 1454.21 52.88
  C 1473.26 57.17 1496.25 62.13 1514.82 72.68
  Q 1550.16 92.76 1584.29 118.64
  Q 1583.98 118.97 1583.63 119.01
  Q 1583.36 119.04 1583.02 118.75
  Q 1580.98 117.05 1578.75 115.62
  Q 1578.48 115.45 1578.24 115.47
  Q 1577.82 115.52 1577.63 115.86
  Q 1577.37 116.31 1577.15 115.83
  Q 1577.02 115.53 1577.23 115.34
  Q 1577.71 114.92 1577.20 114.54
  L 1574.94 112.87
  A 0.36 0.36 0.0 0 0 1574.48 113.41
  L 1575.75 114.64
  Q 1576.10 114.97 1575.86 115.39
  Q 1575.67 115.71 1575.26 115.76
  Q 1574.94 115.80 1575.24 115.91
  Q 1575.39 115.97 1575.52 116.05
  Q 1575.83 116.25 1575.46 116.25
  L 1572.48 116.25
  Q 1571.98 116.25 1571.91 116.74
  Q 1571.77 117.72 1572.08 118.60
  A 2.63 2.62 -32.0 0 1 1571.44 121.34
  Q 1569.61 123.12 1568.93 125.66
  Q 1568.80 126.14 1568.42 126.46
  Q 1567.51 127.21 1568.03 128.24
  Q 1569.62 131.43 1567.97 134.06
  A 0.73 0.70 11.6 0 1 1567.43 134.40
  L 1564.76 134.77
  A 0.68 0.67 -29.2 0 0 1564.42 135.96
  Q 1565.29 136.66 1565.47 137.72
  Q 1565.53 138.06 1565.82 138.23
  Q 1566.64 138.72 1566.86 139.70
  A 0.69 0.61 41.4 0 1 1566.88 139.86
  Q 1566.85 140.88 1568.04 142.27
  Q 1524.82 108.11 1473.53 86.96
  Q 1462.59 82.45 1451.44 80.33
  C 1440.54 78.25 1424.50 79.03 1414.50 77.25
  Q 1408.06 76.11 1404.07 76.19
  C 1401.74 76.24 1398.76 76.40 1396.81 75.62
  C 1389.50 72.70 1384.12 67.13 1378.50 62.41
  C 1369.18 54.59 1357.46 48.46 1346.48 43.30
  Q 1328.45 34.83 1315.26 29.98
  C 1306.84 26.89 1298.26 25.30 1289.89 29.26
  C 1282.99 32.52 1281.70 41.73 1283.68 48.29
  Q 1287.71 61.66 1295.43 71.33
  Q 1317.93 99.50 1331.45 120.06
  Q 1341.12 134.79 1348.10 155.55
  C 1359.40 189.18 1368.11 224.12 1388.38 254.13
  C 1396.90 266.74 1412.11 273.41 1410.21 290.17
  C 1408.13 308.46 1397.98 326.12 1393.56 344.04
  C 1385.98 374.69 1385.95 408.10 1391.70 438.96
  C 1394.79 455.58 1399.89 469.18 1407.22 484.79
  C 1411.73 494.38 1418.21 503.33 1428.84 505.42
  A 1.82 1.81 -81.2 0 0 1430.99 503.84
  C 1433.95 478.12 1435.18 449.22 1446.38 425.40
  C 1451.55 414.43 1461.30 403.57 1469.29 393.81
  A 0.95 0.95 0.0 0 1 1470.75 393.81
  C 1474.67 398.55 1475.99 406.91 1477.82 411.43
  Q 1508.77 487.70 1557.55 553.97
  Q 1569.55 570.27 1582.58 582.93
  C 1586.13 586.38 1591.28 589.21 1594.70 593.06
  Q 1597.78 596.52 1593.63 594.46
  C 1579.82 587.64 1571.76 575.35 1560.05 566.00
  C 1536.58 547.28 1514.11 527.13 1496.66 502.47
  Q 1492.91 497.17 1489.38 489.87
  Q 1480.69 471.92 1471.86 454.53
  A 0.76 0.76 0.0 0 0 1470.44 454.73
  Q 1465.72 478.72 1462.74 501.50
  C 1460.21 520.76 1448.59 536.15 1427.62 533.18
  C 1412.35 531.02 1398.74 515.11 1390.75 502.24
  C 1364.35 459.70 1360.25 400.08 1369.71 352.09
  Q 1370.84 346.34 1374.49 332.69
  Q 1378.57 317.43 1381.87 301.98
  Q 1382.49 299.09 1386.63 292.28
  A 1.37 1.30 -35.2 0 0 1386.81 291.37
  C 1385.46 282.63 1377.05 278.30 1372.41 271.41
  C 1352.02 241.12 1340.93 209.52 1328.93 174.11
  Q 1327.39 169.57 1324.63 159.22
  C 1321.08 145.93 1315.78 137.09 1306.73 125.00
  Q 1294.37 108.49 1281.83 92.12
  C 1271.68 78.87 1260.84 63.19 1259.62 45.93
  C 1257.82 20.53 1275.90 0.09 1302.08 0.00
  Z"
/>
<path fill="#007295" d="
  M 1584.29 118.64
  C 1637.82 159.02 1680.38 209.29 1714.42 266.82
  C 1718.00 272.88 1721.65 280.93 1724.78 288.63
  Q 1741.01 328.59 1759.24 367.68
  C 1769.48 389.64 1782.54 414.53 1789.20 429.05
  Q 1794.53 440.67 1800.97 449.34
  C 1804.35 453.88 1811.28 455.51 1816.28 457.49
  Q 1821.31 459.48 1826.56 461.88
  C 1846.06 470.78 1863.96 477.94 1883.29 490.72
  Q 1918.37 513.90 1953.44 543.56
  C 1958.84 548.12 1962.75 551.70 1967.21 557.41
  Q 1977.97 571.17 1982.24 576.00
  Q 1984.64 578.71 1983.92 581.58
  Q 1983.78 582.13 1983.25 582.31
  Q 1956.57 591.71 1928.39 594.14
  C 1909.79 595.74 1892.56 603.14 1874.03 605.49
  Q 1873.38 605.57 1873.66 606.17
  C 1879.97 619.62 1892.54 628.03 1904.88 635.33
  C 1916.48 642.18 1928.83 649.14 1939.02 656.95
  Q 1962.86 675.21 1981.85 698.52
  C 1987.36 705.27 1992.84 710.48 1998.85 716.16
  C 2003.46 720.52 2006.36 728.79 2009.00 734.58
  L 2009.00 735.86
  Q 2006.81 735.63 2004.94 734.05
  C 2000.12 729.98 1995.37 724.84 1989.87 720.89
  C 1978.75 712.91 1967.96 704.49 1956.24 697.39
  C 1937.20 685.85 1915.98 678.44 1896.80 666.95
  Q 1887.19 661.20 1865.28 644.22
  Q 1852.57 634.37 1842.05 618.49
  C 1837.68 611.89 1834.43 603.89 1830.74 596.38
  Q 1830.53 595.95 1830.66 595.49
  C 1833.15 586.75 1847.97 585.07 1853.27 583.04
  C 1883.83 571.36 1916.25 568.43 1949.44 569.63
  A 0.85 0.84 -14.4 0 0 1950.20 568.35
  C 1946.19 561.74 1941.38 557.86 1934.20 553.09
  Q 1907.92 535.58 1882.08 517.41
  Q 1874.54 512.12 1863.31 505.61
  C 1854.74 500.65 1844.88 497.68 1835.56 494.12
  Q 1827.14 490.90 1819.26 488.36
  C 1807.98 484.72 1783.55 479.37 1776.29 469.07
  C 1754.30 437.91 1741.38 401.44 1724.82 367.32
  Q 1710.06 336.91 1697.55 305.51
  Q 1693.38 295.02 1689.41 287.55
  Q 1644.07 202.17 1568.04 142.27
  Q 1566.85 140.88 1566.88 139.86
  A 0.69 0.61 41.4 0 0 1566.86 139.70
  Q 1566.64 138.72 1565.82 138.23
  Q 1565.53 138.06 1565.47 137.72
  Q 1565.29 136.66 1564.42 135.96
  A 0.68 0.67 -29.2 0 1 1564.76 134.77
  L 1567.43 134.40
  A 0.73 0.70 11.6 0 0 1567.97 134.06
  Q 1569.62 131.43 1568.03 128.24
  Q 1567.51 127.21 1568.42 126.46
  Q 1568.80 126.14 1568.93 125.66
  Q 1569.61 123.12 1571.44 121.34
  A 2.63 2.62 -32.0 0 0 1572.08 118.60
  Q 1571.77 117.72 1571.91 116.74
  Q 1571.98 116.25 1572.48 116.25
  L 1575.46 116.25
  Q 1575.83 116.25 1575.52 116.05
  Q 1575.39 115.97 1575.24 115.91
  Q 1574.94 115.80 1575.26 115.76
  Q 1575.67 115.71 1575.86 115.39
  Q 1576.10 114.97 1575.75 114.64
  L 1574.48 113.41
  A 0.36 0.36 0.0 0 1 1574.94 112.87
  L 1577.20 114.54
  Q 1577.71 114.92 1577.23 115.34
  Q 1577.02 115.53 1577.15 115.83
  Q 1577.37 116.31 1577.63 115.86
  Q 1577.82 115.52 1578.24 115.47
  Q 1578.48 115.45 1578.75 115.62
  Q 1580.98 117.05 1583.02 118.75
  Q 1583.36 119.04 1583.63 119.01
  Q 1583.98 118.97 1584.29 118.64
  Z"
/>
<path fill="#006b90" d="
  M 1449.71 151.17
  C 1449.65 160.12 1445.99 169.44 1438.43 174.66
  Q 1438.02 174.94 1437.81 174.50
  C 1433.59 165.93 1429.77 155.26 1423.91 147.79
  C 1420.37 143.27 1416.26 139.27 1413.05 134.50
  Q 1411.21 131.76 1409.31 129.06
  Q 1409.01 128.64 1409.51 128.53
  Q 1419.25 126.42 1429.23 126.19
  A 1.36 1.35 -27.4 0 1 1430.06 126.45
  Q 1434.11 129.45 1438.14 132.32
  C 1442.34 135.32 1449.74 145.92 1449.71 151.17
  Z"
/>
<path fill="#007295" d="
  M 461.71 839.50
  L 461.56 801.12
  Q 461.56 801.06 461.50 801.06
  Q 461.47 801.06 461.45 801.06
  Q 461.34 801.06 461.34 801.06
  Q 460.98 827.03 460.98 853.00
  Q 460.98 853.17 460.94 853.19
  Q 460.84 853.22 460.75 853.25
  A 0.07 0.05 83.7 0 1 460.68 853.18
  L 460.10 844.93
  A 0.23 0.23 0.0 0 0 459.64 844.93
  L 459.61 845.55
  A 0.32 0.31 40.1 0 1 458.99 845.60
  Q 458.85 844.97 458.27 844.95
  Q 457.97 844.93 457.82 845.19
  L 457.48 845.76
  Q 457.34 845.99 457.07 846.00
  Q 456.88 846.00 456.68 845.99
  Q 456.42 845.98 456.62 846.15
  Q 456.77 846.27 456.98 846.30
  Q 457.25 846.33 457.00 846.45
  L 456.26 846.77
  Q 455.69 847.03 455.25 846.58
  C 452.79 844.10 450.65 848.13 448.27 846.01
  Q 447.85 845.64 447.29 845.70
  L 442.33 846.23
  Q 441.91 846.28 441.57 846.02
  Q 441.01 845.61 440.31 845.58
  Q 435.15 845.33 430.05 844.54
  A 0.12 0.12 0.0 0 1 430.05 844.30
  L 430.50 844.24
  A 0.13 0.13 0.0 0 0 430.51 843.98
  C 429.14 843.67 426.93 844.10 425.34 843.91
  Q 424.87 843.85 424.51 844.16
  Q 422.99 845.46 421.29 846.53
  Q 419.66 847.56 418.88 845.77
  Q 418.74 845.45 418.51 845.15
  Q 418.24 844.81 418.46 844.57
  Q 418.82 844.15 418.28 844.08
  Q 417.47 843.98 416.55 844.61
  Q 416.28 844.80 415.95 844.77
  Q 415.18 844.72 413.61 846.09
  A 0.97 0.96 47.8 0 1 412.27 846.02
  L 410.88 844.53
  Q 410.70 844.33 410.45 844.43
  C 409.41 844.84 408.03 843.67 406.37 844.11
  A 0.05 0.05 0.0 0 0 406.37 844.21
  L 406.71 844.25
  Q 406.75 844.26 406.74 844.30
  Q 406.57 845.00 406.01 845.01
  Q 405.56 845.02 405.24 844.72
  L 403.84 843.42
  Q 403.75 843.33 403.75 843.33
  Q 403.88 843.29 404.02 843.25
  A 0.13 0.13 0.0 0 0 403.99 843.00
  L 403.20 843.00
  Q 402.94 843.00 403.17 842.88
  L 403.50 842.71
  Q 403.72 842.59 403.48 842.54
  Q 401.61 842.16 400.14 843.01
  A 0.06 0.06 0.0 0 1 400.05 842.94
  L 400.26 842.43
  Q 400.32 842.28 400.48 842.26
  Q 400.60 842.25 400.75 842.25
  A 0.13 0.12 43.6 0 0 400.74 842.00
  L 400.25 842.00
  A 0.40 0.40 0.0 0 1 399.85 841.63
  Q 399.64 839.17 397.67 837.82
  Q 397.18 837.48 397.18 836.88
  Q 397.18 835.10 396.44 833.53
  Q 395.75 832.07 395.75 833.68
  L 395.75 840.27
  Q 395.75 840.83 396.30 840.91
  Q 396.68 840.96 397.04 840.98
  Q 397.63 841.01 397.63 841.59
  L 397.62 847.58
  A 0.34 0.34 0.0 0 1 396.94 847.65
  L 396.83 847.10
  Q 396.79 846.92 396.66 847.05
  L 396.46 847.24
  A 0.09 0.09 0.0 0 1 396.31 847.20
  L 396.00 846.16
  A 0.26 0.26 0.0 0 0 395.50 846.23
  L 395.49 853.00
  A 0.09 0.09 0.0 0 1 395.31 853.00
  L 394.85 691.50
  L 394.75 689.53
  A 0.30 0.30 0.0 0 0 394.18 689.42
  Q 343.39 802.38 292.81 914.81
  C 282.60 937.50 270.57 950.86 244.74 953.92
  Q 227.72 955.94 212.26 953.22
  C 191.36 949.54 179.29 937.58 170.84 918.93
  Q 118.76 803.96 66.98 689.29
  A 0.42 0.42 0.0 0 0 66.18 689.46
  L 66.26 765.00
  L 65.44 789.04
  Q 65.38 790.64 65.23 789.05
  Q 64.84 784.87 65.03 780.67
  Q 65.04 780.51 64.96 780.38
  L 64.73 780.00
  Q 64.61 779.79 64.58 780.02
  L 63.66 786.07
  Q 63.59 786.53 63.14 786.44
  L 62.34 786.30
  Q 61.80 786.20 61.54 786.68
  L 60.22 789.13
  A 0.69 0.66 10.9 0 1 59.67 789.49
  Q 58.56 789.57 57.81 789.38
  Q 57.42 789.29 57.06 789.46
  Q 56.03 789.96 55.11 789.54
  A 0.69 0.69 0.0 0 1 55.27 788.24
  Q 56.46 788.02 56.74 786.88
  Q 56.85 786.41 56.47 786.11
  Q 55.64 785.46 55.76 784.55
  A 0.76 0.76 0.0 0 0 55.14 783.71
  Q 53.59 783.44 54.26 784.81
  Q 54.38 785.05 54.57 785.17
  Q 54.78 785.29 55.05 785.24
  A 0.16 0.10 -46.6 0 1 55.00 785.50
  Q 54.87 785.54 54.74 785.59
  A 0.04 0.04 0.0 0 0 54.74 785.66
  L 55.19 785.81
  A 0.07 0.07 0.0 0 1 55.18 785.95
  L 54.73 786.01
  Q 54.70 786.02 54.69 786.05
  Q 54.18 788.63 51.62 788.09
  Q 51.09 787.98 50.85 787.48
  Q 50.26 786.29 49.11 785.81
  Q 48.49 785.56 49.10 785.29
  Q 49.31 785.20 49.52 785.15
  A 0.08 0.08 0.0 0 0 49.50 785.00
  Q 49.24 785.00 48.97 785.00
  A 0.10 0.10 0.0 0 1 48.96 784.81
  L 49.61 784.72
  Q 50.01 784.67 49.82 784.32
  L 49.36 783.47
  Q 49.07 782.94 48.61 783.34
  L 46.95 784.83
  Q 46.55 785.19 46.51 785.72
  Q 46.46 786.37 47.04 786.75
  A 1.36 1.29 -17.0 0 1 45.74 789.04
  Q 44.61 788.63 43.50 788.98
  A 0.47 0.47 0.0 0 1 42.89 788.52
  Q 42.92 787.06 41.81 786.23
  Q 41.42 785.95 41.29 785.71
  Q 41.11 785.36 41.10 784.86
  A 0.46 0.46 0.0 0 0 40.40 784.48
  L 38.29 785.73
  Q 37.92 785.95 37.52 785.80
  C 34.73 784.79 32.02 783.90 29.04 784.72
  C 27.39 785.18 24.74 784.94 23.45 784.91
  Q 21.82 784.87 20.23 784.51
  Q 20.04 784.47 20.19 784.34
  Q 20.32 784.24 20.43 784.21
  Q 20.53 784.18 20.43 784.15
  Q 16.76 783.08 14.29 785.46
  Q 12.85 786.85 10.64 786.86
  Q 10.17 786.86 10.15 786.38
  Q 10.13 785.74 10.07 784.99
  A 0.44 0.44 0.0 0 0 9.61 784.59
  Q 6.22 784.72 2.92 783.57
  Q 2.71 783.49 2.58 783.68
  L 2.19 784.22
  A 0.31 0.30 52.1 0 1 1.66 784.15
  Q 1.22 783.06 1.56 782.02
  Q 1.70 781.56 1.54 781.11
  Q 1.07 779.85 1.50 778.53
  Q 1.75 777.79 1.41 777.48
  Q 1.11 777.21 1.10 777.61
  L 0.79 789.69
  Q 0.76 790.78 0.29 789.80
  L 0.00 789.18
  L 0.00 687.44
  Q 0.34 684.08 0.50 680.78
  C 1.38 662.75 11.82 650.07 28.46 644.51
  C 61.76 633.39 102.85 631.87 124.68 663.92
  Q 128.32 669.25 133.71 681.71
  Q 180.22 789.05 226.53 896.45
  Q 227.60 898.93 228.53 901.28
  A 0.42 0.42 0.0 0 0 229.28 901.33
  Q 230.48 899.26 231.51 896.97
  Q 278.26 792.37 325.13 687.83
  Q 332.05 672.39 333.55 669.71
  C 353.73 633.70 394.76 631.97 430.15 643.71
  C 455.43 652.10 461.70 666.19 461.72 691.94
  Q 461.80 765.72 461.71 839.50
  Z"
/>
<path fill="#d08b2b" d="
  M 886.01 750.77
  C 886.01 736.17 885.55 721.85 886.52 707.48
  C 888.03 685.28 899.31 670.03 918.06 659.58
  C 941.51 646.52 965.19 643.53 992.32 643.52
  Q 1087.67 643.48 1183.00 643.51
  A 0.50 0.50 0.0 0 1 1183.50 644.01
  L 1183.50 687.27
  A 0.73 0.73 0.0 0 1 1182.77 688.00
  Q 1088.54 688.00 993.98 688.00
  C 974.99 688.00 951.76 690.33 952.20 715.44
  Q 952.43 728.26 952.52 741.09
  C 952.69 766.11 969.13 775.54 992.55 775.49
  Q 1035.15 775.40 1077.75 775.84
  C 1106.29 776.13 1135.55 782.47 1159.18 798.81
  C 1167.71 804.71 1176.39 814.19 1179.40 824.48
  Q 1180.91 829.66 1181.01 841.51
  Q 1181.18 862.13 1180.77 882.73
  Q 1180.58 891.84 1179.08 897.14
  C 1169.46 931.06 1124.61 946.49 1093.90 949.72
  Q 1087.29 950.42 1073.94 950.49
  Q 979.65 950.97 885.67 950.68
  A 0.68 0.68 0.0 0 1 885.00 950.00
  L 885.00 906.98
  A 0.73 0.73 0.0 0 1 885.73 906.25
  Q 976.18 906.25 1067.00 906.25
  C 1081.24 906.25 1096.47 904.21 1107.19 893.98
  C 1112.72 888.70 1113.75 882.97 1113.76 874.86
  Q 1113.77 858.33 1113.72 841.82
  C 1113.71 839.76 1113.05 836.60 1111.91 834.56
  C 1104.12 820.53 1089.07 818.57 1074.73 816.76
  Q 1068.98 816.03 1061.60 816.02
  Q 1026.06 815.96 990.50 815.76
  C 953.38 815.54 885.98 800.40 886.01 750.77
  Z"
/>
<path fill="#d08b2b" d="
  M 1726.99 950.56
  C 1682.35 950.36 1606.92 944.86 1597.23 886.75
  Q 1596.32 881.25 1596.30 866.80
  Q 1596.19 755.40 1596.27 643.99
  A 0.49 0.49 0.0 0 1 1596.76 643.50
  L 1662.49 643.50
  A 0.51 0.51 0.0 0 1 1663.00 644.01
  Q 1663.00 758.27 1663.01 872.75
  C 1663.01 905.69 1695.08 906.18 1718.94 906.21
  Q 1804.97 906.30 1890.98 906.23
  A 0.53 0.52 -90.0 0 1 1891.50 906.76
  L 1891.50 950.24
  A 0.46 0.46 0.0 0 1 1891.04 950.70
  Q 1809.10 950.92 1726.99 950.56
  Z"
/>
<path fill="#d08b2b" d="
  M 1515.66 936.92
  Q 1514.91 937.23 1515.51 937.77
  L 1579.73 995.98
  Q 1580.31 996.50 1579.53 996.50
  L 1503.73 996.50
  A 1.09 1.06 65.5 0 1 1503.01 996.22
  L 1450.74 949.01
  Q 1450.31 948.63 1449.74 948.66
  C 1429.68 949.77 1409.51 951.45 1389.44 951.48
  Q 1355.34 951.54 1321.26 951.47
  Q 1290.59 951.42 1260.58 936.40
  Q 1229.64 920.91 1224.29 888.40
  Q 1223.27 882.21 1223.26 868.45
  Q 1223.22 792.96 1223.29 717.50
  C 1223.34 667.12 1269.95 648.50 1312.09 644.65
  Q 1318.58 644.06 1332.06 644.04
  Q 1392.15 643.96 1452.25 644.12
  C 1492.42 644.23 1545.40 658.46 1553.23 705.05
  Q 1554.23 711.02 1554.31 724.98
  Q 1554.89 824.67 1554.34 879.24
  C 1554.07 906.97 1541.36 926.52 1515.66 936.92
  Z
  M 1350.29 857.25
  L 1425.22 857.25
  A 2.70 2.65 -23.5 0 1 1427.02 857.94
  L 1474.28 900.69
  Q 1474.68 901.06 1475.16 900.80
  Q 1487.08 894.36 1490.72 882.46
  Q 1492.28 877.35 1492.27 863.40
  Q 1492.23 797.62 1492.26 731.82
  Q 1492.26 717.88 1490.70 712.80
  C 1483.78 690.37 1457.22 688.35 1437.69 688.30
  Q 1393.97 688.19 1350.25 688.18
  C 1330.86 688.17 1303.56 691.42 1296.70 712.85
  Q 1295.24 717.40 1295.24 727.29
  Q 1295.26 799.04 1295.25 870.79
  C 1295.25 875.56 1297.83 883.38 1299.88 887.30
  C 1308.25 903.23 1328.03 907.24 1344.25 907.25
  Q 1373.95 907.27 1403.42 907.24
  A 0.37 0.37 0.0 0 0 1403.67 906.60
  L 1350.02 857.94
  A 0.40 0.40 0.0 0 1 1350.29 857.25
  Z"
/>
<path fill="#006b90" d="
  M 394.85 691.50
  L 395.31 853.00
  A 0.09 0.09 0.0 0 0 395.49 853.00
  L 395.50 846.23
  A 0.26 0.26 0.0 0 1 396.00 846.16
  L 396.31 847.20
  A 0.09 0.09 0.0 0 0 396.46 847.24
  L 396.66 847.05
  Q 396.79 846.92 396.83 847.10
  L 396.94 847.65
  A 0.34 0.34 0.0 0 0 397.62 847.58
  L 397.63 841.59
  Q 397.63 841.01 397.04 840.98
  Q 396.68 840.96 396.30 840.91
  Q 395.75 840.83 395.75 840.27
  L 395.75 833.68
  Q 395.75 832.07 396.44 833.53
  Q 397.18 835.10 397.18 836.88
  Q 397.18 837.48 397.67 837.82
  Q 399.64 839.17 399.85 841.63
  A 0.40 0.40 0.0 0 0 400.25 842.00
  L 400.74 842.00
  A 0.13 0.12 43.6 0 1 400.75 842.25
  Q 400.60 842.25 400.48 842.26
  Q 400.32 842.28 400.26 842.43
  L 400.05 842.94
  A 0.06 0.06 0.0 0 0 400.14 843.01
  Q 401.61 842.16 403.48 842.54
  Q 403.72 842.59 403.50 842.71
  L 403.17 842.88
  Q 402.94 843.00 403.20 843.00
  L 403.99 843.00
  A 0.13 0.13 0.0 0 1 404.02 843.25
  Q 403.88 843.29 403.75 843.33
  Q 403.75 843.33 403.84 843.42
  L 405.24 844.72
  Q 405.56 845.02 406.01 845.01
  Q 406.57 845.00 406.74 844.30
  Q 406.75 844.26 406.71 844.25
  L 406.37 844.21
  A 0.05 0.05 0.0 0 1 406.37 844.11
  C 408.03 843.67 409.41 844.84 410.45 844.43
  Q 410.70 844.33 410.88 844.53
  L 412.27 846.02
  A 0.97 0.96 47.8 0 0 413.61 846.09
  Q 415.18 844.72 415.95 844.77
  Q 416.28 844.80 416.55 844.61
  Q 417.47 843.98 418.28 844.08
  Q 418.82 844.15 418.46 844.57
  Q 418.24 844.81 418.51 845.15
  Q 418.74 845.45 418.88 845.77
  Q 419.66 847.56 421.29 846.53
  Q 422.99 845.46 424.51 844.16
  Q 424.87 843.85 425.34 843.91
  C 426.93 844.10 429.14 843.67 430.51 843.98
  A 0.13 0.13 0.0 0 1 430.50 844.24
  L 430.05 844.30
  A 0.12 0.12 0.0 0 0 430.05 844.54
  Q 435.15 845.33 440.31 845.58
  Q 441.01 845.61 441.57 846.02
  Q 441.91 846.28 442.33 846.23
  L 447.29 845.70
  Q 447.85 845.64 448.27 846.01
  C 450.65 848.13 452.79 844.10 455.25 846.58
  Q 455.69 847.03 456.26 846.77
  L 457.00 846.45
  Q 457.25 846.33 456.98 846.30
  Q 456.77 846.27 456.62 846.15
  Q 456.42 845.98 456.68 845.99
  Q 456.88 846.00 457.07 846.00
  Q 457.34 845.99 457.48 845.76
  L 457.82 845.19
  Q 457.97 844.93 458.27 844.95
  Q 458.85 844.97 458.99 845.60
  A 0.32 0.31 40.1 0 0 459.61 845.55
  L 459.64 844.93
  A 0.23 0.23 0.0 0 1 460.10 844.93
  L 460.68 853.18
  A 0.07 0.05 83.7 0 0 460.75 853.25
  Q 460.84 853.22 460.94 853.19
  Q 460.98 853.17 460.98 853.00
  Q 460.98 827.03 461.34 801.06
  Q 461.34 801.06 461.45 801.06
  Q 461.47 801.06 461.50 801.06
  Q 461.56 801.06 461.56 801.12
  L 461.71 839.50
  L 461.74 949.53
  A 1.24 1.24 0.0 0 1 460.50 950.77
  L 395.74 950.72
  A 0.97 0.96 90.0 0 1 394.78 949.75
  L 394.85 691.50
  Z"
/>
<path fill="#006b90" d="
  M 739.18 1043.00
  L 518.36 1043.00
  L 518.30 999.67
  A 0.67 0.67 0.0 0 1 518.97 999.00
  Q 622.01 999.01 725.22 998.99
  C 740.82 998.98 765.65 993.40 766.75 973.52
  Q 767.03 968.52 766.63 949.06
  Q 766.62 948.54 766.11 948.54
  Q 695.02 948.47 624.01 948.33
  Q 600.53 948.28 577.85 942.32
  C 553.53 935.93 524.35 920.65 518.10 894.40
  Q 516.71 888.57 516.87 874.51
  C 517.38 828.83 517.97 783.04 517.06 737.45
  A 0.68 0.68 0.0 0 1 517.74 736.75
  L 582.97 736.75
  A 0.67 0.67 0.0 0 1 583.64 737.42
  C 583.79 784.93 583.47 832.52 583.76 880.14
  Q 583.80 887.56 585.25 891.35
  C 590.13 904.12 607.86 908.16 620.50 908.27
  Q 692.36 908.88 766.61 908.15
  A 0.65 0.65 0.0 0 0 767.25 907.50
  L 767.25 736.27
  A 0.29 0.29 0.0 0 1 767.54 735.98
  L 833.36 735.98
  Q 833.92 735.98 833.96 736.54
  Q 834.13 739.28 834.14 743.56
  C 834.27 825.83 834.36 891.36 834.12 964.02
  Q 834.07 977.89 832.87 983.94
  C 824.59 1025.76 775.41 1040.05 739.18 1043.00
  Z"
/>
<path fill="#006b90" d="
  M 66.26 765.00
  L 66.33 949.72
  Q 66.33 950.72 65.33 950.72
  L 0.00 950.63
  L 0.00 789.18
  L 0.29 789.80
  Q 0.76 790.78 0.79 789.69
  L 1.10 777.61
  Q 1.11 777.21 1.41 777.48
  Q 1.75 777.79 1.50 778.53
  Q 1.07 779.85 1.54 781.11
  Q 1.70 781.56 1.56 782.02
  Q 1.22 783.06 1.66 784.15
  A 0.31 0.30 52.1 0 0 2.19 784.22
  L 2.58 783.68
  Q 2.71 783.49 2.92 783.57
  Q 6.22 784.72 9.61 784.59
  A 0.44 0.44 0.0 0 1 10.07 784.99
  Q 10.13 785.74 10.15 786.38
  Q 10.17 786.86 10.64 786.86
  Q 12.85 786.85 14.29 785.46
  Q 16.76 783.08 20.43 784.15
  Q 20.53 784.18 20.43 784.21
  Q 20.32 784.24 20.19 784.34
  Q 20.04 784.47 20.23 784.51
  Q 21.82 784.87 23.45 784.91
  C 24.74 784.94 27.39 785.18 29.04 784.72
  C 32.02 783.90 34.73 784.79 37.52 785.80
  Q 37.92 785.95 38.29 785.73
  L 40.40 784.48
  A 0.46 0.46 0.0 0 1 41.10 784.86
  Q 41.11 785.36 41.29 785.71
  Q 41.42 785.95 41.81 786.23
  Q 42.92 787.06 42.89 788.52
  A 0.47 0.47 0.0 0 0 43.50 788.98
  Q 44.61 788.63 45.74 789.04
  A 1.36 1.29 -17.0 0 0 47.04 786.75
  Q 46.46 786.37 46.51 785.72
  Q 46.55 785.19 46.95 784.83
  L 48.61 783.34
  Q 49.07 782.94 49.36 783.47
  L 49.82 784.32
  Q 50.01 784.67 49.61 784.72
  L 48.96 784.81
  A 0.10 0.10 0.0 0 0 48.97 785.00
  Q 49.24 785.00 49.50 785.00
  A 0.08 0.08 0.0 0 1 49.52 785.15
  Q 49.31 785.20 49.10 785.29
  Q 48.49 785.56 49.11 785.81
  Q 50.26 786.29 50.85 787.48
  Q 51.09 787.98 51.62 788.09
  Q 54.18 788.63 54.69 786.05
  Q 54.70 786.02 54.73 786.01
  L 55.18 785.95
  A 0.07 0.07 0.0 0 0 55.19 785.81
  L 54.74 785.66
  A 0.04 0.04 0.0 0 1 54.74 785.59
  Q 54.87 785.54 55.00 785.50
  A 0.16 0.10 -46.6 0 0 55.05 785.24
  Q 54.78 785.29 54.57 785.17
  Q 54.38 785.05 54.26 784.81
  Q 53.59 783.44 55.14 783.71
  A 0.76 0.76 0.0 0 1 55.76 784.55
  Q 55.64 785.46 56.47 786.11
  Q 56.85 786.41 56.74 786.88
  Q 56.46 788.02 55.27 788.24
  A 0.69 0.69 0.0 0 0 55.11 789.54
  Q 56.03 789.96 57.06 789.46
  Q 57.42 789.29 57.81 789.38
  Q 58.56 789.57 59.67 789.49
  A 0.69 0.66 10.9 0 0 60.22 789.13
  L 61.54 786.68
  Q 61.80 786.20 62.34 786.30
  L 63.14 786.44
  Q 63.59 786.53 63.66 786.07
  L 64.58 780.02
  Q 64.61 779.79 64.73 780.00
  L 64.96 780.38
  Q 65.04 780.51 65.03 780.67
  Q 64.84 784.87 65.23 789.05
  Q 65.38 790.64 65.44 789.04
  L 66.26 765.00
  Z"
/>
<path fill="#d08b2b" d="
  M 1921.46 914.00
  L 1909.32 914.00
  A 0.57 0.57 0.0 0 1 1908.75 913.43
  L 1908.75 906.82
  A 0.57 0.57 0.0 0 1 1909.32 906.25
  L 1944.09 906.25
  A 0.57 0.57 0.0 0 1 1944.66 906.83
  L 1944.51 913.44
  A 0.57 0.57 0.0 0 1 1943.94 914.00
  L 1932.58 914.00
  A 0.57 0.57 0.0 0 0 1932.01 914.57
  L 1931.98 950.43
  A 0.57 0.57 0.0 0 1 1931.41 951.00
  L 1922.62 951.00
  A 0.57 0.57 0.0 0 1 1922.05 950.43
  L 1922.03 914.57
  A 0.57 0.57 0.0 0 0 1921.46 914.00
  Z"
/>
<path fill="#d08b2b" d="
  M 1991.78 906.25
  L 2004.92 906.25
  A 0.35 0.35 0.0 0 1 2005.27 906.60
  L 2005.20 950.65
  A 0.35 0.35 0.0 0 1 2004.85 951.00
  L 1996.34 951.00
  A 0.35 0.35 0.0 0 1 1995.99 950.65
  L 1996.18 918.90
  A 0.35 0.35 0.0 0 0 1995.50 918.77
  L 1983.46 950.76
  A 0.35 0.35 0.0 0 1 1983.13 950.99
  L 1976.97 951.01
  A 0.35 0.35 0.0 0 1 1976.64 950.78
  L 1964.16 917.37
  A 0.35 0.35 0.0 0 0 1963.48 917.49
  L 1963.51 950.65
  A 0.35 0.35 0.0 0 1 1963.16 951.00
  L 1955.10 951.00
  A 0.35 0.35 0.0 0 1 1954.75 950.65
  L 1954.75 906.60
  A 0.35 0.35 0.0 0 1 1955.10 906.25
  L 1967.84 906.25
  A 0.35 0.35 0.0 0 1 1968.17 906.47
  L 1980.06 936.12
  A 0.35 0.35 0.0 0 0 1980.71 936.11
  L 1991.45 906.48
  A 0.35 0.35 0.0 0 1 1991.78 906.25
  Z"
/>
</svg>
