<?xml version="1.0" encoding="UTF-8" standalone="no"?>
<svg
   version="1.1"
   viewBox="0 0 180 180"
   id="svg4607"
   sodipodi:docname="php_logo.svg"
   width="180"
   height="180"
   inkscape:version="1.2.2 (732a01da63, 2022-12-09, custom)"
   xmlns:inkscape="http://www.inkscape.org/namespaces/inkscape"
   xmlns:sodipodi="http://sodipodi.sourceforge.net/DTD/sodipodi-0.dtd"
   xmlns="http://www.w3.org/2000/svg"
   xmlns:svg="http://www.w3.org/2000/svg">
  <defs
     id="defs4611" />
  <sodipodi:namedview
     id="namedview4609"
     pagecolor="#505050"
     bordercolor="#eeeeee"
     borderopacity="1"
     inkscape:showpageshadow="0"
     inkscape:pageopacity="0"
     inkscape:pagecheckerboard="0"
     inkscape:deskcolor="#505050"
     showgrid="false"
     inkscape:zoom="1.4142136"
     inkscape:cx="56.922096"
     inkscape:cy="93.691648"
     inkscape:window-width="1366"
     inkscape:window-height="704"
     inkscape:window-x="0"
     inkscape:window-y="0"
     inkscape:window-maximized="1"
     inkscape:current-layer="svg4607" />
  <g
     stroke-width="2"
     fill="none"
     stroke-linecap="butt"
     id="g4573"
     transform="matrix(0.4731491,0,0,0.4731491,-87.014995,21.887616)">
    <path
       stroke="#daddea"
       vector-effect="non-scaling-stroke"
       d="M 341.18,35.12 Q 299.92,39.11 262.5,54.5 244.55,61.88 228.67,73.07"
       id="path4525" />
    <path
       stroke="#b6bedc"
       vector-effect="non-scaling-stroke"
       d="M 228.67,73.07 Q 210.14,85.69 198.2,102.99"
       id="path4527" />
    <path
       stroke="#979bab"
       vector-effect="non-scaling-stroke"
       d="m 198.2,102.99 c -29.1,41.98 -6.66,86.22 30.66,111.63 36.69,24.99 79.4,35.15 123.02,38.98 25.72,2.26 50.97,0.25 76.61,-4.05"
       id="path4529" />
    <path
       stroke="#808080"
       vector-effect="non-scaling-stroke"
       d="m 428.49,249.55 c 39.71,-6.7 82.38,-22.51 110.95,-51.86 14.83,-15.25 25.11,-35.98 23.78,-57.72 -2.56,-41.9 -42.51,-70.9 -77.66,-85.55"
       id="path4531" />
    <path
       stroke="#979bab"
       vector-effect="non-scaling-stroke"
       d="M 485.56,54.42 Q 454.89,41.62 421.7,36.91"
       id="path4533" />
    <path
       stroke="#a9afcb"
       vector-effect="non-scaling-stroke"
       d="M 421.7,36.91 Q 399.42,33.63 376.76,32.94"
       id="path4535" />
    <path
       stroke="#b6bedc"
       vector-effect="non-scaling-stroke"
       d="m 376.76,32.94 q -17.75,0.05 -35.58,2.18"
       id="path4537" />
    <path
       stroke="#5f6ea7"
       vector-effect="non-scaling-stroke"
       d="m 376.76,32.94 -0.35,7.16 q -0.03,0.57 0.55,0.59 22.6,0.69 44.72,3.99"
       id="path4539" />
    <path
       stroke="#4e5a88"
       vector-effect="non-scaling-stroke"
       d="m 421.68,44.68 q 32.12,4.7 61.72,17.1"
       id="path4541" />
    <path
       stroke="#363f5c"
       vector-effect="non-scaling-stroke"
       d="m 483.4,61.78 c 34.52,14.33 77.52,45.5 72.52,88.65 -3.09,26.76 -24.48,48.45 -46.38,61.89 -25.14,15.44 -54.13,25.02 -83.64,29.92"
       id="path4543" />
    <path
       stroke="#4e5a88"
       vector-effect="non-scaling-stroke"
       d="m 425.9,242.24 c -58.42,9.45 -123.48,3.9 -176.7,-23.96 -40.51,-21.2 -76.21,-62.93 -45.88,-110.17 q 0.29,-0.46 -0.12,-0.82 l -5,-4.3"
       id="path4545" />
    <path
       stroke="#919cc7"
       vector-effect="non-scaling-stroke"
       d="m 228.67,73.07 2.13,6.44 a 0.62,0.62 0 0 0 0.93,0.32 C 263.3,58.58 300.85,46.96 338.72,43.02 a 0.96,0.95 -12.9 0 0 0.8,-1.27 q -0.32,-0.92 0.45,-1.03 a 0.97,0.96 4.3 0 0 0.78,-0.66 q 0.74,-2.3 0.43,-4.94"
       id="path4547" />
    <path
       stroke="#181b2c"
       vector-effect="non-scaling-stroke"
       d="m 428.49,249.55 0.33,-1.1 q 0.16,-0.53 -0.38,-0.45 l -0.54,0.07 a 0.44,0.44 0 0 1 -0.5,-0.45 q 0.1,-2.73 -1.5,-5.38"
       id="path4549" />
    <path
       stroke="#181b2c"
       vector-effect="non-scaling-stroke"
       d="m 485.56,54.42 q -0.26,3.93 -2.16,7.36"
       id="path4551" />
    <path
       stroke="#414b77"
       vector-effect="non-scaling-stroke"
       d="m 421.7,36.91 -0.02,7.77"
       id="path4553" />
    <path
       stroke="#b6bedc"
       vector-effect="non-scaling-stroke"
       d="m 368.07,115.87 q 9.03,-0.37 18.08,-0.08 c 4.27,0.14 7.21,1.29 6.36,6.21 q -4.69,27.12 -9.44,55.06 a 1.45,1.45 0 0 0 1.43,1.69 h 25.47 a 1.18,1.18 0 0 0 1.17,-1.01 q 4.42,-28.96 8.75,-58.31 2.14,-14.46 -8.34,-21.86 C 400.86,90.01 385.11,92 372.85,92 a 0.83,0.83 0 0 1 -0.82,-0.97 l 4.71,-27.44 A 0.93,0.92 -85 0 0 375.83,62.5 H 350.79 A 0.8,0.8 0 0 0 350,63.16 l -9.96,56.1 a 0.35014283,0.35014283 0 0 1 -0.7,-0.02 C 337.43,101.95 324.72,92.43 308,92.07 296.7,91.82 278.95,91.59 260.42,92.1 q -0.58,0.01 -0.68,0.58 l -20.38,113.98 a 1.35,1.35 0 0 0 1.33,1.59 h 24.32 a 0.98,0.97 -85.1 0 0 0.96,-0.81 l 4.81,-27.87 a 1,1 0 0 1 1,-0.84 c 10.55,0.08 23.86,1.02 32.83,-1.23 12.31,-3.08 22.97,-12.61 28.58,-23.84 a 0.26,0.25 63.2 0 1 0.48,0.16 l -3.93,23.71 q -0.2,1.22 1.04,1.22 h 24.89 a 0.52,0.52 0 0 0 0.51,-0.42 l 11.21,-61.88 a 0.72,0.72 0 0 1 0.68,-0.58"
       id="path4555" />
    <path
       stroke="#b6bedc"
       vector-effect="non-scaling-stroke"
       d="m 430.25,92.34 -20.62,114.88 a 0.87,0.87 0 0 0 0.86,1.03 h 25.23 a 0.57,0.56 4.8 0 0 0.56,-0.47 l 4.92,-28.27 a 0.92,0.9 4.9 0 1 0.9,-0.75 c 10.57,-0.03 23.77,0.95 32.8,-1.29 21.08,-5.23 33.95,-26.71 35.3,-47.34 1.08,-16.5 -4.5,-31.65 -21.38,-36.54 q -5.55,-1.61 -19.85,-1.64 -19.21,-0.05 -38.38,0.11 a 0.35,0.34 5 0 0 -0.34,0.28"
       id="path4557" />
    <path
       stroke="#808080"
       vector-effect="non-scaling-stroke"
       d="m 368.98,93.72 4.77,-27.52 a 0.81,0.81 0 0 0 -0.8,-0.95 h -19.92 a 0.87,0.86 -84.8 0 0 -0.85,0.71 l -19.6,109.54 q -0.09,0.5 0.41,0.5 h 20.52 a 0.7,0.69 4.9 0 0 0.69,-0.57 l 11.11,-61.62 a 1.11,1.1 -84.6 0 1 1.08,-0.9 q 9.78,-0.05 19.98,0.18 c 10.11,0.23 9.18,6.25 7.81,14.38 q -4.04,23.94 -8.14,47.97 -0.09,0.56 0.47,0.56 h 21.73 a 0.49,0.49 0 0 0 0.48,-0.41 q 4.52,-28.64 8.77,-56.83 c 1.87,-12.39 -4.92,-19.53 -15.92,-22.68 q -4.61,-1.32 -7.57,-1.33 -12.24,-0.02 -24.5,-0.39 -0.63,-0.01 -0.52,-0.64"
       id="path4559" />
    <path
       stroke="#808080"
       vector-effect="non-scaling-stroke"
       d="m 269.41,176.22 c 10.62,-0.34 24.12,1.19 34.01,-1.27 24.56,-6.11 36.25,-32.85 33.18,-56.53 C 334.58,102.87 321.71,94.7 306.75,94.7 q -22.12,-0.01 -44.32,0.08 -0.44,0.01 -0.52,0.44 l -19.64,109.74 q -0.1,0.54 0.44,0.54 h 20.49 a 0.65,0.65 0 0 0 0.64,-0.53 l 4.86,-28.13 a 0.76,0.75 -85.7 0 1 0.71,-0.62"
       id="path4561" />
    <path
       stroke="#808080"
       vector-effect="non-scaling-stroke"
       d="m 432.33,95.32 -19.61,109.5 q -0.12,0.68 0.56,0.68 h 20.3 q 0.59,0 0.69,-0.58 l 4.8,-27.85 a 1.04,1.04 0 0 1 1,-0.87 q 10.93,-0.3 22.1,-0.21 c 30.76,0.24 47.11,-26.5 45.13,-54.78 -1.27,-18.26 -14.01,-26.19 -31.05,-26.4 q -21.41,-0.27 -43.1,-0.18 a 0.83,0.83 0 0 0 -0.82,0.69"
       id="path4563" />
    <path
       stroke="#808080"
       vector-effect="non-scaling-stroke"
       d="m 280.16,113.55 -6.47,42.97 a 1.04,1.04 0 0 0 0.99,1.19 c 16.08,0.52 32.6,1.34 37.73,-18.02 7.69,-28.98 -10.03,-27.02 -31.66,-26.66 a 0.62,0.61 -86 0 0 -0.59,0.52"
       id="path4565" />
    <path
       stroke="#808080"
       vector-effect="non-scaling-stroke"
       d="m 450.63,113.5 -6.52,42.97 a 1.1,1.1 0 0 0 1.07,1.27 c 19.07,0.28 33.33,0.98 38.45,-21.11 6.32,-27.28 -15.19,-23.83 -32.45,-23.62 q -0.48,0.01 -0.55,0.49"
       id="path4567" />
    <path
       stroke="#b6bedc"
       vector-effect="non-scaling-stroke"
       d="m 282.68,115.88 c -2.72,12.62 -4.43,25.94 -6.21,38.51 q -0.07,0.53 0.46,0.55 c 14.48,0.57 28.88,0.51 33.25,-16.58 6.58,-25.71 -9.77,-22.68 -27.36,-22.6 a 0.14,0.14 0 0 0 -0.14,0.12"
       id="path4569" />
    <path
       stroke="#b6bedc"
       vector-effect="non-scaling-stroke"
       d="m 452.71,116.27 -5.77,37.95 q -0.07,0.5 0.43,0.56 c 10.76,1.17 25.97,0.71 31.13,-10.78 2.62,-5.82 5.24,-16.57 2.37,-22.23 -4.18,-8.24 -19.79,-6.14 -27.6,-6 q -0.49,0.01 -0.56,0.5"
       id="path4571" />
  </g>
  <path
     fill="#6c7db8"
     d="m 91.248662,37.473147 -0.1656,3.387747 q -0.0141,0.269695 0.26023,0.279158 10.693178,0.326473 21.159218,1.887864 15.19755,2.223801 29.20277,8.09085 c 16.33311,6.780228 36.67852,21.528285 34.31276,41.944669 -1.46202,12.661465 -11.58268,22.924075 -21.94465,29.283195 -11.89497,7.30542 -25.61157,11.83819 -39.57419,14.15662 C 86.857832,140.97451 56.074756,138.34853 30.89376,125.1666 11.72649,115.13584 -5.1649306,95.391327 9.1856794,73.039764 q 0.137223,-0.217647 -0.05678,-0.387983 l -2.365746,-2.03454 Q 12.412553,62.431762 21.180006,56.46062 l 1.007808,3.047081 a 0.29335244,0.29335244 0 0 0 0.440028,0.151409 C 37.565155,49.604692 55.331904,44.106699 73.250062,42.242491 a 0.44949165,0.45422314 77.1 0 0 0.37852,-0.600899 q -0.15141,-0.435297 0.21291,-0.487343 a 0.45895463,0.45422314 4.3 0 0 0.36906,-0.312279 q 0.35013,-1.088243 0.20345,-2.337356 8.43625,-1.007807 16.83465,-1.031465 z m -4.11167,39.238254 q 4.27254,-0.17506 8.55454,-0.03786 c 2.02034,0.06625 3.4114,0.610364 3.00923,2.938256 q -2.21907,12.831804 -4.46653,26.051593 a 0.6860662,0.6860662 0 0 0 0.6766,0.79962 h 12.051108 a 0.55831593,0.55831593 0 0 0 0.55358,-0.47788 q 2.09132,-13.7024 4.14006,-27.589326 1.01255,-6.841736 -3.94607,-10.343039 c -5.05796,-3.577008 -12.510058,-2.63544 -18.310868,-2.63544 a 0.39271376,0.39271376 0 0 1 -0.38798,-0.458955 l 2.22854,-12.983211 a 0.43529718,0.44002867 5 0 0 -0.43057,-0.515726 h -11.84766 a 0.37851927,0.37851927 0 0 0 -0.37378,0.312278 l -4.71257,26.543665 a 0.16566976,0.16566976 0 0 1 -0.3312,-0.0094 c -0.90372,-8.180709 -6.91744,-12.685089 -14.82849,-12.855424 -5.34659,-0.118294 -13.744985,-0.227111 -22.512439,0.01415 q -0.274426,0.0048 -0.321742,0.274427 l -9.642777,53.929531 a 0.63875127,0.63875127 0 0 0 0.629288,0.75231 h 11.506987 a 0.45895463,0.46368612 4.9 0 0 0.454222,-0.38325 l 2.275846,-13.18667 a 0.4731491,0.4731491 0 0 1 0.47315,-0.39744 c 4.991722,0.0379 11.289337,0.48261 15.533485,-0.58198 5.82446,-1.4573 10.86824,-5.966407 13.5226,-11.279872 a 0.12301876,0.11828727 63.2 0 1 0.22711,0.07571 l -1.85947,11.218362 q -0.0946,0.57725 0.49207,0.57725 h 11.77668 a 0.24603753,0.24603753 0 0 0 0.24131,-0.19873 l 5.304,-29.278471 a 0.34066734,0.34066734 0 0 1 0.32174,-0.274427 z m 29.420398,-11.133199 -9.75632,54.355368 a 0.41163972,0.41163972 0 0 0 0.40691,0.48735 h 11.93755 a 0.26969499,0.26496349 4.8 0 0 0.26496,-0.22238 l 2.3279,-13.37593 a 0.43529718,0.4258342 4.9 0 1 0.42583,-0.35486 c 5.0012,-0.0142 11.24675,0.44949 15.5193,-0.61036 9.97397,-2.47457 16.0634,-12.637816 16.70215,-22.398883 0.51101,-7.80696 -2.12917,-14.975168 -10.11592,-17.288868 q -2.62597,-0.76177 -9.39201,-0.775965 -9.08919,-0.02365 -18.15947,0.05204 a 0.16560219,0.1608707 5 0 0 -0.1608,0.13248 z"
     id="path4577"
     style="stroke-width:0.473149" />
  <path
     fill="#525f96"
     d="m 91.248662,37.473147 q 10.721558,0.326473 21.263308,1.878402 l -0.01,3.676367 q -10.46555,-1.561391 -21.158718,-1.887864 -0.27443,-0.0095 -0.26024,-0.279158 z"
     id="path4579"
     style="stroke-width:0.473149" />
  <path
     fill="#b5bbd5"
     d="m 74.414012,38.504612 q 0.14669,1.249113 -0.20345,2.337356 a 0.45895463,0.45422314 4.3 0 1 -0.36906,0.312279 q -0.36432,0.05205 -0.21292,0.487343 a 0.44949165,0.45422314 77.1 0 1 -0.37852,0.600899 C 55.331912,44.106697 37.565163,49.60469 22.627845,59.659108 a 0.29335244,0.29335244 0 0 1 -0.440028,-0.151409 l -1.007808,-3.047081 q 7.513607,-5.294539 16.006634,-8.786378 17.705239,-7.281765 37.227369,-9.16963 z"
     id="path4581"
     style="stroke-width:0.473149" />
  <path
     fill="#2f3657"
     d="m 112.51197,39.351549 q 15.70382,2.228532 30.21532,8.28484 -0.12314,1.859477 -1.02201,3.482377 -14.00522,-5.867049 -29.20277,-8.09085 z"
     id="path4583"
     style="stroke-width:0.473149" />
  <path
     fill="#000000"
     d="m 142.72729,47.636389 c 16.63118,6.931635 35.53349,20.652959 36.74474,40.477907 0.62931,10.286261 -4.23468,20.094644 -11.25147,27.310164 -13.51787,13.88693 -33.70714,21.36741 -52.49591,24.53751 l 0.15622,-0.52046 q 0.0757,-0.25077 -0.17973,-0.21292 l -0.25549,0.0331 a 0.20818561,0.20818561 0 0 1 -0.23659,-0.21292 q 0.0474,-1.2917 -0.70972,-2.54554 c 13.96262,-2.31843 27.67922,-6.8512 39.57419,-14.15662 10.36197,-6.35912 20.48263,-16.62173 21.94465,-29.283199 2.36562,-20.41638 -17.97979,-35.164437 -34.3129,-41.944665 q 0.89897,-1.6229 1.02201,-3.482377 z"
     id="path4585"
     style="stroke-width:0.473149" />
  <path
     fill="#ffffff"
     d="m 86.815252,76.985827 -5.304,29.278463 a 0.24603753,0.24603753 0 0 1 -0.24131,0.19873 h -11.77668 q -0.5867,0 -0.49207,-0.57724 l 1.85947,-11.218364 a 0.12301876,0.11828727 63.2 0 0 -0.22711,-0.07571 c -2.65436,5.313465 -7.69814,9.822574 -13.5226,11.279874 -4.244148,1.06459 -10.541763,0.61983 -15.533485,0.58197 a 0.4731491,0.4731491 0 0 0 -0.47315,0.39745 l -2.275846,13.18666 a 0.45895463,0.46368612 4.9 0 1 -0.454222,0.38325 H 26.867262 a 0.63875127,0.63875127 0 0 1 -0.629288,-0.75231 l 9.642777,-53.929531 q 0.04732,-0.269694 0.321742,-0.274426 c 8.767454,-0.241306 17.165849,-0.132481 22.512439,-0.01415 7.91105,0.170337 13.92477,4.674715 14.82849,12.855461 a 0.16566976,0.16566976 0 0 0 0.3312,0.0094 l 4.71257,-26.543665 a 0.37851927,0.37851927 0 0 1 0.37378,-0.312278 h 11.84766 a 0.43529718,0.44002867 5 0 1 0.43057,0.515732 l -2.22854,12.983212 a 0.39271376,0.39271376 0 0 0 0.38798,0.458954 c 5.80081,0 13.252908,-0.941568 18.310868,2.63544 q 4.95862,3.501304 3.94607,10.343039 -2.04874,13.886927 -4.14006,27.589322 a 0.55831593,0.55831593 0 0 1 -0.55358,0.47788 H 94.910832 a 0.6860662,0.6860662 0 0 1 -0.6766,-0.79962 q 2.24746,-13.219784 4.46653,-26.051589 c 0.40217,-2.327892 -0.98889,-2.872015 -3.00923,-2.938255 q -4.282,-0.137203 -8.55454,0.03786 a 0.34066734,0.34066734 0 0 0 -0.32174,0.274427 z m 0.75231,-10.754678 2.25692,-13.021063 a 0.38325076,0.38325076 0 0 0 -0.37852,-0.449492 h -9.42513 a 0.40690823,0.41163972 5.2 0 0 -0.40218,0.335937 l -9.27372,51.828749 q -0.0426,0.23658 0.19399,0.23658 h 9.70902 a 0.33120436,0.32647287 4.9 0 0 0.32647,-0.2697 l 5.25669,-29.155446 a 0.52046401,0.5251955 5.4 0 1 0.511,-0.425834 q 4.6274,-0.02365 9.45352,0.08516 c 4.783528,0.108829 4.343508,2.957182 3.69529,6.803884 q -1.91152,11.327189 -3.85143,22.696966 -0.0426,0.26496 0.22238,0.26496 h 10.281528 a 0.23184306,0.23184306 0 0 0 0.22711,-0.19399 q 2.13864,-13.55099 4.14952,-26.889063 c 0.88479,-5.862316 -2.32789,-9.240602 -7.53253,-10.731021 q -2.18122,-0.62455 -3.581738,-0.629283 -5.79135,-0.0094 -11.59216,-0.184523 -0.29808,-0.0048 -0.24603,-0.302816 z M 40.456103,105.26595 c 5.024844,-0.16087 11.412357,0.56305 16.091799,-0.6009 11.62055,-2.89094 17.15166,-15.542948 15.69909,-26.747119 -0.95576,-7.357468 -7.04519,-11.223095 -14.1235,-11.223095 q -10.46606,-0.0048 -20.969968,0.03786 -0.208187,0.0048 -0.246038,0.208185 l -9.292648,51.923379 q -0.04732,0.2555 0.208185,0.2555 h 9.694824 a 0.30754691,0.30754691 0 0 0 0.302816,-0.25077 l 2.299505,-13.30968 a 0.35486182,0.35959331 4.3 0 1 0.335935,-0.29336 z"
     id="path4587"
     style="stroke-width:0.473149" />
  <path
     fill="#000000"
     d="m 87.813592,66.533965 q 5.80081,0.175059 11.59216,0.184524 1.400518,0.0048 3.581738,0.629288 c 5.20464,1.490419 8.41732,4.868705 7.53253,10.731021 q -2.01088,13.338073 -4.14952,26.889062 a 0.23184306,0.23184306 0 0 1 -0.22711,0.19399 H 95.861862 q -0.26496,0 -0.22238,-0.26496 1.93991,-11.369776 3.85143,-22.696965 c 0.648218,-3.846702 1.088248,-6.695059 -3.69529,-6.803884 q -4.82612,-0.10883 -9.45352,-0.08516 a 0.52046401,0.5251955 5.4 0 0 -0.511,0.425834 l -5.25669,29.155445 a 0.33120436,0.32647287 4.9 0 1 -0.32647,0.2697 h -9.70902 q -0.23657,0 -0.19399,-0.23658 l 9.27373,-51.828748 a 0.40690823,0.41163972 5.2 0 1 0.40217,-0.335937 h 9.42513 a 0.38325076,0.38325076 0 0 1 0.37852,0.449492 l -2.25692,13.021063 q -0.0521,0.298083 0.24604,0.302816 z"
     id="path4589"
     style="stroke-width:0.473149" />
  <path
     fill="#ffffff"
     d="m 116.55739,65.578202 a 0.16560219,0.1608707 5 0 1 0.1608,-0.13248 q 9.07028,-0.07569 18.15947,-0.05204 6.76604,0.01415 9.39201,0.775965 c 7.98675,2.3137 10.62693,9.481908 10.11592,17.288868 -0.63875,9.761067 -6.72818,19.924305 -16.70215,22.398875 -4.27255,1.05986 -10.5181,0.59617 -15.5193,0.61037 a 0.43529718,0.4258342 4.9 0 0 -0.42583,0.35486 l -2.3279,13.37592 a 0.26969499,0.26496349 4.8 0 1 -0.26496,0.22238 H 107.2079 a 0.41163972,0.41163972 0 0 1 -0.40691,-0.48734 z m 0.98417,1.409985 -9.27846,51.809823 q -0.0568,0.32175 0.26496,0.32175 h 9.60493 q 0.27917,0 0.32647,-0.27443 l 2.27111,-13.1772 a 0.49207506,0.49207506 0 0 1 0.47316,-0.41164 q 5.17153,-0.14195 10.45659,-0.0994 c 14.55407,0.11354 22.29005,-12.538459 21.35322,-25.919117 -0.60089,-8.639701 -6.62881,-12.391774 -14.69127,-12.491136 q -10.13013,-0.127758 -20.39273,-0.08516 a 0.39271376,0.39271376 0 0 0 -0.38798,0.326472 z"
     id="path4591"
     style="stroke-width:0.473149" />
  <path
     fill="#000000"
     d="m 40.120168,105.5593 -2.299505,13.30969 a 0.30754691,0.30754691 0 0 1 -0.302816,0.25077 h -9.694824 q -0.2555,0 -0.208185,-0.25551 l 9.292648,-51.923378 q 0.03786,-0.203453 0.246038,-0.208185 10.503908,-0.04258 20.969968,-0.03786 c 7.07831,0 13.16774,3.865627 14.1235,11.223095 1.45257,11.204171 -4.07854,23.856178 -15.69909,26.747118 -4.679442,1.16395 -11.066955,0.44003 -16.091799,0.6009 a 0.35486182,0.35959331 4.3 0 0 -0.335935,0.29335 z m 5.422289,-29.945604 -3.061276,20.331217 a 0.49207506,0.49207506 0 0 0 0.468419,0.563046 c 7.608236,0.246038 15.424662,0.63402 17.851912,-8.526146 3.63852,-13.71186 -4.745683,-12.784489 -14.979898,-12.614155 a 0.28862095,0.29335244 4 0 0 -0.279157,0.246038 z"
     id="path4593"
     style="stroke-width:0.473149" />
  <path
     fill="#000000"
     d="m 117.54156,66.988187 a 0.39271376,0.39271376 0 0 1 0.38798,-0.326472 q 10.2626,-0.04258 20.39273,0.08516 c 8.06246,0.09937 14.09038,3.851435 14.69127,12.491136 0.93683,13.380658 -6.79915,26.032669 -21.35322,25.919109 q -5.28506,-0.0426 -10.45659,0.0994 a 0.49207506,0.49207506 0 0 0 -0.47316,0.41164 l -2.27111,13.1772 q -0.0472,0.27443 -0.32647,0.27443 h -9.60493 q -0.32174,0 -0.26496,-0.32174 z m 8.65862,8.601852 -3.08493,20.331215 a 0.52046401,0.52046401 0 0 0 0.50627,0.600899 c 9.02295,0.13248 15.77005,0.463687 18.19257,-9.988176 2.99032,-12.907509 -7.18712,-11.275143 -15.35368,-11.175781 q -0.2271,0.0048 -0.26023,0.231843 z"
     id="path4595"
     style="stroke-width:0.473149" />
  <path
     fill="#2f3657"
     d="m 6.7631564,70.617241 2.365746,2.03454 q 0.193988,0.170338 0.05678,0.387983 c -14.350618,22.351563 2.5408026,42.096076 21.7080726,52.126836 25.180996,13.18193 55.964067,15.80791 83.605435,11.33665 q 0.75704,1.25385 0.70972,2.54554 a 0.20818561,0.20818561 0 0 0 0.23659,0.21292 l 0.25549,-0.0331 q 0.2555,-0.0378 0.17973,0.21292 l -0.1562,0.52046 c -12.13141,2.03454 -24.078418,2.98557 -36.247808,1.91626 C 58.837942,140.06606 38.629749,135.25887 21.269908,123.43488 3.6119844,111.41216 -7.0054816,90.480041 6.7631564,70.617241 Z"
     id="path4597"
     style="stroke-width:0.473149" />
  <path
     fill="#ffffff"
     d="m 45.542457,75.613696 a 0.28862095,0.29335244 4 0 1 0.279157,-0.246038 C 56.055829,75.19732 64.440032,74.269953 60.801512,87.981813 58.374262,97.141979 50.557836,96.753997 42.9496,96.507959 a 0.49207506,0.49207506 0 0 1 -0.468419,-0.563046 z m 1.192336,1.102437 c -1.286967,5.971142 -2.096051,12.273488 -2.938256,18.220972 q -0.03311,0.25077 0.217647,0.260232 c 6.8512,0.269695 13.664548,0.241306 15.732208,-7.844812 3.11332,-12.164663 -4.622666,-10.731021 -12.945359,-10.69317 a 0.06624087,0.06624087 0 0 0 -0.06623,0.05679 z"
     id="path4599"
     style="stroke-width:0.473149" />
  <path
     fill="#ffffff"
     d="m 126.20018,75.590039 q 0.0331,-0.227113 0.26023,-0.231843 c 8.16656,-0.09937 18.344,-1.731728 15.35368,11.175781 -2.42252,10.451863 -9.16962,10.120658 -18.19257,9.988176 a 0.52046401,0.52046401 0 0 1 -0.50627,-0.600899 z m 0.98414,1.310622 -2.73006,17.956009 q -0.0331,0.236574 0.20346,0.264963 c 5.09109,0.553585 12.28768,0.335936 14.72913,-5.100547 1.23964,-2.753727 2.47931,-7.840081 1.12137,-10.518105 -1.97778,-3.898748 -9.36364,-2.905136 -13.05892,-2.838894 q -0.23184,0.0048 -0.26498,0.236574 z"
     id="path4601"
     style="stroke-width:0.473149" />
  <path
     fill="#6c7db8"
     d="m 46.734793,76.716133 a 0.06624087,0.06624087 0 0 1 0.06623,-0.05679 c 8.322693,-0.03786 16.058679,-1.471493 12.945359,10.69317 -2.06766,8.086118 -8.881008,8.114507 -15.732208,7.844812 q -0.250768,-0.0094 -0.217647,-0.260232 c 0.842205,-5.947484 1.651289,-12.24983 2.938256,-18.220972 z"
     id="path4603"
     style="stroke-width:0.473149" />
  <path
     fill="#6c7db8"
     d="m 127.18432,76.900661 q 0.0331,-0.231844 0.26498,-0.236574 c 3.69528,-0.06625 11.08114,-1.059854 13.05892,2.838894 1.35794,2.678024 0.11835,7.764378 -1.12137,10.518105 -2.44145,5.436483 -9.63804,5.654132 -14.72913,5.100547 q -0.23657,-0.02839 -0.20346,-0.264963 z"
     id="path4605"
     style="stroke-width:0.473149" />
</svg>
