<?xml version="1.0" encoding="UTF-8" standalone="no"?>
<svg
   version="1.1"
   viewBox="0 0 180 180"
   id="svg256"
   sodipodi:docname="postman_logo.svg"
   width="180"
   height="180"
   inkscape:version="1.2.2 (732a01da63, 2022-12-09, custom)"
   xmlns:inkscape="http://www.inkscape.org/namespaces/inkscape"
   xmlns:sodipodi="http://sodipodi.sourceforge.net/DTD/sodipodi-0.dtd"
   xmlns="http://www.w3.org/2000/svg"
   xmlns:svg="http://www.w3.org/2000/svg">
  <defs
     id="defs260" />
  <sodipodi:namedview
     id="namedview258"
     pagecolor="#505050"
     bordercolor="#eeeeee"
     borderopacity="1"
     inkscape:showpageshadow="0"
     inkscape:pageopacity="0"
     inkscape:pagecheckerboard="0"
     inkscape:deskcolor="#505050"
     showgrid="false"
     inkscape:zoom="2.3619848"
     inkscape:cx="69.221446"
     inkscape:cy="101.39778"
     inkscape:window-width="1366"
     inkscape:window-height="704"
     inkscape:window-x="0"
     inkscape:window-y="0"
     inkscape:window-maximized="1"
     inkscape:current-layer="svg256" />
  <g
     stroke-width="2"
     fill="none"
     stroke-linecap="butt"
     id="g218"
     transform="matrix(0.44974285,0,0,0.44974285,-52.537336,0)">
    <path
       stroke="#feb69a"
       vector-effect="non-scaling-stroke"
       d="m 430.22,81.6 c -24.06,-19.2 -57.76,5.94 -47.26,33.78 6.41,16.98 24.54,24.37 41.09,17.31 a 0.36,0.36 0 0 0 0.12,-0.58 l -21.05,-21.28 a 0.9,0.9 0 0 1 0,-1.26 l 27.15,-27.19 q 0.42,-0.41 -0.05,-0.78"
       id="path198" />
    <path
       stroke="#feb69a"
       vector-effect="non-scaling-stroke"
       d="m 433.04,85.35 -24.03,24.02 a 0.86,0.86 0 0 0 0,1.22 l 18.53,18.69 a 1.53,1.53 0 0 0 2.07,0.1 c 13.75,-11.35 16.24,-30.42 4.68,-43.98 q -0.6,-0.7 -1.25,-0.05"
       id="path200" />
    <path
       stroke="#feb69a"
       vector-effect="non-scaling-stroke"
       d="m 299.97,204.3 c 24.32,-24.29 47.64,-48.39 73.03,-72.9 3.15,-3.04 5.6,-4.74 9.75,-4.68 a 0.31,0.31 0 0 0 0.2,-0.55 c -11.47,-9.53 -24.46,-2.25 -34.4,4.88 -22.81,16.36 -43.99,37.43 -64.23,57.59 q -0.38,0.37 0,0.75 l 14.7,14.9 a 0.68,0.66 45 0 0 0.95,0.01"
       id="path202" />
    <path
       stroke="#feb69a"
       vector-effect="non-scaling-stroke"
       d="m 374.91,135.47 c -23.86,23.84 -48.58,47.32 -71.75,71.79 q -0.37,0.4 0.01,0.79 l 8.88,8.88 a 0.48,0.47 -43.6 0 0 0.64,0.01 q 36.77,-32.45 73.55,-64.71 5.43,-4.77 6.73,-7.17 c 4.05,-7.51 -3.47,-16.25 -11.72,-14.02 q -2.62,0.72 -6.34,4.43"
       id="path204" />
    <path
       stroke="#feb69a"
       vector-effect="non-scaling-stroke"
       d="m 394.32,150.78 -78.69,69.11 q -0.43,0.37 -0.03,0.78 l 12.86,13.14 q 0.47,0.48 0.94,0.02 c 18.01,-17.21 35.12,-33.94 50.65,-53.77 q 10.14,-12.94 14.63,-27.32 0.36,-1.14 0.3,-1.7 -0.07,-0.78 -0.66,-0.26"
       id="path206" />
    <path
       stroke="#feb69a"
       vector-effect="non-scaling-stroke"
       d="m 280.32,192.56 -19.1,18.99 a 1.23,1.23 0 0 0 1.12,2.07 l 32.15,-6.93 q 0.68,-0.15 0.19,-0.63 l -13.49,-13.5 q -0.44,-0.43 -0.87,0"
       id="path208" />
    <path
       stroke="#feb69a"
       vector-effect="non-scaling-stroke"
       d="m 288.95,221.43 a 0.97,0.95 64.2 0 0 -0.27,0.8 q 0.12,0.87 0.81,0.73 8.78,-1.79 17.7,-3.71 a 0.34,0.34 0 0 0 0.16,-0.58 l -7.28,-7.24 a 0.81,0.8 -44.7 0 0 -1.13,0 l -9.99,10"
       id="path210" />
    <path
       stroke="#feb69a"
       vector-effect="non-scaling-stroke"
       d="m 219.08,292.28 19.89,19.95 q 1.17,1.18 2.4,0.05 1.09,-0.99 0.79,-2.26 -1.69,-7.23 -3.18,-14.51 -0.59,-2.88 1.57,-3.97 c 31.04,-15.69 58.96,-32.28 84.72,-53.96 a 0.61,0.61 0 0 0 0.04,-0.9 l -13.49,-13.49 a 1.56,1.56 0 0 0 -1.43,-0.42 q -13.39,2.86 -26.48,5.55 -2.32,0.48 -3.35,1.51 -30.71,30.68 -61.48,61.47 a 0.69,0.69 0 0 0 0,0.98"
       id="path212" />
    <path
       stroke="#feb69a"
       vector-effect="non-scaling-stroke"
       d="m 199.96,312.3 34.82,2.44 q 0.89,0.06 0.26,-0.57 l -18.98,-18.99 a 0.62,0.62 0 0 0 -0.88,0 l -15.73,15.75 a 0.81,0.8 -65.6 0 0 0.51,1.37"
       id="path214" />
    <path
       stroke="#feb69a"
       vector-effect="non-scaling-stroke"
       d="m 430.12,101.47 a 1.14,1.14 0 0 0 -0.15,1.24 q 2.38,4.82 -0.92,8.99 a 1.89,1.88 -60.8 0 0 0.83,2.95 c 5.62,2.04 6.13,-8.8 5.26,-11.82 -0.78,-2.69 -2.89,-3.86 -5.02,-1.36"
       id="path216" />
  </g>
  <path
     fill="#fd6c35"
     d="m 86.685058,0 h 5.73422 c 2.9773,0.27884056 6.25142,0.36878913 8.936392,0.71958855 C 157.7894,8.0998686 192.98628,64.358201 175.47779,118.28237 163.75749,154.37423 129.31169,179.64528 91.249948,179.99608 50.831558,180.36936 14.609268,154.04592 3.4871276,114.88681 -11.543272,61.974563 23.622118,8.0818789 78.072488,0.77805511 80.627018,0.43625056 83.815698,0.3013277 86.685058,0 Z m 54.265972,36.699016 c -10.82081,-8.635063 -25.97714,2.671472 -21.25484,15.192313 2.88284,7.636633 11.03669,10.960233 18.47993,7.785049 a 0.16190742,0.16190742 0 0 0 0.054,-0.260851 l -9.46709,-9.570528 a 0.40476856,0.40476856 0 0 1 0,-0.566676 l 12.21052,-12.228508 q 0.18889,-0.184395 -0.0225,-0.350799 z m 1.26828,1.686535 -10.80733,10.802823 a 0.38677884,0.38677884 0 0 0 0,0.548687 l 8.33374,8.405693 a 0.68810655,0.68810655 0 0 0 0.93097,0.04498 c 6.18396,-5.104581 7.30382,-13.681177 2.1048,-19.77969 q -0.26985,-0.31482 -0.56218,-0.02249 z M 82.372028,91.882463 C 93.309768,80.958209 103.79777,70.119407 115.21674,59.09621 c 1.41669,-1.367219 2.51857,-2.131782 4.385,-2.104797 a 0.13942028,0.13942028 0 0 0 0.09,-0.247358 C 114.53319,52.458006 108.69103,55.732133 104.22058,58.938799 93.961938,66.296593 84.436398,75.772675 75.333598,84.83949 q -0.1709,0.166405 0,0.337307 l 6.61122,6.701169 a 0.30582513,0.29683028 45 0 0 0.42726,0.0045 z m 33.703732,-30.9558 C 105.34489,71.648532 94.227248,82.208494 83.806698,93.213702 q -0.1664,0.179897 0.005,0.355296 l 3.99372,3.993716 a 0.21137914,0.21587656 46.4 0 0 0.28783,0.0045 Q 104.6303,82.97306 121.17185,68.464355 q 2.44209,-2.145274 3.02676,-3.224656 c 1.82146,-3.377569 -1.56061,-7.308321 -5.27099,-6.305395 q -1.17832,0.323815 -2.85136,1.992361 z m 8.72951,6.885563 -35.390272,31.081728 q -0.19339,0.166404 -0.0135,0.350799 l 5.7837,5.909617 q 0.21138,0.21588 0.42276,0.009 C 103.70782,97.423295 111.40293,89.899097 118.38744,80.980697 q 4.56039,-5.819673 6.57973,-12.286975 0.16191,-0.512707 0.13492,-0.764563 -0.0315,-0.3508 -0.29682,-0.116933 z m -51.270692,18.790256 -8.59009,8.540616 a 0.5531837,0.5531837 0 0 0 0.50371,0.930968 l 14.45924,-3.116718 q 0.30582,-0.06746 0.0855,-0.283338 l -6.06703,-6.071528 q -0.19789,-0.19339 -0.39128,0 z m 3.88128,12.984076 a 0.43625056,0.4272557 64.2 0 0 -0.12143,0.359794 q 0.054,0.391278 0.36429,0.328318 3.94874,-0.805046 7.96045,-1.668552 a 0.15291257,0.15291257 0 0 0 0.072,-0.26085 l -3.27412,-3.256139 a 0.35979428,0.3642917 45.3 0 0 -0.5082,0 z m -31.42354,31.864282 8.94539,8.97237 q 0.5262,0.5307 1.07939,0.0225 0.49022,-0.44525 0.35529,-1.01642 -0.76006,-3.25164 -1.43018,-6.52577 -0.26534,-1.29526 0.70609,-1.78548 c 13.96002,-7.05647 26.51684,-14.5177 38.10222,-24.26812 a 0.27434314,0.27434314 0 0 0 0.018,-0.40478 l -6.06703,-6.06702 a 0.70159883,0.70159883 0 0 0 -0.64314,-0.1889 q -6.02205,1.28627 -11.90919,2.49608 -1.0434,0.21587 -1.50664,0.67911 -13.8116,13.79811 -27.65019,27.64569 a 0.31032256,0.31032256 0 0 0 0,0.44075 z m -8.59908,9.00385 15.66005,1.09737 q 0.40027,0.027 0.11694,-0.25635 l -8.53613,-8.54062 a 0.27884056,0.27884056 0 0 0 -0.39577,0 l -7.07446,7.08345 a 0.35979428,0.3642917 24.4 0 0 0.22937,0.61615 z"
     id="path220"
     style="stroke-width:0.449743" />
  <path
     fill="#ffffff"
     d="m 119.69619,51.891329 c -4.7223,-12.520841 10.43403,-23.827376 21.25484,-15.192313 q 0.21138,0.166404 0.0225,0.350799 l -12.21052,12.228508 a 0.40476856,0.40476856 0 0 0 0,0.566676 l 9.46709,9.570528 a 0.16190742,0.16190742 0 0 1 -0.054,0.260851 c -7.44324,3.175184 -15.59709,-0.148416 -18.47993,-7.785049 z"
     id="path222"
     style="stroke-width:0.449743" />
  <path
     fill="#ffffff"
     d="m 142.21931,38.385551 q 0.29233,-0.292332 0.56218,0.02249 c 5.19902,6.098513 4.07916,14.675109 -2.1048,19.77969 a 0.68810655,0.68810655 0 0 1 -0.93097,-0.04498 l -8.33374,-8.405693 a 0.38677884,0.38677884 0 0 1 0,-0.548687 z m -1.31325,7.249855 a 0.51270684,0.51270684 0 0 0 -0.0675,0.557681 q 1.07039,2.167761 -0.41377,4.043189 a 0.84551654,0.85001398 29.2 0 0 0.37329,1.326741 c 2.52756,0.917475 2.75692,-3.957737 2.36565,-5.315961 -0.3508,-1.209808 -1.29976,-1.736007 -2.25771,-0.61165 z"
     id="path224"
     style="stroke-width:0.449743" />
  <path
     fill="#fd6c35"
     d="m 140.90606,45.635406 c 0.95795,-1.124357 1.90691,-0.598158 2.25771,0.61165 0.39127,1.358224 0.16191,6.233436 -2.36565,5.315961 a 0.84551654,0.85001398 29.2 0 1 -0.37329,-1.326741 q 1.48416,-1.875428 0.41377,-4.043189 a 0.51270684,0.51270684 0 0 1 0.0675,-0.557681 z"
     id="path226"
     style="stroke-width:0.449743" />
  <path
     fill="#ffffff"
     d="M 115.21674,59.09621 C 103.79777,70.119407 93.309768,80.958209 82.372028,91.882463 a 0.30582513,0.29683028 45 0 1 -0.42726,-0.0045 l -6.61122,-6.701169 q -0.1709,-0.170902 0,-0.337307 c 9.1028,-9.066815 18.62834,-18.542897 28.886982,-25.900691 4.47045,-3.206666 10.31261,-6.480793 15.47116,-2.194744 a 0.13942028,0.13942028 0 0 1 -0.09,0.247358 c -1.86643,-0.02699 -2.96831,0.737578 -4.385,2.104797 z"
     id="path228"
     style="stroke-width:0.449743" />
  <path
     fill="#ffffff"
     d="M 83.806698,93.213702 C 94.227248,82.208494 105.34489,71.648532 116.07576,60.926663 q 1.67304,-1.668546 2.85136,-1.992361 c 3.71038,-1.002926 7.09245,2.927826 5.27099,6.305395 q -0.58467,1.079382 -3.02676,3.224656 -16.54155,14.508705 -33.078602,29.102859 a 0.21137914,0.21587656 46.4 0 1 -0.28783,-0.0045 l -3.99372,-3.993716 q -0.1709,-0.175399 -0.005,-0.355296 z"
     id="path230"
     style="stroke-width:0.449743" />
  <path
     fill="#ffffff"
     d="m 124.80527,67.812226 q 0.26534,-0.233867 0.29682,0.116933 0.027,0.251856 -0.13492,0.764563 -2.01934,6.467302 -6.57973,12.286975 c -6.98451,8.9184 -14.67962,16.442598 -22.779482,24.182673 q -0.21138,0.20688 -0.42276,-0.009 l -5.7837,-5.909617 q -0.17989,-0.184395 0.0135,-0.350799 z"
     id="path232"
     style="stroke-width:0.449743" />
  <path
     fill="#ffffff"
     d="m 73.534578,86.602482 q 0.19339,-0.19339 0.39128,0 l 6.06703,6.071528 q 0.22037,0.215877 -0.0855,0.283338 l -14.45924,3.116718 a 0.5531837,0.5531837 0 0 1 -0.50371,-0.930968 z"
     id="path234"
     style="stroke-width:0.449743" />
  <path
     fill="#ffffff"
     d="m 77.415858,99.586558 4.49294,-4.497429 a 0.35979428,0.3642917 45.3 0 1 0.5082,0 l 3.27412,3.256139 a 0.15291257,0.15291257 0 0 1 -0.072,0.26085 q -4.01171,0.863506 -7.96045,1.668552 -0.31033,0.063 -0.36429,-0.328318 a 0.43625056,0.4272557 64.2 0 1 0.12143,-0.359794 z"
     id="path236"
     style="stroke-width:0.449743" />
  <path
     fill="#ffffff"
     d="m 54.937708,140.42321 -8.94539,-8.97237 a 0.31032256,0.31032256 0 0 1 0,-0.44075 q 13.83859,-13.84758 27.65019,-27.64569 0.46324,-0.46324 1.50664,-0.67911 5.88714,-1.20981 11.90919,-2.49608 a 0.70159883,0.70159883 0 0 1 0.64314,0.1889 l 6.06703,6.06702 a 0.27434314,0.27434314 0 0 1 -0.018,0.40478 c -11.58538,9.75042 -24.1422,17.21165 -38.10222,24.26812 q -0.97143,0.49022 -0.70609,1.78548 0.67012,3.27413 1.43018,6.52577 0.13493,0.57117 -0.35529,1.01642 -0.55319,0.50821 -1.07939,-0.0225 z"
     id="path238"
     style="stroke-width:0.449743" />
  <path
     fill="#ffffff"
     d="m 37.393238,140.45469 a 0.35979428,0.3642917 24.4 0 1 -0.22937,-0.61615 l 7.07446,-7.08345 a 0.27884056,0.27884056 0 0 1 0.39577,0 l 8.53613,8.54062 q 0.28333,0.28333 -0.11694,0.25635 z"
     id="path240"
     style="stroke-width:0.449743" />
</svg>
