<?xml version="1.0" encoding="UTF-8" standalone="no"?>
<!-- Created with Inkscape (http://www.inkscape.org/) -->

<svg
   width="180mm"
   height="180mm"
   viewBox="0 0 180 180"
   version="1.1"
   id="svg5"
   xml:space="preserve"
   inkscape:export-filename="../9e70175d/asda.webp"
   inkscape:export-xdpi="25.400002"
   inkscape:export-ydpi="25.400002"
   sodipodi:docname="reacttestinglibrary_logo2.svg"
   inkscape:version="1.2.2 (732a01da63, 2022-12-09, custom)"
   xmlns:inkscape="http://www.inkscape.org/namespaces/inkscape"
   xmlns:sodipodi="http://sodipodi.sourceforge.net/DTD/sodipodi-0.dtd"
   xmlns="http://www.w3.org/2000/svg"
   xmlns:svg="http://www.w3.org/2000/svg"><sodipodi:namedview
     id="namedview7"
     pagecolor="#505050"
     bordercolor="#eeeeee"
     borderopacity="1"
     inkscape:showpageshadow="0"
     inkscape:pageopacity="0"
     inkscape:pagecheckerboard="0"
     inkscape:deskcolor="#505050"
     inkscape:document-units="mm"
     showgrid="false"
     inkscape:zoom="0.70710678"
     inkscape:cx="393.85848"
     inkscape:cy="511.2382"
     inkscape:window-width="1366"
     inkscape:window-height="704"
     inkscape:window-x="0"
     inkscape:window-y="0"
     inkscape:window-maximized="1"
     inkscape:current-layer="g513" /><defs
     id="defs2" /><g
     inkscape:label="Capa 1"
     inkscape:groupmode="layer"
     id="layer1"
     transform="translate(-0.32272541)"><g
       id="g513"
       transform="matrix(1.499336,0,0,1.499336,-6.1664653,-5.9672452)"><g
         stroke-width="2"
         fill="none"
         stroke-linecap="butt"
         id="g257"
         inkscape:export-filename="../de241190/reacttestinglibrary.svg"
         inkscape:export-xdpi="25.400002"
         inkscape:export-ydpi="25.400002"><path
           stroke="#b11211"
           vector-effect="non-scaling-stroke"
           d="M 76.92,9.37 Q 73.49,10.48 70.84,8.94 A 1.72,1.7 -30.8 0 0 69.91,8.71 C 65.77,8.88 61.66,8.21 57.54,9.17 q -3.23,0.75 -6.35,0.12"
           id="path75" /><path
           stroke="#d12827"
           vector-effect="non-scaling-stroke"
           d="m 84.67,26.17 c -3,-0.69 -5.26,-2.27 -8.27,-2.85 Q 73.19,22.7 70.02,21.63"
           id="path77" /><path
           stroke="#b11211"
           vector-effect="non-scaling-stroke"
           d="m 70.02,21.63 q 0.3,-3.86 -3.38,-3.6 a 2.71,2.71 0 0 0 -2.48,3.17 q 0.11,0.65 0.8,1.46"
           id="path79" /><path
           stroke="#d12827"
           vector-effect="non-scaling-stroke"
           d="m 64.96,22.66 -4.45,1.66"
           id="path81" /><path
           stroke="#b11211"
           vector-effect="non-scaling-stroke"
           d="M 60.51,24.32 C 59.86,21.46 56.7,21.67 56.19,24.4"
           id="path83" /><path
           stroke="#d12827"
           vector-effect="non-scaling-stroke"
           d="m 56.19,24.4 q -3.83,-0.81 -6.97,1.73 -0.37,0.3 -0.84,0.42 -2.32,0.56 -4.24,1.96 -0.43,0.31 -0.39,0.85 0.04,0.45 -0.02,0.93 A 0.12069791,0.11063975 -39.5 0 1 43.5,30.27 q 0.09,-0.99 -0.27,-1.54"
           id="path85" /><path
           stroke="#c31e1d"
           vector-effect="non-scaling-stroke"
           d="m 70.02,21.63 q -2,3.08 -5.06,1.03"
           id="path87" /><path
           stroke="#ed3b3a"
           vector-effect="non-scaling-stroke"
           d="M 82.26,49.33 79.03,49.24"
           id="path89" /><path
           stroke="#8a3037"
           vector-effect="non-scaling-stroke"
           d="m 79.03,49.24 q 0.72,-5.47 -4.02,-6.2"
           id="path91" /><path
           stroke="#ed3b3a"
           vector-effect="non-scaling-stroke"
           d="M 75.01,43.04 C 68.94,38.9 65.82,40.15 59.82,39.51 q -0.45,-0.05 -0.79,0.25 c -1.24,1.12 -2.71,0.99 -3.78,1.64 q -1.44,0.88 -1.27,1.9"
           id="path93" /><path
           stroke="#8a3037"
           vector-effect="non-scaling-stroke"
           d="m 53.98,43.3 q -5.37,-0.61 -5,5.73"
           id="path95" /><path
           stroke="#ed3b3a"
           vector-effect="non-scaling-stroke"
           d="m 48.98,49.03 q -0.45,0.07 -0.52,-0.97 a 0.27,0.26 54.6 0 0 -0.51,-0.09 l -0.79,1.97 q -0.1,0.25 -0.29,0.06 -0.09,-0.1 -0.22,-0.22 a 0.15,0.15 0 0 0 -0.26,0.13 l 0.63,3.77"
           id="path97" /><path
           stroke="#c31e1d"
           vector-effect="non-scaling-stroke"
           d="m 56.19,24.4 c 0.85,2.19 3.41,2.05 4.32,-0.08"
           id="path99" /><path
           stroke="#93373e"
           vector-effect="non-scaling-stroke"
           d="m 75.01,43.04 c -4.48,1.83 -4.57,7.83 -0.73,10.02 a 1.54,1.53 -35.3 0 0 1,0.17 q 3.33,-0.56 3.75,-3.99"
           id="path101" /><path
           stroke="#e8515e"
           vector-effect="non-scaling-stroke"
           d="m 94.35,69.1 -6.86,0.45 q -0.63,0.04 -0.21,0.51 1.41,1.59 3.76,2.45"
           id="path103" /><path
           stroke="#ed3b3a"
           vector-effect="non-scaling-stroke"
           d="m 91.04,72.51 q -2.11,1.54 -2.84,4.03"
           id="path105" /><path
           stroke="#ee5f6a"
           vector-effect="non-scaling-stroke"
           d="m 88.2,76.54 -7.7,-6.67 a 1.07,1.07 0 0 0 -1.76,0.87 c 0.51,9.23 10.54,11.5 18.57,11.99"
           id="path107" /><path
           stroke="#f98087"
           vector-effect="non-scaling-stroke"
           d="m 97.31,82.73 5.8,0.87"
           id="path109" /><path
           stroke="#cc2524"
           vector-effect="non-scaling-stroke"
           d="m 105.83,84.97 q 2.2,1.23 0.33,3.91"
           id="path111" /><path
           stroke="#f98087"
           vector-effect="non-scaling-stroke"
           d="m 106.16,88.88 -4.54,-1.55"
           id="path113" /><path
           stroke="#f5727b"
           vector-effect="non-scaling-stroke"
           d="M 101.62,87.33 87.89,85.71"
           id="path115" /><path
           stroke="#ee5f6a"
           vector-effect="non-scaling-stroke"
           d="m 87.89,85.71 -6.15,-1.99 q -0.52,-0.16 -0.49,0.38 l 0.32,5.74"
           id="path117" /><path
           stroke="#e63635"
           vector-effect="non-scaling-stroke"
           d="M 81.05,93.23 Q 79.99,91.98 76,93.54"
           id="path119" /><path
           stroke="#f98087"
           vector-effect="non-scaling-stroke"
           d="M 76,93.54 75.92,92.3"
           id="path121" /><path
           stroke="#f16872"
           vector-effect="non-scaling-stroke"
           d="M 75.92,92.3 C 76.96,75.31 55.05,72.5 52.23,88.47"
           id="path123" /><path
           stroke="#f98087"
           vector-effect="non-scaling-stroke"
           d="m 52.23,88.47 q -0.59,4.98 0.71,10.07"
           id="path125" /><path
           stroke="#e63635"
           vector-effect="non-scaling-stroke"
           d="m 52.94,98.54 q -2.18,-0.28 -4.11,0.62"
           id="path127" /><path
           stroke="#ee5f6a"
           vector-effect="non-scaling-stroke"
           d="m 46.53,89.81 0.2,-5.72 q 0.02,-0.56 -0.49,-0.33 -4.76,2.07 -10.06,2.35"
           id="path129" /><path
           stroke="#f5727b"
           vector-effect="non-scaling-stroke"
           d="m 36.18,86.11 -6.69,0.82"
           id="path131" /><path
           stroke="#db2e2d"
           vector-effect="non-scaling-stroke"
           d="m 29.49,86.93 q 0.93,-3.2 -0.93,-3.82"
           id="path133" /><path
           stroke="#f98087"
           vector-effect="non-scaling-stroke"
           d="m 28.56,83.11 2.22,-0.38"
           id="path135" /><path
           stroke="#ee5f6a"
           vector-effect="non-scaling-stroke"
           d="M 30.78,82.73 C 38.64,82.17 48.81,79.96 49.27,70.6 a 0.97,0.96 69.2 0 0 -1.64,-0.74 c -5.02,4.9 -9.27,8.93 -17.03,9.76"
           id="path137" /><path
           stroke="#f98087"
           vector-effect="non-scaling-stroke"
           d="m 30.6,79.62 q -0.05,0.18 -0.09,0.36"
           id="path139" /><path
           stroke="#db2e2d"
           vector-effect="non-scaling-stroke"
           d="M 30.51,79.98 Q 28.58,76.8 29.01,74.56"
           id="path141" /><path
           stroke="#e8515e"
           vector-effect="non-scaling-stroke"
           d="m 32.07,73.93 q 4.65,-0.42 8.62,-3.78 0.59,-0.5 -0.19,-0.54 L 33.84,69.3"
           id="path143" /><path
           stroke="#93373e"
           vector-effect="non-scaling-stroke"
           d="m 48.98,49.03 c 0.45,9.27 12.99,0.82 5,-5.73"
           id="path145" /><path
           stroke="#ec90a5"
           vector-effect="non-scaling-stroke"
           d="m 31.9,91.67 q 1.57,-0.7 3.35,-0.66 0.52,0.02 0.66,-0.49 0.57,-2 0.27,-4.41"
           id="path147" /><path
           stroke="#df4a57"
           vector-effect="non-scaling-stroke"
           d="M 95.96,73.83 Q 93.83,73.9 91.04,72.51"
           id="path149" /><path
           stroke="#f4a7b8"
           vector-effect="non-scaling-stroke"
           d="m 75.92,92.3 -3.41,-1.94 a 0.49,0.49 0 0 0 -0.73,0.36 L 71.74,91 q -0.09,0.7 -0.22,0 -0.09,-0.5 -0.17,-0.4"
           id="path151" /><path
           stroke="#f4a7b8"
           vector-effect="non-scaling-stroke"
           d="m 57.02,87.62 q -2.56,-0.48 -4.79,0.85"
           id="path153" /><path
           stroke="#bc1a19"
           vector-effect="non-scaling-stroke"
           d="m 55.69,109.13 q -0.83,1.42 -1.93,0.09"
           id="path155" /><path
           stroke="#f8b1c1"
           vector-effect="non-scaling-stroke"
           d="M 28.6,91.74 28.09,87.09"
           id="path157" /><path
           stroke="#f19eb1"
           vector-effect="non-scaling-stroke"
           d="M 97.31,82.73 Q 96.09,80.68 97.18,79.6"
           id="path159" /><path
           stroke="#f07a80"
           vector-effect="non-scaling-stroke"
           d="m 97.18,79.6 q 0.9,0.11 0.77,0.38"
           id="path161" /><path
           stroke="#de6d74"
           vector-effect="non-scaling-stroke"
           d="m 97.95,79.98 q 21.98,-1.01 24.01,-21.43"
           id="path163" /><path
           stroke="#de6d74"
           vector-effect="non-scaling-stroke"
           d="M 6.06,58.77 Q 8.12,79.11 30.51,79.98"
           id="path165" /><path
           stroke="#f19eb1"
           vector-effect="non-scaling-stroke"
           d="m 30.6,79.62 q 1.4,0.85 0.18,3.11"
           id="path167" /><path
           stroke="#de6d74"
           vector-effect="non-scaling-stroke"
           d="m 28.56,83.11 -3.85,0.47"
           id="path169" /><path
           stroke="#d95f68"
           vector-effect="non-scaling-stroke"
           d="m 29.49,86.93 -1.4,0.16"
           id="path171" /><path
           stroke="#de6d74"
           vector-effect="non-scaling-stroke"
           d="m 28.09,87.09 q -4.37,0.58 -7.52,2.51"
           id="path173" /><path
           stroke="#b11211"
           vector-effect="non-scaling-stroke"
           d="m 20.57,89.6 q 0.06,-1.61 -1.26,-3.26"
           id="path175" /><path
           stroke="#f8b1c1"
           vector-effect="non-scaling-stroke"
           d="m 101.62,87.33 c -0.90667,0.726667 -1.16,1.9 -0.76,3.52 0.0867,0.346667 -0.0371,0.535381 -0.39042,0.595381 l -1.34037,0.219706 -0.116713,-0.01531"
           id="path177"
           sodipodi:nodetypes="ccccc" /><path
           stroke="#d84653"
           vector-effect="non-scaling-stroke"
           d="M 98.69,20.5 C 88.73,17.27 85.61,24.51 91.94,31.23"
           id="path179" /><path
           stroke="#e9757c"
           vector-effect="non-scaling-stroke"
           d="m 91.94,31.23 c 7.63,8.03 13.55,13.28 12.02,25.5"
           id="path181" /><path
           stroke="#e15d67"
           vector-effect="non-scaling-stroke"
           d="m 103.96,56.73 -1.48,4.49"
           id="path183" /><path
           stroke="#d84653"
           vector-effect="non-scaling-stroke"
           d="m 102.48,61.22 q -2.55,5.84 -8.13,7.88"
           id="path185" /><path
           stroke="#e63635"
           vector-effect="non-scaling-stroke"
           d="M 94.35,69.1 Q 95,65.9 93.24,64"
           id="path187" /><path
           stroke="#ec90a5"
           vector-effect="non-scaling-stroke"
           d="m 87.89,85.71 q -1.13,1.54 -0.1,5.37"
           id="path189" /><path
           stroke="#cf646a"
           vector-effect="non-scaling-stroke"
           d="m 104.19,114.35 c 13.33,-3.23 12.94,-19.37 1.97,-25.47"
           id="path191" /><path
           stroke="#e45964"
           vector-effect="non-scaling-stroke"
           d="m 88.2,76.54 q 4.24,2.49 8.98,3.06"
           id="path193" /><path
           stroke="#e63635"
           vector-effect="non-scaling-stroke"
           d="m 35.01,63.94 -0.63,0.11 q -0.17,0.03 -0.05,0.16 l 0.26,0.26 q 0.09,0.08 0.01,0.18 -1.31,1.66 -0.76,4.65"
           id="path195" /><path
           stroke="#d84653"
           vector-effect="non-scaling-stroke"
           d="M 33.84,69.3 Q 30.28,67.76 27.82,64.99"
           id="path197" /><path
           stroke="#e56770"
           vector-effect="non-scaling-stroke"
           d="M 27.82,64.99 C 22.33,58.08 22.78,49.06 26.91,41.64 29.22,37.48 33.77,33.53 37.4,29.78"
           id="path199" /><path
           stroke="#d84653"
           vector-effect="non-scaling-stroke"
           d="m 37.4,29.78 q 0.98,-1.79 1.59,-3.83 c 2.07,-6.83 -7.98,-7.77 -8.81,-4.47"
           id="path201" /><path
           stroke="#bc1a19"
           vector-effect="non-scaling-stroke"
           d="m 74.17,111.93 q -0.99,0.76 -1.94,0.87"
           id="path203" /><path
           stroke="#e9757c"
           vector-effect="non-scaling-stroke"
           d="m 76,93.54 q -1.42,7.66 -3.69,15.27 -0.46,1.56 -0.08,3.99"
           id="path205" /><path
           stroke="#cf646a"
           vector-effect="non-scaling-stroke"
           d="m 72.23,112.8 q -0.04,0.41 0.17,0.48"
           id="path207" /><path
           stroke="#f4a7b8"
           vector-effect="non-scaling-stroke"
           d="m 72.4,113.28 q -0.61,2.5 -3.79,2.25"
           id="path209" /><path
           stroke="#eb90a4"
           vector-effect="non-scaling-stroke"
           d="m 56.84,119.56 q -2.64,-0.34 -3.15,-2.27"
           id="path211" /><path
           stroke="#cf646a"
           vector-effect="non-scaling-stroke"
           d="m 53.69,117.29 q 2.62,-3.33 2,-8.16"
           id="path213" /><path
           stroke="#e9757c"
           vector-effect="non-scaling-stroke"
           d="M 55.69,109.13 52.94,98.54"
           id="path215" /><path
           stroke="#d12827"
           vector-effect="non-scaling-stroke"
           d="m 97.95,79.98 2.35,-5.39"
           id="path217" /><path
           stroke="#e3778f"
           vector-effect="non-scaling-stroke"
           d="m 107.59,60.81 q -2,0.3 -3.62,1.51 -0.44,0.33 -0.93,0.07 -0.59,-0.31 -0.56,-1.17"
           id="path219" /><path
           stroke="#be3441"
           vector-effect="non-scaling-stroke"
           d="m 53.69,117.29 c -5.92,7.86 -16.72,2.09 -16.3,-7.18 q 0.02,-0.34 -0.32,-0.37 -0.14,-0.01 -0.31,0"
           id="path221" /><path
           stroke="#cf646a"
           vector-effect="non-scaling-stroke"
           d="m 20.57,89.6 c -10.22,6.58 -8.99,23.36 4.1,24.82"
           id="path223" /><path
           stroke="#e78298"
           vector-effect="non-scaling-stroke"
           d="m 27.82,64.99 q -0.29,0.47 -0.95,0.73 -0.41,0.16 -0.7,-0.17 -1.65,-1.84 -4.21,-1.79"
           id="path225" /><path
           stroke="#f4a7b8"
           vector-effect="non-scaling-stroke"
           d="m 108.79,56.26 -1.41,0.21 q -0.44,0.07 -0.67,0.45 -0.89,1.51 -2.75,-0.19"
           id="path227" /><path
           stroke="#eb90a4"
           vector-effect="non-scaling-stroke"
           d="m 94.69,29.49 q -1.58,0.26 -2.75,1.74"
           id="path229" /><path
           stroke="#e78298"
           vector-effect="non-scaling-stroke"
           d="M 37.4,29.78 Q 35.4,29 34.69,27.89"
           id="path231" /><path
           stroke="#c74b55"
           vector-effect="non-scaling-stroke"
           d="m 78,120.39 q -4.44,-2.56 -5.6,-7.11"
           id="path233" /><path
           stroke="#e3778f"
           vector-effect="non-scaling-stroke"
           d="m 75.78,122.92 q 1.6,-0.86 2.22,-2.53"
           id="path235" /><path
           stroke="#be3441"
           vector-effect="non-scaling-stroke"
           d="m 78,120.39 q 10.45,2.02 12.95,-8.4 0.19,-0.8 -0.7,-1.27"
           id="path237" /><path
           stroke="#b11211"
           vector-effect="non-scaling-stroke"
           d="m 62.99,12.44 a 1.95,1.95 0 0 0 -1.95,-1.95 1.95,1.95 0 0 0 -1.95,1.95 1.95,1.95 0 0 0 1.95,1.95 1.95,1.95 0 0 0 1.95,-1.95"
           id="path239" /><path
           stroke="#b11211"
           vector-effect="non-scaling-stroke"
           d="m 54.6857,17.8702 a 1.4,1.21 -4.5 0 0 -1.4906,-1.0965 1.4,1.21 -4.5 0 0 -1.3008,1.3161 1.4,1.21 -4.5 0 0 1.4906,1.0965 1.4,1.21 -4.5 0 0 1.3008,-1.3161"
           id="path241" /><path
           stroke="#c31e1d"
           vector-effect="non-scaling-stroke"
           d="m 52.49,31.09 1.28,0.17 a 0.48,0.48 0 0 0 0.51,-0.63 q -0.43,-1.28 -1.56,-0.65 -0.49,0.27 -0.47,0.54 a 0.63,0.2 85 0 0 0.24,0.57"
           id="path243" /><path
           stroke="#c31e1d"
           vector-effect="non-scaling-stroke"
           d="M 63.05,33.5 A 1.35,1.35 0 0 0 61.7,32.15 1.35,1.35 0 0 0 60.35,33.5 1.35,1.35 0 0 0 61.7,34.85 1.35,1.35 0 0 0 63.05,33.5"
           id="path245" /><path
           stroke="#db2e2d"
           vector-effect="non-scaling-stroke"
           d="m 64.7581,54.7537 a 0.49,0.49 0 0 0 -0.4866,-0.4934 l -0.04,-3e-4 a 0.49,0.49 0 0 0 -0.4934,0.4866 l -0.0962,13.7797 a 0.49,0.49 0 0 0 0.4866,0.4934 l 0.04,3e-4 a 0.49,0.49 0 0 0 0.4934,-0.4866 l 0.0962,-13.7797"
           id="path247" /><path
           stroke="#cc2524"
           vector-effect="non-scaling-stroke"
           d="m 59.7,67.87 a 6.3,0.69 90 0 0 0.69,-6.3 6.3,0.69 90 0 0 -0.69,-6.3 6.3,0.69 90 0 0 -0.69,6.3 6.3,0.69 90 0 0 0.69,6.3"
           id="path249" /><path
           stroke="#cc2524"
           vector-effect="non-scaling-stroke"
           d="m 68.7602,55.6908 a 0.37,0.37 0 0 0 -0.3693,-0.3706 l -0.22,-4e-4 a 0.37,0.37 0 0 0 -0.3707,0.3694 l -0.0204,11.74 a 0.37,0.37 0 0 0 0.3693,0.3706 l 0.22,4e-4 a 0.37,0.37 0 0 0 0.3707,-0.3694 l 0.0204,-11.74"
           id="path251" /><path
           stroke="#967684"
           vector-effect="non-scaling-stroke"
           d="m 50.9504,47.6739 a 1.25,1.12 110.1 0 0 1.4814,-0.789 1.25,1.12 110.1 0 0 -0.6222,-1.5588 1.25,1.12 110.1 0 0 -1.4814,0.789 1.25,1.12 110.1 0 0 0.6222,1.5588"
           id="path253" /><path
           stroke="#967684"
           vector-effect="non-scaling-stroke"
           d="m 72.95,46.55 a 0.87,0.86 11.6 0 0 0.64,0.96 q 1.16,0.31 1.62,-0.89 a 1.02,1.02 0 0 0 -1.13,-1.37 q -0.96,0.17 -1.13,1.3"
           id="path255" /></g><path
         fill="#a20807"
         d="M 76.92,9.37 Q 73.49,10.48 70.84,8.94 A 1.72,1.7 -30.8 0 0 69.91,8.71 C 65.77,8.88 61.66,8.21 57.54,9.17 q -3.23,0.75 -6.35,0.12 12.9,-10.66 25.73,0.08 z"
         id="path259" /><path
         fill="#bf1b1a"
         d="m 76.92,9.37 q 6.7,6.79 7.75,16.8 c -3,-0.69 -5.26,-2.27 -8.27,-2.85 q -3.21,-0.62 -6.38,-1.69 0.3,-3.86 -3.38,-3.6 a 2.71,2.71 0 0 0 -2.48,3.17 q 0.11,0.65 0.8,1.46 l -4.45,1.66 C 59.86,21.46 56.7,21.67 56.19,24.4 q -3.83,-0.81 -6.97,1.73 -0.37,0.3 -0.84,0.42 -2.32,0.56 -4.24,1.96 -0.43,0.31 -0.39,0.85 0.04,0.45 -0.02,0.93 A 0.12069791,0.11063975 -39.5 0 1 43.5,30.27 q 0.09,-0.99 -0.27,-1.54 0.2,-11.7 7.96,-19.44 3.12,0.63 6.35,-0.12 C 61.66,8.21 65.77,8.88 69.91,8.71 a 1.72,1.7 -30.8 0 1 0.93,0.23 q 2.65,1.54 6.08,0.43 z m -13.93,3.07 a 1.95,1.95 0 0 0 -1.95,-1.95 1.95,1.95 0 0 0 -1.95,1.95 1.95,1.95 0 0 0 1.95,1.95 1.95,1.95 0 0 0 1.95,-1.95 z m -8.3043,5.4302 a 1.4,1.21 -4.5 0 0 -1.4906,-1.0965 1.4,1.21 -4.5 0 0 -1.3008,1.3161 1.4,1.21 -4.5 0 0 1.4906,1.0965 1.4,1.21 -4.5 0 0 1.3008,-1.3161 z"
         id="path261" /><circle
         fill="#a20807"
         cx="61.040001"
         cy="12.44"
         r="1.95"
         id="circle263" /><ellipse
         fill="#a20807"
         cx="0"
         cy="0"
         transform="rotate(-4.5,255.45578,-669.17054)"
         rx="1.4"
         ry="1.21"
         id="ellipse265" /><path
         fill="#a20807"
         d="m 70.02,21.63 q -2,3.08 -5.06,1.03 -0.69,-0.81 -0.8,-1.46 a 2.71,2.71 0 0 1 2.48,-3.17 q 3.68,-0.26 3.38,3.6 z"
         id="path267" /><path
         fill="#d62b2a"
         d="m 35.01,63.94 -0.63,0.11 q -0.17,0.03 -0.05,0.16 l 0.26,0.26 q 0.09,0.08 0.01,0.18 -1.31,1.66 -0.76,4.65 -3.56,-1.54 -6.02,-4.31 C 22.33,58.08 22.78,49.06 26.91,41.64 29.22,37.48 33.77,33.53 37.4,29.78 q 0.98,-1.79 1.59,-3.83 c 2.07,-6.83 -7.98,-7.77 -8.81,-4.47 q -0.66,0.27 -1.12,0.06 -0.49,-0.23 -0.16,-0.66 2.84,-3.79 7.41,-2.47 c 13.56,3.92 -5.18,20.36 -7.3,25.63 -2.78,6.91 -0.97,15.98 6,19.9 z"
         id="path269" /><path
         fill="#d62b2a"
         d="m 98.69,20.5 c -9.96,-3.23 -13.08,4.01 -6.75,10.73 7.63,8.03 13.55,13.28 12.02,25.5 l -1.48,4.49 Q 99.93,67.06 94.35,69.1 95,65.9 93.24,64 c 9.2,-6.31 8.77,-17.82 1.82,-25.52 -3.61,-4 -14.1,-17.02 -3.39,-20.02 q 4.44,-1.24 7.02,2.04 z"
         id="path271" /><path
         fill="#da607b"
         d="M 37.4,29.78 Q 35.4,29 34.69,27.89 l 1.53,-3.32 a 0.98,0.96 -48.2 0 0 -0.04,-0.89 q -1.68,-2.9 -6,-2.2 c 0.83,-3.3 10.88,-2.36 8.81,4.47 q -0.61,2.04 -1.59,3.83 z"
         id="path273" /><path
         fill="#da607b"
         d="m 98.69,20.5 0.49,0.57 a 0.36,0.36 0 0 1 -0.38,0.57 q -3.27,-0.97 -6.18,0.89 a 2.04,2.03 57.3 0 0 -0.61,2.82 l 2.68,4.14 q -1.58,0.26 -2.75,1.74 C 85.61,24.51 88.73,17.27 98.69,20.5 Z"
         id="path275" /><path
         fill="#e33433"
         d="m 70.02,21.63 q 3.17,1.07 6.38,1.69 c 3.01,0.58 5.27,2.16 8.27,2.85 q 0.8,8.38 -2.97,16.3 -0.22,0.46 -0.15,0.96 l 0.71,5.9 -3.23,-0.09 q 0.72,-5.47 -4.02,-6.2 C 68.94,38.9 65.82,40.15 59.82,39.51 q -0.45,-0.05 -0.79,0.25 c -1.24,1.12 -2.71,0.99 -3.78,1.64 q -1.44,0.88 -1.27,1.9 -5.37,-0.61 -5,5.73 -0.45,0.07 -0.52,-0.97 a 0.27,0.26 54.6 0 0 -0.51,-0.09 l -0.79,1.97 q -0.1,0.25 -0.29,0.06 -0.09,-0.1 -0.22,-0.22 a 0.15,0.15 0 0 0 -0.26,0.13 l 0.63,3.77 c -1.99,-3.67 -1.36,-6.67 -0.5,-10.33 a 1.21,1.21 0 0 0 -0.11,-0.86 q -3.43,-6.43 -3.18,-13.76 0.36,0.55 0.27,1.54 a 0.12069791,0.11063975 -39.5 0 0 0.23,0.02 q 0.06,-0.48 0.02,-0.93 -0.04,-0.54 0.39,-0.85 1.92,-1.4 4.24,-1.96 0.47,-0.12 0.84,-0.42 3.14,-2.54 6.97,-1.73 c 0.85,2.19 3.41,2.05 4.32,-0.08 l 4.45,-1.66 q 3.06,2.05 5.06,-1.03 z m -17.53,9.46 1.28,0.17 a 0.48,0.48 0 0 0 0.51,-0.63 q -0.43,-1.28 -1.56,-0.65 -0.49,0.27 -0.47,0.54 a 0.63,0.2 85 0 0 0.24,0.57 z m 10.56,2.41 a 1.35,1.35 0 0 0 -1.35,-1.35 1.35,1.35 0 0 0 -1.35,1.35 1.35,1.35 0 0 0 1.35,1.35 1.35,1.35 0 0 0 1.35,-1.35 z"
         id="path277"
         style="fill:#d62b2a;fill-opacity:1" /><path
         fill="#a20807"
         d="m 60.51,24.32 c -0.91,2.13 -3.47,2.27 -4.32,0.08 0.51,-2.73 3.67,-2.94 4.32,-0.08 z"
         id="path279" /><path
         fill="#f3a3b5"
         d="M 34.69,27.89 Q 35.4,29 37.4,29.78 c -3.63,3.75 -8.18,7.7 -10.49,11.86 -4.13,7.42 -4.58,16.44 0.91,23.35 q -0.29,0.47 -0.95,0.73 -0.41,0.16 -0.7,-0.17 -1.65,-1.84 -4.21,-1.79 c -8.64,-14.66 3,-26.63 12.73,-35.87 z"
         id="path281"
         style="fill:#da607b;fill-opacity:1" /><path
         fill="#fcbfcd"
         d="m 94.69,29.49 c 8.12,6.26 15.32,16.14 14.1,26.77 l -1.41,0.21 q -0.44,0.07 -0.67,0.45 -0.89,1.51 -2.75,-0.19 C 105.49,44.51 99.57,39.26 91.94,31.23 q 1.17,-1.48 2.75,-1.74 z"
         id="path283"
         style="fill:#da607b;fill-opacity:1" /><path
         fill="#a20807"
         d="m 52.49,31.09 a 0.63,0.2 85 0 1 -0.24,-0.57 q -0.02,-0.27 0.47,-0.54 1.13,-0.63 1.56,0.65 a 0.48,0.48 0 0 1 -0.51,0.63 z"
         id="path285" /><circle
         fill="#a20807"
         cx="61.700001"
         cy="33.5"
         r="1.35"
         id="circle287" /><path
         fill="#f64140"
         d="m 75.01,43.04 c -4.48,1.83 -4.57,7.83 -0.73,10.02 0.3037,0.168224 0.656295,0.228165 1,0.17 2.22,-0.373333 3.47,-1.703333 3.75,-3.99 l 3.23,0.09 c -0.233333,3.293333 -1.6,5.746667 -4.1,7.36 -0.253333,0.166667 -0.293333,0.373333 -0.12,0.62 4.313333,6.04 9.38,8.27 15.2,6.69 1.173333,1.266667 1.543333,2.966667 1.11,5.1 l -6.86,0.45 c -0.42,0.02667 -0.49,0.196667 -0.21,0.51 0.94,1.06 2.193333,1.876667 3.76,2.45 -1.406667,1.026667 -2.353333,2.37 -2.84,4.03 l -7.7,-6.67 c -0.714629,-0.604943 -1.806659,-0.06513 -1.76,0.87 0.51,9.23 10.54,11.5 18.57,11.99 l 5.8,0.87 c 0.6,0.653333 1.50667,1.11 2.72,1.37 1.46667,0.82 1.57667,2.123333 0.33,3.91 l -4.54,-1.55 -13.73,-1.62 -6.15,-1.99 c -0.346667,-0.106667 -0.51,0.02 -0.49,0.38 l 0.32,5.74 -0.52,3.39 C 80.343333,92.396667 78.66,92.5 76,93.54 L 75.92,92.3 C 76.96,75.31 55.05,72.5 52.23,88.47 c -0.393333,3.32 -0.156667,6.676667 0.71,10.07 -1.453333,-0.186667 -2.823333,0.02 -4.11,0.62 -1.333333,-2.68 -2.1,-5.796667 -2.3,-9.35 l 0.2,-5.72 c 0.01333,-0.373333 -0.15,-0.483333 -0.49,-0.33 -3.173333,1.38 -6.526667,2.163333 -10.06,2.35 l -6.69,0.82 c 0.62,-2.133333 0.31,-3.406667 -0.93,-3.82 l 2.22,-0.38 c 7.86,-0.56 18.03,-2.77 18.49,-12.13 0.03952,-0.883065 -1.019554,-1.360939 -1.64,-0.74 -5.02,4.9 -9.27,8.93 -17.03,9.76 -0.339543,0.07158 -0.220025,-0.06287 -0.246692,0.05713 C 29.066641,77.557128 28.723333,76.053333 29.01,74.56 l 3.06,-0.63 c 3.1,-0.28 5.973333,-1.54 8.62,-3.78 0.393333,-0.333333 0.33,-0.513333 -0.19,-0.54 L 33.84,69.3 c -0.366667,-1.993333 -0.113333,-3.543333 0.76,-4.65 0.05333,-0.06667 0.05,-0.126667 -0.01,-0.18 l -0.26,-0.26 c -0.08,-0.08667 -0.06333,-0.14 0.05,-0.16 l 0.63,-0.11 c 5.68,2.51 11.62,-2 14.94,-6.56 0.2,-0.273333 0.156667,-0.506667 -0.13,-0.7 -1.306667,-0.893333 -2.24,-1.893333 -2.8,-3 l -0.63,-3.77 c -0.03298,-0.151842 0.158312,-0.247486 0.26,-0.13 0.08667,0.08 0.16,0.153333 0.22,0.22 0.126667,0.126667 0.223333,0.106667 0.29,-0.06 l 0.79,-1.97 c 0.0974,-0.265717 0.488721,-0.196661 0.51,0.09 0.04667,0.693333 0.22,1.016667 0.52,0.97 0.45,9.27 12.99,0.82 5,-5.73 -0.113333,-0.68 0.31,-1.313333 1.27,-1.9 1.07,-0.65 2.54,-0.52 3.78,-1.64 0.226667,-0.2 0.49,-0.283333 0.79,-0.25 6,0.64 9.12,-0.61 15.19,3.53 z M 64.7581,54.7537 C 64.76,54.483078 64.542122,54.262171 64.2715,54.2603 l -0.04,-3e-4 c -0.270622,-0.0019 -0.491529,0.215978 -0.4934,0.4866 l -0.0962,13.7797 c -0.0019,0.270622 0.215978,0.491529 0.4866,0.4934 l 0.04,3e-4 c 0.270622,0.0019 0.491529,-0.215978 0.4934,-0.4866 z M 59.7,67.87 c 0.381076,0 0.69,-2.820606 0.69,-6.3 0,-3.479394 -0.308924,-6.3 -0.69,-6.3 -0.381076,0 -0.69,2.820606 -0.69,6.3 0,3.479394 0.308924,6.3 0.69,6.3 z m 9.0602,-12.1792 c 3.32e-4,-0.204306 -0.164994,-0.370214 -0.3693,-0.3706 l -0.22,-4e-4 c -0.204384,-3.87e-4 -0.370369,0.165015 -0.3707,0.3694 l -0.0204,11.74 c -3.32e-4,0.204306 0.164994,0.370214 0.3693,0.3706 l 0.22,4e-4 c 0.204384,3.87e-4 0.370369,-0.165015 0.3707,-0.3694 z"
         id="path289"
         style="fill:#d62b2a;fill-opacity:1"
         sodipodi:nodetypes="cccccccccccccccccccccccccccccccccccccccccccccccccccccccccccccccccccccccccccssssscscccsscc" /><path
         fill="#302c3b"
         d="m 53.98,43.3 c 7.99,6.55 -4.55,15 -5,5.73 q -0.37,-6.34 5,-5.73 z m -3.0296,4.3739 a 1.25,1.12 110.1 0 0 1.4814,-0.789 1.25,1.12 110.1 0 0 -0.6222,-1.5588 1.25,1.12 110.1 0 0 -1.4814,0.789 1.25,1.12 110.1 0 0 0.6222,1.5588 z"
         id="path291" /><path
         fill="#302c3b"
         d="m 75.01,43.04 q 4.74,0.73 4.02,6.2 -0.42,3.43 -3.75,3.99 a 1.54,1.53 -35.3 0 1 -1,-0.17 c -3.84,-2.19 -3.75,-8.19 0.73,-10.02 z m -2.06,3.51 a 0.87,0.86 11.6 0 0 0.64,0.96 q 1.16,0.31 1.62,-0.89 a 1.02,1.02 0 0 0 -1.13,-1.37 q -0.96,0.17 -1.13,1.3 z"
         id="path293" /><ellipse
         fill="#fcbfcd"
         cx="0"
         cy="0"
         transform="rotate(110.1,9.4403935,41.204942)"
         rx="1.25"
         ry="1.12"
         id="ellipse295" /><path
         fill="#fcbfcd"
         d="m 72.95,46.55 q 0.17,-1.13 1.13,-1.3 a 1.02,1.02 0 0 1 1.13,1.37 q -0.46,1.2 -1.62,0.89 a 0.87,0.86 11.6 0 1 -0.64,-0.96 z"
         id="path297" /><path
         fill="#fcbfcd"
         d="m 6.06,58.77 c 1.3733333,13.56 9.632496,19.829168 24.172624,20.864811 0.02667,-0.12 -0.02257,0.05904 0.367376,-0.01481 1.951566,0.01971 1.475702,1.500242 0.662369,3.006909 L 28.56,83.11 24.71,83.58 C 9.17,81.77 0.49100499,68.69899 5.981005,53.98899 6.1852247,53.53252 6.3526412,53.555227 6.3234948,54.05445 Z"
         id="path299"
         sodipodi:nodetypes="ccccccccc"
         style="fill:#da607b;fill-opacity:1" /><path
         fill="#fcbfcd"
         d="m 103.11,83.6 -5.8,-0.87 c -0.813333,-1.366667 -0.856667,-2.41 -0.13,-3.13 0.6,0.07333 0.856667,0.2 0.77,0.38 14.65333,-0.673333 22.65667,-7.816667 24.01,-21.43 l -0.5245,-4.680524 c -0.036,-0.277381 -0.0788,-0.422764 0.51669,0.230303 0.65652,0.671998 0.51801,0.526666 0.60781,0.660221 5.08,14.58 -4.59,27.26 -19.45,28.84 z"
         id="path301"
         sodipodi:nodetypes="ccccccccc"
         style="fill:#da607b;fill-opacity:1" /><rect
         fill="#bf1b1a"
         x="-0.50999999"
         y="-7.3800001"
         transform="rotate(0.4,-8797.1438,9226.7553)"
         width="1.02"
         height="14.76"
         rx="0.49000001"
         id="rect303" /><ellipse
         fill="#a20807"
         cx="0"
         cy="0"
         transform="rotate(90,-0.935,60.635)"
         rx="6.3000002"
         ry="0.69"
         id="ellipse305" /><rect
         fill="#a20807"
         x="-0.47999999"
         y="-6.2399998"
         transform="rotate(0.1,-35237.138,39146.599)"
         width="0.95999998"
         height="12.48"
         rx="0.37"
         id="rect307" /><path
         fill="#eb8ea3"
         d="m 108.79,56.26 -1.2,4.55 q -2,0.3 -3.62,1.51 -0.44,0.33 -0.93,0.07 -0.59,-0.31 -0.56,-1.17 l 1.48,-4.49 q 1.86,1.7 2.75,0.19 0.23,-0.38 0.67,-0.45 z"
         id="path309"
         style="fill:#da607b;fill-opacity:1" /><path
         fill="#bf1b1a"
         d="M 121.43431,53.62968 C 124.71151,68.481729 114.28528,79.251521 97.95,79.98 l 2.35,-5.39 c 10.92,-0.166667 17.51608,-8.154058 21.13431,-20.96032 z"
         id="path311"
         sodipodi:nodetypes="cccc" /><path
         fill="#bf1b1a"
         d="M 6.2803736,53.644491 C 11.950086,74.709828 17.583333,74.906667 29.01,74.56 c -0.286667,1.493333 0.174042,2.959388 1.460709,5.079388 C 16.128709,80.194359 4.3656304,70.35677 6.2803736,53.644491 Z"
         id="path313"
         sodipodi:nodetypes="cccc" /><path
         fill="#da607b"
         d="m 107.59,60.81 q -3.69,7.75 -11.63,13.02 -2.13,0.07 -4.92,-1.32 -2.35,-0.86 -3.76,-2.45 -0.42,-0.47 0.21,-0.51 l 6.86,-0.45 q 5.58,-2.04 8.13,-7.88 -0.03,0.86 0.56,1.17 0.49,0.26 0.93,-0.07 1.62,-1.21 3.62,-1.51 z"
         id="path315"
         style="fill:#da607b;fill-opacity:1" /><path
         fill="#da607b"
         d="m 21.96,63.76 q 2.56,-0.05 4.21,1.79 0.29,0.33 0.7,0.17 0.66,-0.26 0.95,-0.73 2.46,2.77 6.02,4.31 l 6.66,0.31 q 0.78,0.04 0.19,0.54 -3.97,3.36 -8.62,3.78 -6.29,-4.42 -10.11,-10.17 z"
         id="path317" /><path
         fill="#e57d94"
         d="M 30.78,82.73 Q 32,80.47 30.6,79.62 c 7.76,-0.83 12.01,-4.86 17.03,-9.76 a 0.97,0.96 69.2 0 1 1.64,0.74 C 48.81,79.96 38.64,82.17 30.78,82.73 Z"
         id="path319"
         style="fill:#da607b;fill-opacity:1" /><path
         fill="#e57d94"
         d="m 88.2,76.54 c 2.826667,1.66 6.15145,2.734104 9.31145,3.114104 -0.726667,0.72 -1.014783,1.709229 -0.20145,3.075896 -8.03,-0.49 -18.06,-2.76 -18.57,-11.99 -0.04666,-0.935133 1.045371,-1.474943 1.76,-0.87 z"
         id="path321"
         style="fill:#da607b;fill-opacity:1"
         sodipodi:nodetypes="cccccc" /><path
         fill="#e33433"
         d="m 91.04,72.51 q 2.79,1.39 4.92,1.32 l 4.34,0.76 -2.35,5.39 q 0.13,-0.27 -0.77,-0.38 -4.74,-0.57 -8.98,-3.06 0.73,-2.49 2.84,-4.03 z"
         id="path323"
         style="fill:#d62b2a;fill-opacity:1" /><path
         fill="#eb8ea3"
         d="m 75.92,92.3 -3.41,-1.94 a 0.49,0.49 0 0 0 -0.73,0.36 L 71.74,91 q -0.09,0.7 -0.22,0 -0.09,-0.5 -0.17,-0.4 C 71.5,82.14 59.02,82.23 57.02,87.62 q -2.56,-0.48 -4.79,0.85 C 55.05,72.5 76.96,75.31 75.92,92.3 Z"
         id="path325"
         style="fill:#da607b;fill-opacity:1" /><path
         fill="#bf1b1a"
         d="m 28.56,83.11 q 1.86,0.62 0.93,3.82 l -1.4,0.16 q -4.37,0.58 -7.52,2.51 0.06,-1.61 -1.26,-3.26 l 5.4,-2.76 z"
         id="path327" /><path
         fill="#e57d94"
         d="m 46.53,89.81 q -7.26,1.81 -14.63,1.86 1.57,-0.7 3.35,-0.66 0.52,0.02 0.66,-0.49 0.57,-2 0.27,-4.41 5.3,-0.28 10.06,-2.35 0.51,-0.23 0.49,0.33 z"
         id="path329"
         style="fill:#da607b;fill-opacity:1" /><path
         fill="#e57d94"
         d="m 87.89,85.71 c 0.06914,1.503186 -0.196455,2.731855 -0.1,5.37 L 81.57,89.84 81.25,84.1 c -0.02,-0.36 0.143333,-0.486667 0.49,-0.38 z"
         id="path331"
         style="fill:#da607b;fill-opacity:1"
         sodipodi:nodetypes="cccccc" /><path
         fill="#f3a3b5"
         d="m 87.89584,85.71 13.86564,1.62 c -0.91562,0.726667 -1.17145,1.9 -0.7675,3.52 0.0875,0.346667 -0.0471,0.55 -0.40396,0.61 L 99.03326,91.710038 87.794852,91.08 c -0.69345,-2.553333 -0.659787,-4.343333 0.100988,-5.37 z"
         id="path335"
         style="fill:#da607b;fill-opacity:1;stroke-width:1.00493"
         sodipodi:nodetypes="ccccccc" /><path
         fill="#f3a3b5"
         d="m 36.18,86.11 c 0.2,1.606667 0.545149,3.076667 -0.27,4.41 -0.09333,0.34 0.166157,0.545876 -0.18051,0.532543 -1.186667,-0.02667 -1.740412,0.244528 -3.802631,0.618219 L 28.180235,91.754714 27.83203,87.184561 29.49,86.93 Z"
         id="path337"
         style="fill:#da607b;fill-opacity:1"
         sodipodi:nodetypes="cccccccc" /><path
         fill="#a20807"
         d="m 19.31,86.34 q 1.32,1.65 1.26,3.26 c -10.22,6.58 -8.99,23.36 4.1,24.82 q -7.7,0.93 -10.86,-5.98 -5.96,-13.07 5.5,-22.1 z"
         id="path339" /><path
         fill="#fcbfcd"
         d="m 28.09,87.09 0.51,4.65 c -15.2,0.12 -15.86,19.06 -3.28,21.94 a 0.26,0.26 0 0 1 -0.07,0.51 q -0.23,-0.01 -0.58,0.23 C 11.58,112.96 10.35,96.18 20.57,89.6 q 3.15,-1.93 7.52,-2.51 z"
         id="path341"
         style="fill:#da607b;fill-opacity:1" /><path
         fill="#fcbfcd"
         d="m 57.02,87.62 c -1.78,11.62 8.85,21.32 -0.18,31.94 -1.76,-0.22667 -2.81,-0.98333 -3.15,-2.27 1.746667,-2.22 2.413333,-4.94 2,-8.16 L 52.94,98.54 c -0.866667,-3.393333 -1.103333,-6.75 -0.71,-10.07 0.800832,-1.88106 4.061269,-2.231215 4.79,-0.85 z"
         id="path343"
         style="fill:#da607b;fill-opacity:1"
         sodipodi:nodetypes="ccccccc" /><path
         fill="#fcbfcd"
         d="M 75.92,92.3 76,93.54 c -0.946667,5.106667 -2.176667,10.19667 -3.69,15.27 -0.306667,1.04 -0.333333,2.37 -0.08,3.99 -0.02667,0.27333 0.03,0.43333 0.17,0.48 -0.406667,1.66667 -1.67,2.41667 -3.79,2.25 -2.88,-7.05 1.25,-17.73 2.74,-24.93 0.06175,-0.107862 0.188057,0.0085 0.17,0.4 0.12202,-0.09929 0.05754,-0.179058 0.22,0 l -0.01314,-0.375977 c 0.04606,-0.345465 0.503785,-0.543815 0.805902,-0.370053 z"
         id="path347"
         style="fill:#da607b;fill-opacity:1"
         sodipodi:nodetypes="cccccccccccc" /><path
         fill="#d62b2a"
         d="m 81.05,93.23 c -1.21,6.96 -6.01,11.62 -6.88,18.7 q -0.99,0.76 -1.94,0.87 -0.38,-2.43 0.08,-3.99 2.27,-7.61 3.69,-15.27 3.99,-1.56 5.05,-0.31 z"
         id="path349" /><path
         fill="#d62b2a"
         d="m 52.94,98.54 2.75,10.59 q -0.83,1.42 -1.93,0.09 L 48.83,99.16 q 1.93,-0.9 4.11,-0.62 z"
         id="path351" /><path
         fill="#a20807"
         d="m 53.76,109.22 q 1.1,1.33 1.93,-0.09 0.62,4.83 -2,8.16 c -5.92,7.86 -16.72,2.09 -16.3,-7.18 q 0.02,-0.34 -0.32,-0.37 -0.14,-0.01 -0.31,0 l 0.36,-0.95 q 0.42,-1.11 0.48,0.07 c 0.69,12.25 16.7,12.87 16.16,0.36 z"
         id="path353" /><path
         fill="#da607b"
         d="m 75.771246,122.90417 c 1.066667,-0.57333 1.806667,-1.41667 2.22,-2.53 6.966667,1.34667 11.283333,-1.45333 12.95,-8.4 0.126667,-0.53333 -0.106667,-0.95667 -0.7,-1.27 -0.12,-0.68 0.223932,-1.22151 0.238177,-2.02051 -0.01968,0.0273 0.08516,-0.11282 0.251823,0.16051 1.453333,2.4 1.97,4.38 1.55,5.94 -2.18,8 -7.683333,10.70667 -16.51,8.12 z"
         id="path355"
         sodipodi:nodetypes="cccccccc" /><path
         fill="#da607b"
         d="m 36.761941,109.73624 c 0.0086,-0.0321 0.508667,-1.57215 0.680219,-1.48514 0.02456,0.14694 -0.02839,1.62174 -0.04173,1.84841 -0.42,9.27 10.369566,15.05049 16.289566,7.19049 0.34,1.28667 1.39,2.04333 3.15,2.27 -5.033333,4.69333 -10.15,5.69333 -15.35,3 -5.18,-2.68 -7.018059,-7.38376 -4.728059,-12.82376 z"
         id="path357"
         sodipodi:nodetypes="ccccccc" /><path
         fill="#a20807"
         d="m 90.480012,108.67983 c 0.401184,0.54111 0.605131,2.66943 0.478465,3.20276 C 89.29181,118.82926 84.966667,121.73667 78,120.39 c -2.96,-1.70667 -4.826667,-4.07667 -5.6,-7.11 -0.14,-0.0467 -0.196667,-0.20667 -0.17,-0.48 0.633333,-0.0733 1.28,-0.36333 1.94,-0.87 3.03,9.69 12.874341,11.00785 16.310012,-3.25017 z"
         id="path359"
         sodipodi:nodetypes="ccccccc" /><path
         fill="#eb8ea3"
         d="m 72.4,113.28 q 1.16,4.55 5.6,7.11 -0.62,1.67 -2.22,2.53 -4.83,-2.4 -7.17,-7.39 3.18,0.25 3.79,-2.25 z"
         id="path361"
         style="fill:#da607b;fill-opacity:1" /><path
         fill="#fcbfcd"
         d="m 101.62,87.33 4.54,1.55 c 10.97,6.1 11.36,22.24 -1.97,25.47 l -1.03137,-0.065 c -0.28653,-0.10389 -0.34466,-0.1227 -0.40356,-0.16118 -0.005,-0.003 0.27995,-0.19732 0.2971,-0.20342 14.58334,-5.1891 11.46997,-22.120352 -4.020023,-22.210352 L 100.46,91.46 c 0.35333,-0.06 0.48667,-0.263333 0.4,-0.61 -0.4,-1.62 -0.14667,-2.793333 0.76,-3.52 z"
         id="path345"
         sodipodi:nodetypes="ccccsscccc"
         style="fill:#da607b;fill-opacity:1" /><path
         fill="#a20807"
         d="m 105.83,84.97 c 7.61333,3.573333 10.88,9.723333 9.8,18.45 -0.73,5.88 -10.05902,12.30724 -12.87834,10.70376 13.33,-3.23 14.37834,-19.14376 3.40834,-25.24376 1.24667,-1.786667 1.13667,-3.09 -0.33,-3.91 z"
         id="path333"
         sodipodi:nodetypes="ccccc" /></g></g></svg>
