<?xml version="1.0" encoding="UTF-8" standalone="no"?>
<svg
   version="1.1"
   viewBox="0 0 180 180"
   id="svg3171"
   sodipodi:docname="react_logo.svg"
   width="180"
   height="180"
   inkscape:version="1.2.2 (732a01da63, 2022-12-09, custom)"
   xmlns:inkscape="http://www.inkscape.org/namespaces/inkscape"
   xmlns:sodipodi="http://sodipodi.sourceforge.net/DTD/sodipodi-0.dtd"
   xmlns="http://www.w3.org/2000/svg"
   xmlns:svg="http://www.w3.org/2000/svg">
  <defs
     id="defs3175" />
  <sodipodi:namedview
     id="namedview3173"
     pagecolor="#505050"
     bordercolor="#eeeeee"
     borderopacity="1"
     inkscape:showpageshadow="0"
     inkscape:pageopacity="0"
     inkscape:pagecheckerboard="0"
     inkscape:deskcolor="#505050"
     showgrid="false"
     showguides="true"
     inkscape:zoom="1.5866667"
     inkscape:cx="80.35714"
     inkscape:cy="121.95378"
     inkscape:window-width="1366"
     inkscape:window-height="704"
     inkscape:window-x="0"
     inkscape:window-y="0"
     inkscape:window-maximized="1"
     inkscape:current-layer="svg3171" />
  <path
     fill="#50c1df"
     d="m 37.692841,121.22323 q 0.161499,-0.60561 -0.436045,-0.76712 C 25.346275,117.23422 10.738728,110.55626 3.5924158,100.07499 -10.966682,78.70873 22.447375,64.359581 37.482893,60.192918 a 0.47642081,0.46834588 75.1 0 0 0.331072,-0.581394 C 34.503244,47.159983 30.586903,17.710718 46.615637,11.396123 60.504517,5.9374705 80.102371,20.262395 89.45315,29.403214 q 0.6056,0.597546 1.21122,0 c 11.08688,-10.925378 41.18214,-32.8003613 51.58265,-8.091078 4.72384,11.208002 2.95543,26.73609 0.0485,38.452812 a 0.46027095,0.46834588 13.9 0 0 0.33106,0.557169 c 12.40309,3.367246 34.85947,12.734163 37.18505,27.438606 2.68895,17.038097 -24.0875,28.859807 -36.73284,32.227047 q -0.42797,0.11301 -0.34722,0.54909 c 2.54359,12.81491 5.63629,31.79099 -2.86661,43.16858 -12.54844,16.80393 -38.98576,-2.49515 -49.01482,-12.67765 a 0.72674361,0.71866868 44.8 0 0 -1.02552,0 C 80.215418,160.66925 55.013567,178.5633 42.045234,166.01486 31.6528,155.9535 34.382124,133.55364 37.692846,121.22323 Z M 131.89496,19.576025 c -9.1812,-7.299735 -29.52194,9.229645 -35.98188,15.568464 q -0.33106,0.322998 -0.0161,0.670218 7.80037,8.688625 14.52679,18.225118 0.27455,0.39567 0.75097,0.436045 11.56329,1.11434 22.90856,3.552968 0.63792,0.129199 0.79136,-0.500646 c 2.21253,-8.833972 5.39405,-31.298424 -2.97965,-37.952167 z M 84.244808,35.249463 C 77.17924,28.240426 49.312664,6.0101434 43.902462,26.205543 c -2.624352,9.778739 -1.19509,21.866908 1.421187,31.508373 q 0.113045,0.42797 0.54102,0.331072 11.41795,-2.575904 23.078152,-3.601419 0.371439,-0.0323 0.589459,-0.331072 6.799096,-9.584941 14.728686,-18.24934 0.290687,-0.314921 -0.01621,-0.613694 z M 79.86819,52.949707 a 0.27454759,0.27454759 0 0 0 0.201876,0.452196 l 19.977384,0.07266 a 0.27454759,0.27454759 0 0 0 0.20993,-0.452195 L 90.31715,41.03918 a 0.27454759,0.27454759 0 0 0 -0.42797,-0.008 z m 26.14662,8.890496 Q 90.03453,60.507841 74.046166,61.783673 a 1.025516,1.025516 0 0 0 -0.767119,0.452195 Q 64.501599,75.486821 57.436046,89.731005 a 0.79134304,0.78326811 46 0 0 -0.008,0.686371 q 6.992893,14.542944 16.093336,27.882724 0.26647,0.37953 0.726741,0.40375 15.762277,0.68637 31.532607,-0.0808 a 1.2273892,1.2193142 15.2 0 0 0.95284,-0.54102 q 8.83397,-13.34784 15.89146,-27.705082 a 0.79134304,0.79941798 44 0 0 -0.008,-0.702509 Q 115.47055,75.527207 106.75771,62.284325 a 0.96899149,0.98514131 76.4 0 0 -0.7429,-0.444122 z M 52.760661,80.428688 a 0.28262251,0.28262251 0 0 0 0.508715,0.04039 L 63.241909,63.13219 a 0.28262251,0.28262251 0 0 0 -0.29069,-0.419896 L 47.576554,65.40932 a 0.28262251,0.28262251 0 0 0 -0.218023,0.379522 z M 117.10977,62.776896 a 0.32299717,0.32299717 0 0 0 -0.33915,0.484496 l 9.95638,17.2319 a 0.32299717,0.32299717 0 0 0 0.58141,-0.04846 L 132.654,65.869579 A 0.32299717,0.32299717 0 0 0 132.40368,65.4416 Z M 11.659269,98.023961 c 7.033263,7.388559 18.055542,12.290039 27.753532,14.978999 q 0.411821,0.11299 0.54102,-0.2907 3.601418,-11.21608 8.438301,-21.955729 a 1.5019368,1.5019368 0 0 0 0,-1.227391 Q 43.547164,78.926754 40.018421,67.823726 A 0.41182138,0.41182138 0 0 0 39.5097,67.549179 C 29.81171,70.431929 -3.1663002,82.471651 11.659269,98.023961 Z M 166.85133,80.905113 q -11.63597,-9.496119 -26.41309,-13.049087 -0.37953,-0.08882 -0.49257,0.282623 -3.45607,11.006129 -8.3737,21.463161 -0.17766,0.38759 0,0.783271 5.05489,10.763869 8.79358,22.060709 0.12921,0.39568 0.53295,0.27454 c 9.4719,-2.9312 44.56553,-16.618199 25.95283,-31.815217 z m -39.4218,18.709609 a 0.32299717,0.32299717 0 0 0 -0.58139,-0.04845 l -10.10982,17.651798 a 0.32299717,0.32299717 0 0 0 0.33108,0.4764 l 15.6815,-2.73739 a 0.32299717,0.32299717 0 0 0 0.25033,-0.43605 z M 63.209619,117.88021 a 0.25839772,0.25839772 0 0 0 0.26647,-0.3876 L 53.237078,99.824667 a 0.25839772,0.25839772 0 0 0 -0.468347,0.04044 l -5.499023,14.987073 a 0.25839772,0.25839772 0 0 0 0.201872,0.34723 z M 96.1634,145.54492 c 6.9606,6.62144 31.65373,26.65535 38.69507,11.4987 4.61886,-9.94024 2.80199,-24.26517 0.37951,-34.47188 q -0.10494,-0.44412 -0.54909,-0.33914 -11.32105,2.61628 -22.89243,3.5449 a 1.937983,1.9460579 15.2 0 0 -1.43734,0.82363 q -6.58914,9.46381 -14.2361,18.08785 a 0.6136946,0.6136946 0 0 0 0.0404,0.85594 z M 67.901149,125.96321 q -9.326543,-0.69444 -22.197978,-3.33494 -0.427972,-0.0888 -0.541021,0.33915 c -2.454778,9.36692 -8.212203,44.39595 12.588814,38.87271 10.505476,-2.78584 19.331375,-9.36692 26.824916,-16.33559 q 0.322993,-0.30684 0.02414,-0.63792 -7.881133,-8.80168 -14.922469,-18.26549 -0.403741,-0.53295 -1.77648,-0.63792 z m 32.646941,1.26777 a 0.27454759,0.27454759 0 0 0 -0.21803,-0.4522 l -20.284212,0.0727 a 0.27454759,0.27454759 0 0 0 -0.209964,0.45219 l 10.182496,12.20929 a 0.27454759,0.27454759 0 0 0 0.42797,0 z"
     id="path3157"
     style="stroke-width:0.807493" />
  <circle
     fill="#50c1df"
     cx="89.90535"
     cy="89.997482"
     r="16.061033"
     id="circle3159"
     style="stroke-width:0.807493" />
</svg>
