<?xml version="1.0" encoding="UTF-8" standalone="no"?>
<svg
   version="1.1"
   viewBox="0 0 180 180"
   id="svg15628"
   width="180"
   height="180"
   xmlns="http://www.w3.org/2000/svg"
   xmlns:svg="http://www.w3.org/2000/svg">
  <defs
     id="defs15632" />
  <path
     fill="#e6e6e6"
     d="m 103.44263,36.441602 c 0,0 0.32773,-0.216869 0.23093,-0.393068 -0.21864,-0.397981 -1.10796,-0.368499 -1.52313,-0.444658 0.11464,-0.0065 0.17196,-0.01063 0.17196,-0.0123 0.065,-0.176709 -0.0486,-0.366072 -0.22847,-0.380787 l -0.98512,-0.07615 c -0.0671,-0.0049 -0.0835,-0.03605 -0.0491,-0.09335 0.0802,-0.131023 0.0704,-0.301353 -0.0294,-0.51099 l 2.51317,0.619077 c 0.13245,0.03221 0.25596,-0.07857 0.2383,-0.213728 l -0.28498,-2.046398 c -0.0115,-0.09335 -0.15968,-0.14003 -0.15968,-0.14003 l -0.99253,-3.687411 c 0,0 0.0991,-0.03439 0.0909,-0.103181 -0.0884,-0.704241 -0.20472,-1.401114 -0.34885,-2.09062 -0.007,-0.03276 -0.004,-0.05896 0.007,-0.07861 0.0196,-0.03112 0.0327,-0.02952 0.0393,0.0048 0.17525,0.764841 0.43647,1.498564 0.78368,2.201169 0.0344,0.07043 0.0909,0.108917 0.16951,0.115468 l 0.41272,0.03191 c 0.10645,0.0082 0.15231,0.06552 0.13757,0.171966 -0.16378,1.18575 0.0401,2.305989 0.61171,3.360717 0.0344,0.06223 0.15968,0.09335 0.15968,0.09335 0.93813,0.98701 2.31445,2.815268 2.75638,3.660406 l -0.93599,0.04668 c -0.12646,0.0078 -0.20395,0.142115 -0.1474,0.255491 l 1.05146,2.097995 c 0.0508,0.09461 0.19407,-0.04914 0.19407,-0.04914 l 0.66839,1.348871 c 0,0 -0.14902,0.05241 -0.0933,0.157231 l 0.95809,1.810561 -2.16432,-0.343938 c 0.11301,-0.03112 0.16952,-0.06142 0.16952,-0.09089 0.003,-0.11229 -0.0952,-0.211586 -0.22847,-0.230929 l -2.72444,-0.395522 c -0.55857,-0.07953 -0.49824,-0.903167 0.0664,-0.90651 h 2.5451 c 0.12447,0 0.15804,-0.05486 0.10072,-0.164592 l -1.67544,-3.21332 c -0.0589,-0.111368 -0.14738,-0.145762 -0.26533,-0.103181 l -0.80087,0.289887 c -0.10318,0.03768 -0.15804,0.111381 -0.16459,0.221103 0.28116,3.412946 -1.28551,2.999143 -4.004366,2.87921 -0.05137,-0.0018 -0.09841,0.0286 -0.117915,0.07615 -0.05241,0.131022 -0.07943,0.286611 -0.08107,0.466766 l -1.736856,-0.348845 c 0.551928,-0.592873 1.234061,-1.076836 2.046398,-1.451889 m 0,0 c 0,0 1.957549,-2.346732 3.618659,-2.338771"
     id="path12470"
     style="display:none;fill:#b0b7bf;fill-opacity:1;stroke-width:0.245667" />
  <g
     id="g16296"
     transform="translate(-0.55050239,0.584965)">
    <path
       fill="#b0b7bf"
       d="m 91.870484,23.331169 -3.420174,1.807885 c -0.111016,0.05815 -0.103957,0.0978 0.0212,0.118938 l 7.289682,1.176183 3.954085,0.755925 2.233363,0.183392 0.22677,0.770417 c 0,0 0.229,0.254271 0.15906,0.444391 0,0.0019 -0.0617,0.0063 -0.18501,0.01323 l -2.465923,-0.301314 -3.848358,-0.615842 -4.054521,-0.782357 -4.147034,-1.115391 c -0.145035,-0.04239 -0.250446,0.137187 -0.14273,0.243161 l 4.012238,4.096812 c 1.422619,1.601855 0.828049,1.022958 2.777901,2.968232 l -2.246644,-0.385892 c -0.613202,-1.168253 -1.406132,-2.225494 -2.378797,-3.171724 l -1.755019,-2.225496 -0.962089,-1.16561 c -0.05156,-0.0621 -0.13906,-0.08069 -0.211449,-0.04493 -1.23168,0.613201 -1.913601,1.416705 -2.78055,2.312713 -0.610552,0.629061 -0.851072,1.300408 -1.115387,2.098625 -0.92685,-0.253737 -1.648411,-0.791166 -2.164698,-1.612288 1.229921,-1.314507 2.421079,-2.262501 3.57348,-2.843983 1.305691,-0.657254 2.540022,-1.292479 3.702983,-1.905675 2.692445,-1.323316 5.357578,-2.451923 7.99539,-3.385819 l 3.520614,-1.247542 c 0.0735,-0.0265 0.15519,0.01084 0.18502,0.08458 0.0159,0.04054 0.0185,0.0793 0.008,0.116298 -0.009,0.02995 -0.037,0.05551 -0.0846,0.07664 -1.050185,0.488093 -2.121524,0.924206 -3.214016,1.308341 -0.687205,0.24316 -1.170896,0.64756 -1.815803,0.896008 -0.955046,0.366513 -1.844015,0.810555 -2.6669,1.332127 z"
       id="path12472"
       style="stroke-width:0.264311" />
    <path
       style="fill:#b0b7bf;fill-opacity:1;stroke-width:1.07589"
       d="m 99.797797,19.415035 c 0,0 1.861883,5.790371 2.832983,8.761377 0.36098,1.104392 1.35798,3.474731 1.35798,3.474731 l 0.93285,3.482215 -0.70945,-0.340766 -1.92044,-6.174012 -2.780753,-9.122051 z"
       id="path16253" />
    <path
       style="fill:#b0b7bf;fill-opacity:1;stroke-width:1.07589"
       d="m 94.75194,33.142575 7.34659,-4.951571 0.43583,0.65293 -7.476208,4.551329 z"
       id="path16255" />
    <path
       style="fill:#b0b7bf;fill-opacity:1;stroke-width:1.07589"
       d="m 94.926207,75.590073 5.682443,10.359973 5.68835,2.223756 2.56339,1.478264 -9.091383,-2.766938 -5.755869,-10.866565 z"
       id="path16257" />
    <path
       fill="#dc2a25"
       d="m 80.66637,28.900192 q 0.774426,1.231682 2.164698,1.612288 0.536556,0.277528 1.614938,0.578842 3.991086,1.115391 7.588353,1.617581 l 2.246643,0.385892 q 0.08986,0.074 0.340961,0.04228 l 2.822832,0.444038 1.868672,0.375318 7.725793,1.260763 2.32857,0.370039 2.22287,0.393818 0.79293,0.161231 q 6.46502,0.999092 12.75032,2.558521 -0.0608,0.256382 0.20617,0.518051 0.0978,0.09515 0.23259,0.124223 0.77708,0.163878 1.496,0.560343 a 0.14801384,0.14801384 0 0 1 -0.10049,0.27488 l -0.21409,-0.03962 q -0.15859,-0.0317 -0.19823,0.124224 l -0.0688,0.261668 q -0.0396,0.153304 -0.17973,0.07929 -1.33211,-0.700418 -2.09333,0.0051 l -1.07575,-0.237874 a 0.17444487,0.17444487 0 0 0 -0.21409,0.153296 q -0.44932,4.567282 -2.32857,8.933696 l -0.81143,2.077483 a 0.15065693,0.15330004 0.6 0 0 0.19294,0.198233 l 3.43868,-1.29248 2.23607,-0.795579 0.0793,1.718016 -5.80161,2.447514 a 0.1321552,0.13479832 51.5 0 0 -0.0265,0.229962 q 4.69416,3.451891 7.82095,8.370707 a 0.15594315,0.15858625 57.5 0 0 0.21937,0.04755 q 0.23524,-0.150657 0.4414,-0.507476 0.0661,0.732144 0.54977,0.888084 0.14273,0.04497 0.0846,0.182374 l -0.66076,1.538289 -4.9664,1.382338 -3.05807,0.933024 c -8.78303,2.510948 -17.29383,5.53995 -25.648689,9.208569 l -0.874867,0.38589 -2.873048,1.197339 q -0.549776,0.03701 -0.985884,-0.20088 -0.113651,-0.06347 -0.235236,-0.02916 -0.322458,0.08457 -0.581481,0.274891 c -0.288102,0.208798 -0.277526,0.610543 -0.771785,0.63698 q -0.06874,0.0032 -0.103082,-0.05549 l -0.192946,-0.333029 a 0.05550518,0.05550518 0 0 0 -0.100433,0.04497 l 0.132154,0.496901 q 0.04754,0.177094 -0.134796,0.206165 -0.290744,0.04497 -0.486332,0.277526 -0.09515,0.118935 -0.248455,0.124219 -0.710992,0.03172 -1.337405,0.322466 -0.08194,0.03702 -0.198238,0.132153 -0.07404,0.05822 -0.179728,0.03702 -0.100432,-0.01855 -0.19823,0.0159 -0.303963,0.103066 -0.507478,0.333026 -0.08194,0.08984 -0.198238,0.116293 l -0.602626,0.148022 a 0.08457933,0.08457933 0 0 1 -0.08722,-0.132161 q 0.06079,-0.08456 0.150657,-0.100489 0.105716,-0.0212 0.111008,-0.129519 0.03172,-0.671345 0.721569,-0.658134 a 0.04493277,0.04493277 0 0 1 0.04489,0.04497 q -0.0032,0.05822 0.03702,0.0978 a 0.06607761,0.06872071 12.6 0 0 0.111009,-0.07147 q -0.163867,-0.462545 -0.602625,-0.62642 -0.161233,-0.06079 -0.113651,-0.227302 0.08457,-0.290744 0.38325,-0.359463 a 0.17708799,0.17708799 0 0 0 0.134796,-0.153309 l 0.105732,-0.869579 q 3.85364,-2.127695 7.00158,-4.966392 l 2.931199,-2.706535 2.912703,-3.298598 a 0.10572417,0.10572417 0 0 0 -0.134795,-0.161223 q -3.877443,2.365574 -7.585711,5.103826 -0.837861,0.618488 -1.60437,1.810533 l -1.300407,0.06079 3.280093,-4.625442 q 2.058982,-3.2748 3.311807,-6.872066 0.943586,-2.764697 1.139182,-5.669465 l 0.03959,-2.378786 c -0.07391,-9.988208 -5.99445,-15.21891 -12.977526,-21.654869 q -0.914515,-0.84315 -1.580584,-2.191129 0.03959,-0.642275 0.229952,-0.581482 z m 7.374261,6.731987 q 2.695963,2.851909 4.535561,5.701172 0.348895,0.541836 0.56827,0.80879 0.145372,0.177092 0.105725,-0.04757 c -0.45197,-2.56909 -1.398198,-5.196339 -2.191128,-7.672922 q -0.07669,-0.237882 -0.319823,-0.301315 L 88.080279,33.417265 84.72089,32.513322 q -0.253739,-0.06875 -0.05549,0.108364 z m 5.050973,2.011398 1.155035,3.187584 0.605268,2.17263 a 0.21673454,0.21673454 0 0 0 0.364747,0.09515 q 2.80698,-2.862484 6.340806,-4.947889 l 0.81673,-0.520689 1.05459,-0.584128 a 0.22730695,0.22730695 0 0 0 -0.0687,-0.422899 l -4.839569,-0.933012 -0.740064,-0.126871 -5.502942,-1.125958 q -0.570912,-0.118944 -0.346245,0.420252 z m 10.493116,0.182377 q -3.827213,2.629889 -6.909068,5.960194 l -0.134795,0.314536 a 0.15330004,0.15330004 0 0 0 0.09778,0.203515 l 9.097583,2.653682 q 0.41232,0.121575 0.44402,-0.309244 0.35154,-4.908247 -1.0863,-9.599761 -0.0687,-0.222015 -0.25903,-0.08987 z m 9.81913,5.571663 2.33386,-1.236975 q 2.2255,-1.073099 4.3532,-2.138272 0.23259,-0.116297 0.0846,-0.303954 a 0.26431041,0.26166732 76 0 0 -0.15594,-0.09515 l -8.376,-1.638728 -1.46164,-0.248447 -4.18403,-0.684567 a 0.1242259,0.12158279 83.1 0 0 -0.13216,0.169157 q 1.86867,4.443058 1.81581,9.269372 a 0.23523628,0.23523628 0 0 0 0.35682,0.203515 z m -1.96118,3.036929 -2.1039,1.490712 a 0.20351902,0.20351902 0 0 0 0.0343,0.351526 l 2.17792,0.977954 5.50294,2.809616 q 0.12423,0.06347 0.19823,-0.05283 c 1.9744,-3.116224 4.40342,-7.731084 4.73644,-11.434069 a 0.26695353,0.26695353 0 0 0 -0.39382,-0.259029 q -5.32585,2.880983 -10.15215,6.116148 z m -7.95574,2.41315 -3.528553,-1.173541 -3.911788,-1.00173 a 0.19294661,0.19294661 0 0 0 -0.24052,0.190304 q 0.0159,1.022883 0.132154,2.024613 0.449327,3.840428 0.121577,7.617422 a 0.19823281,0.19823281 0 0 0 0.3304,0.161233 l 7.9716,-7.252673 q 0.17973,-0.16388 -0.0475,-0.251091 z m 3.83515,1.739168 q -1.05196,4.873876 -3.47041,9.22971 a 0.08457933,0.08457933 0 0 0 0.11894,0.113657 q 5.10648,-3.137365 10.47992,-5.783112 a 0.12158279,0.12158279 0 0 0 0,-0.216727 l -6.92229,-3.443974 a 0.14537073,0.14537073 0 0 0 -0.20616,0.100489 z m -5.25186,2.862474 -2.125063,1.810533 -2.328561,2.032543 -1.131248,1.081034 a 0.20087592,0.20087592 0 0 0 0.04489,0.322455 q 1.675723,0.890721 3.071289,2.135624 l 1.207893,0.933014 q 0.11894,0.09253 0.20088,-0.03701 3.12151,-4.966392 4.46949,-10.672858 a 0.09515176,0.09515176 0 0 0 -0.14008,-0.10307 q -1.75767,1.062529 -3.26953,2.497736 z m 13.23139,5.167272 -1.78939,2.333857 q -3.79285,4.395481 -7.96631,8.288779 a 0.15858625,0.15858625 0 0 0 0.16124,0.26695 l 7.01479,-2.442221 2.80168,-0.911883 8.3813,-2.540019 2.40522,-0.639629 a 0.14537073,0.14801384 60.2 0 0 0.0687,-0.245809 q -2.90742,-2.91799 -6.51261,-5.397211 l -2.35765,-1.607016 q -0.12423,-0.08457 -0.21145,0.03959 z m -10.51956,10.421756 6.13728,-7.630645 3.20874,-4.490622 q 0.2088,-0.296031 -0.14802,-0.240526 -0.14008,0.02119 -0.43081,0.163869 -5.55054,2.738263 -10.88168,5.88884 -0.47839,0.282809 -0.75063,0.528618 a 0.1850173,0.18237419 55.3 0 0 -0.0396,0.222021 q 1.54094,2.986708 1.63873,6.348741 a 0.19558971,0.19558971 0 0 0 0.33304,0.134787 z M 94.093332,63.913387 q -1.062521,2.362939 -2.119766,4.078318 -0.650199,1.057237 0.340961,0.309233 l 6.335519,-4.78137 q 0.174452,-0.132152 -0.008,-0.251092 L 95.68703,61.331075 q -0.274884,-0.179728 -0.478407,-0.09253 -0.148014,0.06078 -0.248454,0.338314 -0.42289,1.181469 -0.866933,2.336504 z m 5.373435,2.154129 -2.558529,2.902133 -1.469566,1.414054 -2.06955,1.858109 -5.695889,4.593713 a 0.07665002,0.07665002 0 0 0 0.07926,0.129517 q 7.26061,-3.31974 14.714167,-6.176932 a 0.34888975,0.35153285 74.7 0 0 0.21938,-0.380607 q -0.4599,-2.801698 -2.09863,-5.124979 a 0.29338456,0.29338456 0 0 0 -0.46783,-0.01593 z"
       id="path12630"
       style="stroke-width:0.264311" />
    <path
       fill="#c11b1b"
       d="m 125.13395,38.700817 c 9.8773,2.28364 19.36867,6.314381 26.38876,13.641063 l 0.76121,0.917165 q 2.09599,2.508303 3.59462,5.029827 0.0767,0.129506 -0.0687,0.153293 -10.44819,1.683664 -20.58979,4.334693 l -3.3118,0.859013 -3.54969,0.925074 0.66077,-1.538278 q 0.0582,-0.137445 -0.0846,-0.182375 -0.48369,-0.15595 -0.54976,-0.888084 l 1.05195,-1.281914 5.70117,-7.234167 0.73479,-0.930367 2.1462,-2.88892 1.74445,-2.751475 a 0.12158279,0.11893969 8.2 0 0 -0.1348,-0.179728 q -7.02272,1.977037 -13.89744,4.67829 l -0.0793,-1.718016 7.30555,-2.249281 2.56116,-0.655487 3.09508,-0.758569 a 0.1295121,0.1295121 0 0 0 0.0238,-0.243173 q -3.6977,-1.696871 -7.60421,-3.018417 l -3.34353,-1.102178 -3.47568,-1.009667 q 0.76122,-0.705706 2.09335,-0.0051 0.14008,0.07401 0.17972,-0.0793 l 0.0687,-0.261669 q 0.0396,-0.155944 0.19822,-0.124224 l 0.2141,0.03962 a 0.14801384,0.14801384 0 0 0 0.10049,-0.274881 q -0.71892,-0.396465 -1.496,-0.560343 -0.13481,-0.02904 -0.23259,-0.124223 -0.26695,-0.261668 -0.20617,-0.518051 z m 14.70096,10.376829 -0.97267,1.778804 -1.34269,2.236069 q -3.23252,4.577855 -7.58043,8.481718 a 0.22730695,0.22730695 0 0 0 0.20616,0.388548 c 7.90288,-1.895109 16.07272,-3.391115 24.23726,-3.980521 q 0.29868,-0.02119 0.10049,-0.245808 -4.90294,-5.57695 -11.1486,-9.398873 l -2.29951,-1.350632 q -0.15065,-0.08984 -0.22466,0.06606 z"
       id="path12876"
       style="stroke-width:0.264311" />
    <path
       fill="#c11b1b"
       d="m 88.524314,72.812723 -3.520606,4.218389 -0.105733,0.869579 a 0.17708799,0.17708799 0 0 1 -0.134795,0.153313 q -0.298679,0.06874 -0.383251,0.359455 -0.04754,0.166517 0.113651,0.227302 0.438759,0.163875 0.602626,0.626421 a 0.06607761,0.06872071 12.6 0 1 -0.111009,0.07147 q -0.03967,-0.03959 -0.03702,-0.0978 a 0.04493277,0.04493277 0 0 0 -0.04497,-0.04497 q -0.689855,-0.01325 -0.721568,0.658134 -0.0048,0.108374 -0.111009,0.129511 -0.08987,0.0159 -0.150656,0.100384 a 0.08457933,0.08457933 0 0 0 0.08721,0.132162 l 0.602626,-0.148022 q 0.116301,-0.02634 0.198238,-0.116293 0.203515,-0.229952 0.507478,-0.333034 0.09779,-0.03429 0.19823,-0.0159 0.105725,0.0212 0.179728,-0.03702 0.116301,-0.09511 0.198238,-0.132153 0.626413,-0.290737 1.337405,-0.322458 0.153307,-0.0056 0.248455,-0.124227 0.195588,-0.232602 0.486333,-0.277526 0.182369,-0.02907 0.134795,-0.206165 l -0.132161,-0.496901 a 0.05550518,0.05550518 0 0 1 0.10044,-0.04497 l 0.192946,0.333034 q 0.03429,0.05822 0.103083,0.05549 c 0.494259,-0.02634 0.483682,-0.428178 0.771784,-0.636976 q 0.259023,-0.190315 0.581481,-0.27489 0.121585,-0.03432 0.235236,0.02916 0.436109,0.23788 0.985876,0.20088 l -6.996296,3.351449 -2.074834,1.070456 q -4.630721,2.299509 -8.576874,4.966393 -0.14801,0.03172 -0.229949,-0.145372 0.35682,-0.478399 0.66606,-0.726853 7.421837,-6.005136 13.498333,-13.310666 z"
       id="path13512"
       style="stroke-width:0.264311" />
    <path
       fill="#b0b7bf"
       d="m 94.68539,76.084886 c 0.12511,0.251975 0.169159,0.517164 0.132161,0.795569 l -1.744458,4.020168 c -1.177055,2.769966 -2.539139,5.463294 -4.086234,8.07997 l -0.502193,0.858998 c -0.08282,0.140971 -0.04489,0.191188 0.113659,0.150657 2.554999,-0.634339 4.960217,-1.366477 7.215671,-2.196412 l 11.511744,-5.147132 c 0,0 2.29448,-0.907472 1.98665,-0.491015 -3.96816,2.841881 -5.2023,2.768143 -10.121313,5.54365 l -3.546208,1.973872 -3.782279,1.266043 -4.18139,1.347982 -0.602634,0.150656 c -0.119818,0.02996 -0.140088,0.09165 -0.06079,0.18502 2.475712,2.98142 5.420129,5.476502 8.833259,7.485268 0.220387,-0.760077 0.498773,-2.436933 0.727472,-2.943519 0,0 2.28728,-12.355227 5.858893,-17.276985 0.17572,-0.242143 0.71872,-0.537625 0.71872,-0.537625 -1.48649,4.954347 -3.326913,7.781339 -4.443617,17.309446 -0.02401,2.008677 -0.241733,2.506558 -0.241733,2.506558 0,0 8.25829,-3.877459 12.99425,-5.33865 -3.93228,3.509997 -11.881833,6.727035 -12.600763,7.123505 -0.399992,0.22026 -0.410552,0.50747 -0.03164,0.86165 0.155058,0.14448 0.495138,0.30219 1.020228,0.47312 l 3.739985,1.47749 c 2.60257,0.9198 5.53019,1.62157 8.33365,2.16076 -0.007,-0.12158 -0.10415,-0.0215 -0.003,0.15639 0.037,0.0652 -0.007,0.12511 -0.13215,0.17973 l -4.07474,-0.70223 c -0.57443,-0.16034 -0.99733,-0.26431 -1.26868,-0.31188 -2.26426,-0.4088 -4.47831,-0.97795 -6.642125,-1.70745 l -2.574373,-0.79557 c -0.09339,-0.0282 -0.167401,-0.002 -0.222026,0.0793 l -4.27918,6.27473 c -0.2185,0.16563 -0.395585,0.39999 -0.531264,0.70306 l -2.804337,3.5867 c -0.06698,0.0846 -0.04666,0.13391 0.06079,0.148 1.057237,0.14537 2.125058,-0.31188 3.137363,-0.58676 l 8.561502,-3.04654 c 6.45936,-2.31551 4.66141,-1.70751 6.80793,-2.57459 l 3.87308,-1.28509 c 0.0846,0.0564 0.16616,0.46044 0.18026,0.58202 l -2.12386,0.60263 c -4.29952,2.06591 -6.92864,2.59157 -12.154389,4.78196 l -5.89252,1.91227 c -0.09378,0.0244 -0.09162,0.15833 0.0032,0.17974 l 7.831504,1.48806 4.041315,0.64492 3.82722,0.61849 c 1.86854,0.46964 1.18491,0.0721 1.86074,0.45997 0.13103,-0.0469 0.0503,0.18927 -0.0555,0.18502 l -1.61758,-0.0608 -3.98845,-0.25109 -3.938215,-0.44139 -8.040331,-1.22905 -3.742631,-0.81672 -4.075666,-1.11275 -3.039573,-1.01495 -0.896012,-0.35946 -3.803429,-1.65194 c -4.305613,-2.14092 -8.613873,-5.37079 -10.350393,-9.80063 -0.331268,-1.284541 -0.396464,-2.535616 -0.195588,-3.75321 0.41585,-1.379695 1.041384,-2.703889 1.876602,-3.97258 l 0.615841,-1.004387 1.889823,-2.119766 2.032545,-2.061608 0.980595,-0.935675 c 0.05463,0.118059 0.131276,0.166517 0.229948,0.145372 -1.895101,2.140919 -3.113578,3.549693 -4.295041,5.841268 -0.514528,0.946225 -0.82289,1.977033 -0.925088,3.09242 -0.0063,0.0783 0.06682,0.139301 0.142723,0.118944 l 3.658062,-1.012305 4.197249,-1.186757 3.002568,-0.872222 0.96737,-0.219375 3.192872,-0.93301 c 0.134482,-0.03999 0.204799,-0.186802 0.150656,-0.314539 L 82.31939,88.969759 c -0.764742,-2.206112 -0.915398,-4.499446 -0.451977,-6.879994 l 2.074834,-1.070464 -0.171793,4.073039 c 0.04489,0.444027 0.922441,6.552245 2.349709,4.551406 0.843154,-1.181456 1.633442,-2.206972 2.220207,-3.541751 l 0.37004,-0.541833 2.510942,-4.469484 c 0.37885,-0.692497 0.679287,-1.407898 0.901305,-2.146211 0.229189,-0.280457 0.139012,-0.303963 0.245788,-0.387972 0.207924,-0.812315 0.764758,-1.437525 1.443154,-2.085965 z m -14.981117,18.131688 -3.536464,0.803498 -7.953103,1.916252 c -0.09436,0.02321 -0.157389,0.112101 -0.148017,0.208807 0.128633,1.425518 0.555056,2.720641 1.279268,3.885369 0.655489,1.18587 1.47485,2.27131 2.458084,3.2563 l 0.695133,0.62906 1.644014,1.55679 c 0.08106,0.0776 0.153302,0.0696 0.216736,-0.0238 l 1.022882,-1.53564 0.755924,-1.12332 2.103906,-2.83605 1.855463,-2.65368 1.028166,-1.379702 2.304794,-3.28537 c 0.05967,-0.08082 -0.0064,-0.193982 -0.108367,-0.18502 -1.221119,0.11806 -2.427262,0.373557 -3.618419,0.766493 z m 3.755857,1.815819 -0.274883,0.359456 -6.618335,8.362781 -1.503922,2.25985 c -0.04818,0.0725 -0.02345,0.17025 0.05284,0.20881 0.840511,0.43347 4.18404,-0.98589 5.196341,-1.35856 l 2.505667,-0.87486 1.244899,-0.38061 3.782287,-1.30041 3.8695,-1.38498 1.847533,-0.75857 0.214091,-0.14801 c 0.09339,-0.0652 0.08986,-0.12512 -0.01052,-0.17974 l -1.517138,-0.8088 c -2.4528,-1.591138 -4.685342,-3.486245 -6.697625,-5.685307 -0.206164,-0.22555 -0.410562,-0.223037 -0.613202,0.0072 z m 8.410354,7.487907 -8.074685,2.318 -3.200799,0.94888 -4.04659,1.08895 c -0.129432,0.0326 -0.153042,0.20633 -0.03702,0.27224 l 1.575283,0.91452 1.599083,0.91716 4.289756,1.81316 3.795498,1.34534 0.359463,0.0582 c 0.09516,0.0158 0.168276,-0.0168 0.219375,-0.0978 l 2.746187,-4.35319 0.880159,-1.35855 1.562073,-2.44752 1.125956,-1.90303 c 0.103074,-0.17221 -0.06312,-0.37992 -0.253731,-0.31717 z"
       id="path13600"
       style="stroke-width:0.264311" />
    <path
       fill="#000000"
       d="m 52.866198,118.11552 h 1.284548 q 0.163877,0 0.163877,0.16651 v 0.52598 q 0,0.16652 -0.166517,0.16652 H 52.92699 q -0.198236,0 -0.198236,0.19822 v 5.83599 a 0.16915866,0.17180178 0 0 1 -0.169156,0.17179 l -0.753286,0.007 q -0.134796,0 -0.134796,-0.13479 v -5.91527 q 0,-0.16387 -0.166517,-0.16387 h -0.890723 q -0.132156,0 -0.132156,-0.13215 v -0.5947 q 0,-0.13217 0.132156,-0.13217 h 0.919796 a 0.1321552,0.1321552 0 0 0 0.132157,-0.1295 c 0.02117,-1.90832 0.293388,-3.7585 2.83341,-3.32239 q 0.145371,0.0263 0.145371,0.17445 v 0.43083 q 0,0.17444 -0.174444,0.15857 c -2.069551,-0.19293 -1.79731,1.10219 -1.736525,2.56118 q 0.0029,0.12686 0.132157,0.12686 z"
       id="path14400"
       style="stroke-width:0.264311" />
    <ellipse
       fill="#000000"
       cx="-1.7438638"
       cy="116.44328"
       transform="rotate(-8.2)"
       rx="0.65548986"
       ry="0.62905878"
       id="ellipse14404"
       style="stroke-width:0.264311" />
    <path
       fill="#000000"
       d="m 115.50777,114.86978 q -0.1348,0.28545 -0.47311,0.1956 a 0.34888975,0.34888975 0 0 0 -0.43876,0.3251 l -0.10049,2.44223 q 0,0.0343 -0.0343,0.0238 -0.0316,-0.0108 -0.0661,-0.0212 -0.0159,-0.006 -0.0159,-0.0263 l -0.006,-1.3427 -0.0422,-1.06781 a 0.33567422,0.33567422 0 0 0 -0.33567,-0.32246 h -0.1163 a 0.09253674,0.08989283 44.4 0 1 -0.003,-0.18237 z"
       id="path14406"
       style="stroke-width:0.264311" />
    <path
       fill="#000000"
       d="m 118.2381,115.50942 q 0.0396,0.0133 0.0635,0.0291 0.074,0.0475 0.037,0.12423 l -0.91717,1.99554 q -0.0793,0.16652 -0.15329,-0.003 l -0.92773,-2.09069 a 0.08986554,0.08722243 31.4 0 0 -0.16916,0.0396 q 0.0872,1.32948 -0.30131,2.59024 l 0.0687,-3.22987 a 0.15858625,0.15858625 0 0 1 0.30395,-0.0635 l 1.0123,2.19907 a 0.13744141,0.13479832 45.3 0 0 0.24846,0.003 z"
       id="path14408"
       style="stroke-width:0.264311" />
    <path
       fill="#000000"
       d="m 118.79579,116.90762 -0.0582,0.90658 q -0.003,0.0238 -0.0265,0.0185 -0.0343,-0.006 -0.0608,-0.0291 -0.0316,-0.0238 -0.037,-0.0793 -0.1163,-0.95945 -0.0661,-1.91889 0.007,-0.18238 -0.19824,-0.3489 l 0.0766,-0.45725 a 0.1850173,0.18237419 49.9 0 1 0.36477,0.0317 z"
       id="path14410"
       style="stroke-width:0.264311" />
    <path
       fill="#000000"
       d="m 2.5573533,116.91819 0.023819,8.09847 q 0,0.16916 -0.166509,0.16916 H 1.8146759 q -0.1665169,0 -0.1665169,-0.16651 l 0.00516,-9.61562 q 0,-0.13215 0.1321582,-0.13215 l 1.1048181,0.006 a 0.23259317,0.23259317 0 0 1 0.2140887,0.14008 l 3.438677,7.85266 a 0.14272763,0.14272763 0 0 0 0.2616692,0 l 3.4888958,-7.82094 q 0.07139,-0.16123 0.245809,-0.16386 l 1.025526,-0.0159 q 0.192943,-0.003 0.192943,0.1903 l 0.0029,9.51782 a 0.1876604,0.19030351 0 0 1 -0.187663,0.19031 H 10.8939 a 0.19030351,0.1876604 0 0 1 -0.19031,-0.18766 v -8.12755 q 0,-0.0793 -0.07401,-0.10307 -0.03169,-0.0132 -0.06346,-0.0238 a 0.02907415,0.02907415 0 0 0 -0.03699,0.0238 q -0.0661,0.32775 -0.198228,0.62906 -1.6889477,3.83778 -3.3012423,7.59364 a 0.36210527,0.36210527 0 0 1 -0.663419,0.006 l -3.6527673,-8.0932 a 0.08193623,0.08193623 0 0 0 -0.1559438,0.0343 z"
       id="path14412"
       style="stroke-width:0.264311" />
    <path
       fill="#000000"
       d="m 57.420267,116.27328 -0.01588,1.79731 q 0,0.082 0.08194,0.0793 l 1.567362,-0.0503 q 0.150657,-0.006 0.150657,0.14537 v 0.60527 q 0,0.13743 -0.140083,0.13479 l -1.583222,-0.037 q -0.08722,0 -0.08458,0.0872 c 0.02904,1.24226 -0.261668,4.17347 0.269594,5.18049 a 0.3832501,0.38060699 86 0 0 0.206163,0.17973 q 0.565622,0.21145 1.139177,0 0.185016,-0.0688 0.190303,0.12952 l 0.01055,0.46518 q 0.0029,0.12686 -0.116298,0.16916 c -1.469563,0.53654 -2.621961,-0.10307 -2.645747,-1.65988 q -0.03434,-2.17791 -0.01853,-4.32939 a 0.20087592,0.20087592 0 0 0 -0.206163,-0.20088 l -0.954162,0.0185 q -0.16387,0.003 -0.16387,-0.16123 v -0.56034 q 0,-0.13216 0.13215,-0.13216 l 1.0546,-0.0108 q 0.134797,0 0.134797,-0.13743 v -1.53036 a 0.17444487,0.17180178 84.8 0 1 0.140091,-0.1718 l 0.467824,-0.0925 q 0.48369,-0.25109 0.383252,0.082 z"
       id="path14418"
       style="stroke-width:0.264311" />
    <path
       fill="#000000"
       d="m 64.181327,118.56749 a 1.9691126,1.9691126 0 0 1 -1.969115,1.96911 1.9691126,1.9691126 0 0 1 -1.969107,-1.96911 1.9691126,1.9691126 0 0 1 1.969107,-1.96912 1.9691126,1.9691126 0 0 1 1.969115,1.96912 z m -0.185017,0.0291 a 1.7893815,1.7893815 0 0 0 -1.789377,-1.78938 1.7893815,1.7893815 0 0 0 -1.789385,1.78938 1.7893815,1.7893815 0 0 0 1.789385,1.78939 1.7893815,1.7893815 0 0 0 1.789377,-1.78939 z"
       id="path14420"
       style="stroke-width:0.264311" />
    <path
       fill="#000000"
       d="m 62.600751,118.74458 0.507476,0.91716 q 0.09252,0.16651 -0.09515,0.17179 -0.09515,0.003 -0.169157,-0.037 -0.05817,-0.0291 -0.100434,-0.11631 -0.211449,-0.44403 -0.541836,-0.86429 a 0.22730695,0.22730695 0 0 0 -0.40704,0.12691 l -0.03963,0.80086 a 0.15070222,0.1533461 46.2 0 1 -0.303961,-0.006 v -2.21491 a 0.19823281,0.19558971 78.8 0 1 0.121584,-0.18238 c 0.983234,-0.4229 2.196416,0.62377 1.078385,1.22904 q -0.11365,0.0634 -0.05022,0.17445 z m -0.822003,-1.05724 v 0.59204 a 0.16915866,0.16915866 0 0 0 0.169156,0.16917 h 0.174443 a 0.40703804,0.58676913 89.9 0 0 0.586775,-0.40704 v -0.1163 a 0.40703804,0.58676913 89.9 0 0 -0.586775,-0.40704 h -0.174443 a 0.16915866,0.16915866 0 0 0 -0.169156,0.16917 z"
       id="path14492"
       style="stroke-width:0.264311" />
    <path
       fill="#000000"
       d="m 21.093444,118.00451 1.213183,0.20088 q 0.14273,0.0238 0.200875,0.15594 0.21145,0.47046 -0.0051,0.92508 -2.947062,-1.43521 -4.091526,1.49601 0.05022,0.11101 -0.04228,0.50218 c -0.121585,2.53209 1.572641,4.12588 4.091525,2.76733 a 0.10308106,0.10308106 0 0 1 0.153296,0.10048 l -0.06081,0.61056 a 0.2484518,0.25373801 81.3 0 1 -0.158583,0.21145 c -5.994561,2.42372 -6.969868,-7.12581 -1.300407,-6.96987 z"
       id="path14496"
       style="stroke-width:0.264311" />
    <path
       fill="#000000"
       d="m 31.820907,125.38144 a 3.5073993,3.7347062 5.7 0 1 -3.11913,-4.06459 3.5073993,3.7347062 5.7 0 1 3.860996,-3.36788 3.5073993,3.7347062 5.7 0 1 3.119123,4.06459 3.5073993,3.7347062 5.7 0 1 -3.860989,3.36788 z m 2.776103,-4.29255 a 2.2069919,2.2069919 0 0 0 -2.187644,-2.22616 l -0.396443,-0.003 a 2.2069919,2.2069919 0 0 0 -2.22618,2.18764 l -0.01065,1.22106 a 2.2069919,2.2069919 0 0 0 2.187644,2.22616 l 0.396436,0.003 a 2.2069919,2.2069919 0 0 0 2.226179,-2.18764 z"
       id="path14498"
       style="stroke-width:0.264311" />
    <path
       fill="#000000"
       d="m 40.160798,118.023 0.634348,0.18239 q 0.140084,0.0396 0.208803,0.16915 0.198228,0.37267 0.02904,0.74007 -0.06081,0.12951 -0.182377,0.0608 c -0.737425,-0.41496 -2.291567,-0.67398 -2.629888,0.40439 -0.642274,2.0537 4.102099,1.58587 3.029,4.4272 -0.560335,1.48014 -2.714466,1.57002 -3.985799,1.03875 a 0.21409143,0.21144833 11.7 0 1 -0.129511,-0.19559 v -0.78766 q 0,-0.15065 0.124223,-0.0634 1.258115,0.88279 2.698606,0.28545 0.134805,-0.0555 0.19559,-0.18502 c 1.075745,-2.27835 -3.116218,-1.61493 -2.973488,-4.13116 q 0.08458,-1.46693 1.485425,-1.82904 0.79293,-0.23788 1.495996,-0.11629 z"
       id="path14500"
       style="stroke-width:0.264311" />
    <path
       fill="#000000"
       d="m 46.699834,118.03887 c 3.734705,0.32774 3.835144,6.2853 0.430832,7.16281 -5.175204,1.33477 -6.256228,-6.58134 -1.247548,-7.19982 z m 1.831517,3.00801 a 2.2069919,2.2069919 0 0 0 -2.226158,-2.18765 l -0.401753,0.003 a 2.2069919,2.2069919 0 0 0 -2.187644,2.22618 l 0.01076,1.22635 a 2.2069919,2.2069919 0 0 0 2.226158,2.18764 l 0.401752,-0.003 a 2.2069919,2.2069919 0 0 0 2.187645,-2.22618 z"
       id="path14502"
       style="stroke-width:0.264311" />
    <path
       fill="#000000"
       d="m 14.60462,125.20961 -0.203516,-0.30395 0.0029,-6.65535 q 0,-0.13216 0.132157,-0.13216 l 0.718927,-0.007 q 0.14537,0 0.14537,0.14538 l -0.008,6.75049 q 0,0.13743 -0.14009,0.15066 z"
       id="path14504"
       style="stroke-width:0.264311" />
    <path
       fill="#000000"
       d="m 25.433418,119.38421 a 0.1295121,0.1295121 0 0 0 0.251095,0.0503 q 0.557695,-1.53564 2.238708,-1.35855 0.132158,0.0132 0.142732,0.14538 l 0.05552,0.74006 a 0.08193623,0.08193623 0 0 1 -0.100435,0.0846 c -3.277448,-0.79029 -2.666894,4.20253 -2.545309,5.98928 q 0.01323,0.16386 -0.153296,0.15592 l -0.695141,-0.0291 a 0.1876604,0.1876604 0 0 1 -0.179729,-0.18765 v -6.72142 q 0,-0.12687 0.126871,-0.12687 l 0.734779,0.007 a 0.17708799,0.17444487 1.2 0 1 0.177089,0.18237 z"
       id="path14506"
       style="stroke-width:0.264311" />
    <path
       fill="#000000"
       d="m 0.66225148,152.29879 q -0.029114,-0.0291 0.07401,-0.12159 c 2.50037752,1.34005 4.93731472,2.4343 7.83151712,2.18849 3.2642354,-0.28017 5.5002974,-3.52855 3.5126834,-6.50732 -3.0395651,-4.562 -12.31686163,-5.98134 -11.47635762,-13.02258 0.86429612,-7.23946 9.13721052,-7.64386 14.41813262,-5.98399 a 0.2510949,0.2484518 8.9 0 1 0.174442,0.23789 v 3.22723 q 0,0.25902 -0.227301,0.13479 c -2.629887,-1.4352 -7.6147818,-2.49772 -9.9222152,0.21411 -1.147104,1.34797 -1.4404913,3.48888 -0.2510951,4.97695 2.5585285,3.19552 6.8033503,4.47478 9.6446883,7.52492 2.159416,2.32065 2.468656,6.09236 0.681919,8.69052 -3.174363,4.62279 -9.8719903,3.88536 -14.39434712,2.23343 q -0.1268638,-0.0476 -0.1268638,-0.18237 z"
       id="path14654"
       style="stroke-width:0.264311" />
    <path
       fill="#000000"
       d="m 32.231482,128.03244 c 8.516084,-0.10307 13.019934,4.8871 13.643709,13.10187 l 0.008,2.53209 q -0.121585,5.46595 -3.702985,9.73984 l -0.938301,1.02024 q -2.259856,1.81581 -4.950536,2.47923 a 0.25373801,0.25373801 0 0 0 -0.121584,0.4229 l 5.902049,6.12672 q 0.306601,0.2511 0.412325,0.51275 -2.991994,-0.16122 -3.895935,-0.0581 c -0.639627,0.074 -0.822004,-0.0159 -1.239616,-0.50748 q -1.662514,-1.95589 -3.359386,-3.88007 c -1.065173,-1.20791 -1.736519,-1.88454 -3.364674,-2.20964 -5.645667,-1.13125 -9.235002,-3.72942 -10.783865,-9.40417 -2.466011,-9.04205 1.17883,-18.99334 11.756534,-19.81006 z m -9.615608,14.20933 q -0.09252,0.6555 0.0661,1.25284 c -0.0051,7.67821 6.303811,12.99349 13.910666,10.01206 3.367312,-1.3189 5.090618,-4.35318 5.619233,-7.8315 0.758573,-4.96111 -0.142723,-11.7539 -5.354926,-13.93974 -2.606101,-1.0916 -6.129358,-1.08631 -8.648234,0.19031 -3.906509,1.97703 -5.423653,6.17165 -5.59281,10.31603 z"
       id="path14656"
       style="stroke-width:0.264311" />
    <path
       fill="#000000"
       d="m 87.86883,131.65615 0.01052,0.80085 q -0.07926,0.006 -0.05549,0.0687 l -0.401753,-0.17973 c -3.406963,-1.69688 -10.022655,-2.54267 -10.649068,2.94706 -0.22466,1.97704 1.860743,3.71357 3.483605,4.77609 3.240454,2.12506 7.361051,4.19989 8.434149,7.67029 0.885443,2.86512 0.09251,5.91263 -2.3365,7.75487 -3.708283,2.81226 -8.864978,2.16998 -12.914209,0.60791 l -0.09252,-1.96646 v -1.7286 a 0.17180178,0.17180178 0 0 1 0.261667,-0.148 c 2.904772,1.77087 7.178664,3.23779 10.286965,1.2581 2.201703,-1.40613 2.111839,-4.62542 0.420256,-6.39894 -3.679213,-3.84837 -12.834919,-6.25624 -10.675501,-13.33975 1.903037,-6.23773 8.886118,-6.54433 14.061311,-4.88446 q 0.129511,0.0422 0.132161,0.17972 z"
       id="path14658"
       style="stroke-width:0.264311" />
    <path
       fill="#000000"
       d="m 53.960444,153.46703 h 11.354774 a 0.10043796,0.10043796 0 0 1 0.100434,0.10049 v 3.103 a 0.10043796,0.10043796 0 0 1 -0.100434,0.10038 h -14.79874 a 0.10043796,0.10043796 0 0 1 -0.100434,-0.10038 v -28.21249 a 0.10043796,0.10043796 0 0 1 0.100434,-0.10049 h 3.245737 a 0.10043796,0.10043796 0 0 1 0.100434,0.10049 l -0.0029,24.90861 a 0.10043796,0.10043796 0 0 0 0.100435,0.10038 z"
       id="path14660"
       style="stroke-width:0.264311" />
    <path
       fill="#000000"
       d="m 147.07965,148.53235 0.14008,0.64228 c 1.53301,6.50733 7.80509,6.32231 12.45431,3.53648 q 0.1348,-0.082 0.29867,-0.1348 0.0898,0.21937 0.0687,0.35682 l -0.007,2.35237 a 0.47047255,0.47575875 77 0 1 -0.26961,0.42553 c -2.49244,1.18675 -5.66152,1.98233 -8.35749,1.43256 -3.7162,-0.75593 -6.71612,-3.25631 -7.45884,-7.09673 -0.71628,-3.69771 -0.30924,-7.91874 2.27836,-10.83937 5.18313,-5.84656 14.72209,-3.34352 14.90711,5.0959 q 0.037,1.61494 0.0317,3.12415 a 0.22466386,0.22466386 0 0 1 -0.22466,0.22466 h -13.85516 a 0.17444487,0.17444487 0 0 0 -0.17181,0.14273 q -0.0528,0.31453 0.16653,0.73742 z m 0.28809,-3.57612 10.51427,0.037 a 0.08986554,0.08986554 0 0 0 0.0898,-0.0898 v -0.0396 a 5.3469998,5.8386171 0.2 0 0 -5.32586,-5.85712 v 0 a 5.3469998,5.8386171 0.2 0 0 -5.36814,5.82011 v 0.0396 a 0.08986554,0.08986554 0 0 0 0.0898,0.0898 z"
       id="path14786"
       style="stroke-width:0.264311" />
    <path
       fill="#000000"
       d="m 179.20922,136.14678 0.87751,0.44667 c 0.86959,1.41143 0.54712,3.11095 -1.22903,3.34353 -2.95236,0.38854 -2.97085,-4.41134 0.35152,-3.7902 z m 1.21319,1.87131 a 1.8052402,1.8052402 0 0 0 -1.80524,-1.80525 1.8052402,1.8052402 0 0 0 -1.80524,1.80525 1.8052402,1.8052402 0 0 0 1.80524,1.80525 1.8052402,1.8052402 0 0 0 1.80524,-1.80525 z"
       id="path14788"
       style="stroke-width:0.264311" />
    <path
       fill="#000000"
       d="m 94.677463,147.90858 c 0.224668,2.32858 1.519783,4.90561 3.626338,6.02364 2.698609,1.42727 6.517889,0.38325 8.991849,-1.15503 q 0.40968,-0.25638 0.40968,0.22731 v 2.38143 a 0.43082597,0.42818288 77.4 0 1 -0.24582,0.38853 c -2.63517,1.2502 -5.81483,2.00084 -8.640297,1.3612 -3.742647,-0.84844 -6.615695,-3.57876 -7.183965,-7.48527 -0.655492,-4.49328 0.008,-8.77246 3.705633,-11.64287 4.736449,-3.67656 12.034059,-1.90832 13.292169,4.36377 q 0.42554,2.1277 0.29867,5.1752 -0.006,0.10575 -0.11365,0.10575 H 94.910057 q -0.256381,0 -0.232594,0.25639 z m 0.531265,-2.82811 10.345112,-0.12687 a 0.1321552,0.1321552 0 0 0 0.12951,-0.13481 v -0.0264 a 5.7883981,5.2888514 89.3 0 0 -5.36021,-5.72232 h -0.0316 a 5.7883981,5.2888514 89.3 0 0 -5.217488,5.85183 v 0.0265 a 0.1321552,0.1321552 0 0 0 0.134796,0.13214 z"
       id="path14790"
       style="stroke-width:0.264311" />
    <path
       fill="#000000"
       d="m 116.11832,156.62026 -0.0978,0.14009 -3.25629,-0.006 q -0.16916,0 -0.16916,-0.17179 v -19.73319 q 0,-0.16387 0.16387,-0.16387 l 3.19286,0.0343 q 0.14539,0 0.14539,0.14801 v 2.85191 a 0.13744141,0.13744141 0 0 0 0.26166,0.0608 q 2.02991,-4.04923 6.67648,-3.43867 0.11366,0.0132 0.1163,0.12951 l 0.0528,3.12943 q 0.003,0.14008 -0.12685,0.0873 -3.23781,-1.36648 -5.39723,1.35591 c -1.22905,1.54886 -1.46692,2.92063 -1.52772,5.05098 q -0.14272,5.13555 -0.12422,10.27639 0,0.0661 0.0316,0.12421 0.037,0.0715 0.0582,0.12424 z"
       id="path14794"
       style="stroke-width:0.264311" />
    <path
       fill="#000000"
       d="m 165.07126,156.71012 h -0.20351 l -0.0898,-19.80213 a 0.28809835,0.28809835 0 0 1 0.2881,-0.29075 h 3.10037 a 0.1321552,0.1321552 0 0 1 0.13214,0.13216 v 2.6484 q 0,0.71891 0.4229,0.13744 c 2.00876,-2.75412 2.98407,-3.43604 6.55225,-3.22195 q 0.16124,0.007 0.16124,0.16915 v 2.97087 a 0.15065693,0.15065693 0 0 1 -0.20616,0.14008 c -3.91444,-1.5198 -6.57605,1.91888 -6.75842,5.45799 q -0.2881,5.60603 -0.14009,11.37593 a 0.27223973,0.27488283 89.2 0 1 -0.27488,0.28018 z"
       id="path14796"
       style="stroke-width:0.264311" />
    <path
       fill="#000000"
       d="m 128.63607,138.29033 2.44223,7.31347 2.55059,6.9963 q 0.16652,0.45197 0.33304,0.003 l 5.86504,-15.62339 q 0.111,-0.29603 0.42554,-0.29603 l 2.86513,-0.003 q 0.21409,0 0.13479,0.20087 l -7.86058,19.74134 q -0.0528,0.13216 -0.19559,0.13216 l -2.90477,0.007 q -0.14273,0.0396 -0.31983,-0.10038 l -7.44825,-19.88408 q -0.0608,-0.16123 0.111,-0.16123 h 3.22195 q 0.16387,0 0.21937,0.15594 z"
       id="path14854"
       style="stroke-width:0.264311" />
    <path
       fill="#000000"
       d="m 178.13348,138.32469 q 0.0343,0.39911 0.0238,0.8035 a 0.1982577,0.1982577 0 0 1 -0.39647,-0.006 l -0.007,-2.00876 a 0.41232425,0.41232425 0 0 1 0.34096,-0.40969 q 0.87751,-0.15594 1.36649,0.51542 a 0.2563811,0.25902421 44.6 0 1 0,0.29868 l -0.40441,0.57089 a 0.17708799,0.17708799 0 0 0 -0.0108,0.19031 l 0.51012,0.89602 a 0.11101038,0.11101038 0 0 1 -0.16124,0.14536 c -0.44404,-0.31717 -0.59204,-1.11539 -1.09688,-1.15768 a 0.15065693,0.15065693 0 0 0 -0.16388,0.16124 z m 0.0133,-1.13389 -0.006,0.4969 a 0.18237419,0.18237419 0 0 0 0.17973,0.18502 l 0.21144,0.003 a 0.59469844,0.3832501 0.7 0 0 0.59999,-0.37797 v -0.0951 a 0.59469844,0.3832501 0.7 0 0 -0.58941,-0.38853 l -0.21144,-0.003 a 0.18237419,0.18237419 0 0 0 -0.18503,0.17973 z"
       id="path14856"
       style="stroke-width:0.264311" />
    <path
       style="fill:#b0b7bf;fill-opacity:1;stroke-width:1.07589"
       d="m 115.33423,95.112586 -0.76791,-0.893008 -2.96646,12.360552 -2.70885,10.7204 0.53471,0.0944 1.9204,-6.89417 c 0,0 1.47154,-5.07391 2.54475,-8.74618 0.91136,-3.118433 1.44336,-6.641922 1.44336,-6.641922 z"
       id="path16259" />
  </g>
</svg>
